<svg width="99" height="40" viewBox="0 0 99 40" fill="none" xmlns="http://www.w3.org/2000/svg">
<path d="M28.9045 2.11203C31.2836 2.11434 33.5646 3.06045 35.2469 4.74273C36.9292 6.425 37.8753 8.706 37.8776 11.0851V29.7104C37.8753 32.0895 36.9292 34.3705 35.2469 36.0528C33.5646 37.7351 31.2836 38.6812 28.9045 38.6835H10.2792C7.9001 38.6812 5.6191 37.7351 3.93682 36.0528C2.25455 34.3705 1.30843 32.0895 1.30612 29.7104V11.0851C1.30843 8.706 2.25455 6.425 3.93682 4.74273C5.6191 3.06045 7.9001 2.11434 10.2792 2.11203H28.9045ZM28.9045 0.805908H10.2792C7.55299 0.805908 4.93843 1.88889 3.01071 3.81661C1.08299 5.74433 0 8.35889 0 11.0851V29.7104C0 32.4366 1.08299 35.0512 3.01071 36.9789C4.93843 38.9066 7.55299 39.9896 10.2792 39.9896H28.9045C30.2544 39.9896 31.5911 39.7237 32.8382 39.2071C34.0853 38.6906 35.2185 37.9334 36.173 36.9789C37.1275 36.0244 37.8847 34.8912 38.4012 33.6441C38.9178 32.397 39.1837 31.0603 39.1837 29.7104V11.0851C39.1837 8.35889 38.1007 5.74433 36.173 3.81661C34.2453 1.88889 31.6307 0.805908 28.9045 0.805908Z" fill="#FFFFFF"/>
<path d="M26.1182 13.4945C26.1182 12.8991 25.8888 12.328 25.4806 11.907C25.0723 11.486 24.5186 11.2494 23.9413 11.2494H15.2338C15.1599 11.245 15.0857 11.245 15.0118 11.2494C14.9207 11.259 14.8305 11.2755 14.7418 11.2988C14.6456 11.3219 14.551 11.352 14.4588 11.3886L14.2934 11.4605C14.0187 11.5961 13.7742 11.7887 13.575 12.0262C13.5436 12.0632 13.5145 12.1022 13.488 12.143C13.4249 12.2283 13.3681 12.3183 13.3181 12.4124C13.2526 12.5349 13.2001 12.6644 13.1614 12.7986C13.1315 12.9032 13.1083 13.0096 13.0918 13.1174C13.0726 13.2331 13.0624 13.3502 13.0613 13.4676V26.965C13.0613 27.5604 13.2906 28.1315 13.6989 28.5525C14.1071 28.9736 14.6608 29.2101 15.2382 29.2101C15.8155 29.2101 16.3692 28.9736 16.7774 28.5525C17.1857 28.1315 17.415 27.5604 17.415 26.965V22.4748H21.7688C22.3461 22.4748 22.8998 22.2383 23.3081 21.8173C23.7163 21.3962 23.9456 20.8252 23.9456 20.2298C23.9456 19.6343 23.7163 19.0633 23.3081 18.6423C22.8998 18.2212 22.3461 17.9847 21.7688 17.9847H17.415V15.7396H23.9456C24.5222 15.7384 25.0748 15.5014 25.4821 15.0805C25.8894 14.6595 26.1182 14.0892 26.1182 13.4945ZM21.7644 18.6896C22.061 18.6888 22.3512 18.7787 22.5981 18.9481C22.8451 19.1175 23.0377 19.3587 23.1516 19.6411C23.2655 19.9235 23.2955 20.2344 23.2379 20.5345C23.1802 20.8345 23.0375 21.1102 22.8278 21.3265C22.6181 21.5427 22.3508 21.69 22.0599 21.7494C21.769 21.8089 21.4675 21.7779 21.1936 21.6604C20.9198 21.543 20.6859 21.3443 20.5217 21.0896C20.3574 20.8349 20.2702 20.5356 20.2711 20.2298C20.2705 20.0265 20.3088 19.8252 20.3838 19.6373C20.4589 19.4494 20.5691 19.2786 20.7082 19.1347C20.8473 18.9908 21.0126 18.8766 21.1946 18.7987C21.3766 18.7208 21.5717 18.6807 21.7688 18.6807L21.7644 18.6896ZM15.2338 28.5276C14.9385 28.5267 14.6501 28.4358 14.4048 28.2663C14.1594 28.0968 13.9682 27.8563 13.855 27.575C13.7418 27.2938 13.7117 26.9843 13.7686 26.6854C13.8255 26.3866 13.9668 26.1118 14.1747 25.8955C14.3825 25.6792 14.6478 25.5312 14.937 25.4699C15.2263 25.4087 15.5266 25.437 15.8003 25.5513C16.074 25.6656 16.3089 25.8607 16.4753 26.1123C16.6418 26.3638 16.7324 26.6605 16.7358 26.965C16.737 27.1686 16.6991 27.3704 16.6244 27.5589C16.5496 27.7473 16.4395 27.9186 16.3003 28.063C16.1611 28.2074 15.9956 28.322 15.8133 28.4002C15.631 28.4784 15.4356 28.5186 15.2382 28.5186L15.2338 28.5276ZM16.8708 17.9847H15.2425C14.9327 17.9845 14.6264 18.0524 14.3441 18.1841C14.0618 18.3157 13.81 18.508 13.6055 18.748V14.9763C13.81 15.2163 14.0618 15.4086 14.3441 15.5402C14.6264 15.6719 14.9327 15.7398 15.2425 15.7396H16.8708V17.9847ZM25.439 13.4945C25.439 13.8 25.3511 14.0987 25.1866 14.3527C25.022 14.6067 24.7881 14.8047 24.5144 14.9216C24.2408 15.0385 23.9396 15.0691 23.6491 15.0095C23.3586 14.9499 23.0917 14.8028 22.8823 14.5867C22.6728 14.3707 22.5302 14.0955 22.4724 13.7959C22.4146 13.4962 22.4442 13.1857 22.5576 12.9034C22.671 12.6212 22.8629 12.3799 23.1092 12.2102C23.3555 12.0405 23.6451 11.9499 23.9413 11.9499C24.3385 11.9499 24.7194 12.1126 25.0003 12.4023C25.2812 12.692 25.439 13.0849 25.439 13.4945Z" fill="#FFFFFF"/>
<path fill-rule="evenodd" clip-rule="evenodd" d="M50.8354 17.4862V15.955C50.9349 14.4807 51.0947 13.2017 54.0079 13.6103C54.0998 13.6234 54.1916 13.6388 54.2824 13.654L54.2824 13.654L54.2824 13.654H54.2824C54.3883 13.6718 54.4927 13.6893 54.5941 13.7027C54.6466 13.708 54.6993 13.6954 54.7438 13.6671C54.7883 13.6387 54.8219 13.5962 54.8392 13.5463L55.2975 11.5782C55.299 11.5397 55.2865 11.5019 55.2623 11.4719C55.2382 11.4419 55.204 11.4216 55.1661 11.4148C53.3293 11.2549 52.6401 11.2549 52.2635 11.2549C49.6346 11.2549 47.9435 12.4308 47.9435 15.4577V17.4862C47.9435 17.5305 47.9259 17.573 47.8946 17.6043C47.8633 17.6356 47.8208 17.6532 47.7766 17.6532H46.0002C45.956 17.6532 45.9135 17.6708 45.8822 17.7021C45.8509 17.7334 45.8333 17.7759 45.8333 17.8202L45.4531 19.8914C45.4531 19.9133 45.4574 19.935 45.4658 19.9553C45.4742 19.9755 45.4865 19.9939 45.502 20.0094C45.5175 20.0249 45.5359 20.0372 45.5562 20.0456C45.5765 20.054 45.5982 20.0583 45.6201 20.0583H47.7766C47.7985 20.0583 47.8202 20.0627 47.8405 20.0711C47.8607 20.0795 47.8791 20.0917 47.8946 20.1073C47.9101 20.1228 47.9224 20.1412 47.9308 20.1614C47.9392 20.1817 47.9435 20.2034 47.9435 20.2253V29.1318C47.9435 29.1761 47.9611 29.2186 47.9924 29.2499C48.0237 29.2812 48.0662 29.2988 48.1105 29.2988H50.6684C50.7127 29.2988 50.7552 29.2812 50.7865 29.2499C50.8178 29.2186 50.8354 29.1761 50.8354 29.1318V20.2289C50.8354 20.1846 50.853 20.1421 50.8843 20.1108C50.9156 20.0795 50.9581 20.0619 51.0024 20.0619H53.3613C53.4056 20.0619 53.4481 20.0443 53.4794 20.013C53.5107 19.9817 53.5283 19.9392 53.5283 19.8949L53.9013 17.8202C53.9013 17.7759 53.8837 17.7334 53.8524 17.7021C53.8211 17.6708 53.7786 17.6532 53.7343 17.6532H51.0024C50.9581 17.6532 50.9156 17.6356 50.8843 17.6043C50.853 17.573 50.8354 17.5305 50.8354 17.4862ZM66.4564 23.4902C66.4564 20.0761 63.998 17.5893 60.3991 17.5893C56.8003 17.5893 54.3419 20.101 54.3419 23.4902C54.3419 26.8794 56.8003 29.3663 60.3991 29.3663C63.998 29.3663 66.4564 26.9043 66.4564 23.4902ZM63.6285 23.4689C63.6285 25.4335 62.3353 26.8794 60.3991 26.8794C58.4878 26.8794 57.2017 25.4335 57.2017 23.4689C57.2017 21.5043 58.4594 20.0583 60.3991 20.0583C62.3389 20.0583 63.6285 21.5043 63.6285 23.4689ZM79.5514 18.076V28.9116C79.5514 28.9474 79.5372 28.9817 79.5119 29.007C79.4866 29.0323 79.4522 29.0466 79.4164 29.0466H77.0326C76.9968 29.0466 76.9625 29.0323 76.9371 29.007C76.9118 28.9817 76.8976 28.9474 76.8976 28.9116V27.8884C76.8981 27.8601 76.8897 27.8323 76.8735 27.809C76.8574 27.7857 76.8343 27.7681 76.8076 27.7587C76.7808 27.7492 76.7518 27.7484 76.7246 27.7564C76.6974 27.7644 76.6734 27.7808 76.656 27.8031C76.1806 28.3212 75.5981 28.7296 74.9491 29.0001C74.3001 29.2707 73.6 29.3968 72.8973 29.3699C69.7923 29.3699 67.6572 27.0535 67.6572 23.5435C67.6572 19.9589 69.8918 17.5928 73.146 17.5928C74.7092 17.5928 76.0166 18.1257 76.8337 19.1133C76.8506 19.1325 76.8726 19.1465 76.8971 19.1536C76.9216 19.1608 76.9477 19.1609 76.9722 19.1538C76.9968 19.1467 77.0189 19.1328 77.0358 19.1137C77.0528 19.0946 77.064 19.0711 77.0681 19.0458L77.2245 18.0547C77.2296 18.0227 77.246 17.9936 77.2708 17.9727C77.2956 17.9518 77.3271 17.9406 77.3595 17.941H79.4164C79.4522 17.941 79.4866 17.9552 79.5119 17.9805C79.5372 18.0058 79.5514 18.0402 79.5514 18.076ZM76.7484 23.4476C76.7484 21.4048 75.4837 20.0868 73.6185 20.0868C71.7534 20.0868 70.4886 21.4581 70.4886 23.4725C70.4886 25.4868 71.7285 26.8581 73.5936 26.8581C75.4588 26.8581 76.7484 25.4868 76.7484 23.4476ZM98.7464 28.9684V21.7245C98.7464 19.1098 97.0766 17.5893 94.7639 17.5786C93.1616 17.5786 91.904 18.2962 91.2361 19.5326C91.2295 19.5452 91.2195 19.5558 91.2073 19.5632C91.1951 19.5706 91.1811 19.5745 91.1668 19.5745C91.1525 19.5745 91.1385 19.5706 91.1263 19.5632C91.1141 19.5558 91.1042 19.5452 91.0975 19.5326C90.49 18.3211 89.1685 17.5822 87.6124 17.5822C87.031 17.5707 86.4544 17.6892 85.9246 17.9289C85.3948 18.1686 84.9252 18.5235 84.55 18.9677C84.541 18.9808 84.5282 18.9909 84.5133 18.9966C84.4984 19.0022 84.4821 19.0031 84.4666 18.9993C84.4512 18.9954 84.4373 18.9869 84.4268 18.9749C84.4163 18.9629 84.4097 18.948 84.4079 18.9322L84.2907 18.0014C84.2881 17.9825 84.2787 17.9653 84.2643 17.9529C84.2499 17.9404 84.2315 17.9337 84.2125 17.9339H81.8287C81.808 17.9339 81.7881 17.9421 81.7734 17.9568C81.7588 17.9714 81.7505 17.9913 81.7505 18.012V28.9506C81.7505 28.9609 81.7526 28.9711 81.7565 28.9805C81.7604 28.99 81.7662 28.9986 81.7734 29.0059C81.7807 29.0132 81.7893 29.0189 81.7988 29.0229C81.8083 29.0268 81.8184 29.0288 81.8287 29.0288H84.4506C84.4608 29.0288 84.471 29.0268 84.4805 29.0229C84.4899 29.0189 84.4985 29.0132 84.5058 29.0059C84.5131 28.9986 84.5188 28.99 84.5228 28.9805C84.5267 28.9711 84.5287 28.9609 84.5287 28.9506V22.5061C84.5287 21.1099 85.3742 19.9909 86.7633 19.9909C88.0742 19.9909 88.8949 20.8613 88.8949 22.3818V28.9506C88.8949 28.9609 88.8969 28.9711 88.9009 28.9805C88.9048 28.99 88.9105 28.9986 88.9178 29.0059C88.925 29.0132 88.9337 29.0189 88.9432 29.0229C88.9526 29.0268 88.9628 29.0288 88.9731 29.0288H91.5452C91.5554 29.0288 91.5656 29.0268 91.5751 29.0229C91.5846 29.0189 91.5932 29.0132 91.6004 29.0059C91.6077 28.9986 91.6135 28.99 91.6174 28.9805C91.6213 28.9711 91.6233 28.9609 91.6233 28.9506V22.5061C91.6233 21.0851 92.444 19.9909 93.9326 19.9909C95.1227 19.9909 95.9931 20.7369 95.9931 22.3818V28.9684C95.9931 28.9787 95.9951 28.9888 95.999 28.9983C96.0016 29.0044 96.0048 29.0101 96.0087 29.0153C96.011 29.0183 96.0134 29.021 96.016 29.0237C96.0233 29.0309 96.0319 29.0367 96.0413 29.0406C96.0508 29.0445 96.061 29.0466 96.0712 29.0466H98.6682C98.689 29.0466 98.7088 29.0383 98.7235 29.0237C98.7382 29.009 98.7464 28.9891 98.7464 28.9684Z" fill="#FFFFFF"/>
</svg>
