<svg width="99" height="40" viewBox="0 0 99 40" fill="none" xmlns="http://www.w3.org/2000/svg">
<path d="M28.906 2.11234C31.2853 2.11465 33.5664 3.06081 35.2488 4.74318C36.9311 6.42555 37.8773 8.70666 37.8796 11.0859V29.7122C37.8773 32.0914 36.9311 34.3725 35.2488 36.0549C33.5664 37.7373 31.2853 38.6834 28.906 38.6857H10.2797C7.90052 38.6834 5.6194 37.7373 3.93703 36.0549C2.25467 34.3725 1.3085 32.0914 1.30619 29.7122V11.0859C1.3085 8.70666 2.25467 6.42555 3.93703 4.74318C5.6194 3.06081 7.90052 2.11465 10.2797 2.11234H28.906V2.11234ZM28.906 0.806152H10.2797C7.55339 0.806152 4.93869 1.88919 3.01087 3.81702C1.08305 5.74484 0 8.35953 0 11.0859V29.7122C0 32.4385 1.08305 35.0532 3.01087 36.9811C4.93869 38.9089 7.55339 39.9919 10.2797 39.9919H28.906C30.256 39.9919 31.5927 39.726 32.8399 39.2094C34.0871 38.6928 35.2204 37.9356 36.1749 36.9811C37.1295 36.0265 37.8867 34.8933 38.4033 33.6461C38.9199 32.3989 39.1858 31.0621 39.1858 29.7122V11.0859C39.1858 8.35953 38.1027 5.74484 36.1749 3.81702C34.2471 1.88919 31.6324 0.806152 28.906 0.806152V0.806152Z" fill="#1C2128"/>
<path d="M26.1196 13.4956C26.1196 12.9002 25.8902 12.3291 25.482 11.908C25.0737 11.487 24.52 11.2504 23.9426 11.2504H15.2347C15.1607 11.246 15.0866 11.246 15.0126 11.2504C14.9216 11.2599 14.8313 11.2765 14.7427 11.2998C14.6464 11.3229 14.5518 11.3529 14.4596 11.3896L14.2942 11.4615C14.0195 11.5971 13.7749 11.7897 13.5758 12.0273C13.5444 12.0642 13.5153 12.1032 13.4887 12.144C13.4256 12.2293 13.3688 12.3193 13.3189 12.4134V12.4134C13.2534 12.536 13.2008 12.6655 13.1622 12.7996C13.1323 12.9042 13.109 13.0107 13.0925 13.1184C13.0733 13.2342 13.0631 13.3513 13.062 13.4687V13.4687V26.9668C13.062 27.5623 13.2914 28.1334 13.6996 28.5544C14.1079 28.9755 14.6616 29.212 15.239 29.212C15.8164 29.212 16.3701 28.9755 16.7784 28.5544C17.1866 28.1334 17.416 27.5623 17.416 26.9668V26.9668V22.4764H21.77C22.3473 22.4764 22.9011 22.2399 23.3093 21.8188C23.7176 21.3978 23.947 20.8267 23.947 20.2312C23.947 19.6358 23.7176 19.0647 23.3093 18.6436C22.9011 18.2226 22.3473 17.986 21.77 17.986H17.416V15.7408H23.947C24.5236 15.7396 25.0762 15.5026 25.4835 15.0816C25.8908 14.6607 26.1196 14.0903 26.1196 13.4956V13.4956ZM21.7656 18.691C22.0622 18.6901 22.3524 18.7801 22.5994 18.9495C22.8463 19.1189 23.039 19.3601 23.1529 19.6425C23.2668 19.9249 23.2968 20.2359 23.2392 20.536C23.1815 20.836 23.0388 21.1117 22.829 21.328C22.6193 21.5443 22.352 21.6915 22.0611 21.7509C21.7702 21.8104 21.4686 21.7794 21.1948 21.662C20.9209 21.5445 20.6871 21.3458 20.5228 21.0911C20.3586 20.8364 20.2713 20.5371 20.2722 20.2312C20.2716 20.028 20.3099 19.8266 20.385 19.6387C20.46 19.4508 20.5702 19.28 20.7093 19.1361C20.8485 18.9921 21.0138 18.878 21.1958 18.8C21.3778 18.7221 21.5729 18.682 21.77 18.682L21.7656 18.691ZM15.2347 28.5295C14.9394 28.5286 14.6509 28.4377 14.4056 28.2682C14.1602 28.0987 13.9689 27.8582 13.8557 27.5769C13.7425 27.2956 13.7125 26.9861 13.7694 26.6872C13.8263 26.3884 13.9675 26.1135 14.1754 25.8973C14.3833 25.681 14.6486 25.5329 14.9379 25.4717C15.2271 25.4104 15.5275 25.4387 15.8012 25.553C16.0749 25.6673 16.3098 25.8625 16.4762 26.114C16.6427 26.3656 16.7333 26.6623 16.7368 26.9668C16.7379 27.1704 16.7 27.3723 16.6253 27.5607C16.5505 27.7492 16.4404 27.9205 16.3012 28.0649C16.162 28.2093 15.9965 28.3239 15.8142 28.4021C15.6319 28.4803 15.4364 28.5205 15.239 28.5205L15.2347 28.5295ZM16.8717 17.986H15.2434C14.9335 17.9858 14.6272 18.0538 14.3449 18.1854C14.0626 18.317 13.8107 18.5093 13.6063 18.7494V14.9775C13.8107 15.2175 14.0626 15.4098 14.3449 15.5414C14.6272 15.6731 14.9335 15.7411 15.2434 15.7408H16.8717V17.986ZM25.4404 13.4956C25.4404 13.8011 25.3525 14.0998 25.1879 14.3538C25.0234 14.6078 24.7894 14.8058 24.5158 14.9227C24.2421 15.0397 23.9409 15.0702 23.6504 15.0106C23.3599 14.951 23.093 14.8039 22.8835 14.5879C22.674 14.3719 22.5314 14.0966 22.4736 13.797C22.4158 13.4973 22.4455 13.1867 22.5588 12.9045C22.6722 12.6222 22.8642 12.381 23.1105 12.2113C23.3568 12.0415 23.6464 11.9509 23.9426 11.9509C24.3398 11.9509 24.7208 12.1137 25.0017 12.4034C25.2826 12.693 25.4404 13.0859 25.4404 13.4956V13.4956Z" fill="#1C2128"/>
<path d="M73.1501 17.5938C74.7132 17.5938 76.0205 18.1267 76.8376 19.1143C76.8545 19.1334 76.8766 19.1471 76.9011 19.1543C76.9256 19.1614 76.9518 19.1623 76.9763 19.1553C77.0009 19.1482 77.0228 19.1334 77.0398 19.1143C77.0566 19.0952 77.0679 19.072 77.072 19.0469L77.2283 18.0557C77.2334 18.0237 77.2504 17.9945 77.2751 17.9736C77.2998 17.953 77.3309 17.9421 77.363 17.9424H79.4207C79.4564 17.9424 79.491 17.9561 79.5164 17.9814C79.5416 18.0068 79.5554 18.0414 79.5554 18.0771V28.9131C79.5554 28.9489 79.5417 28.9835 79.5164 29.0088C79.491 29.0341 79.4564 29.0478 79.4207 29.0479H77.0369C77.0011 29.0479 76.9665 29.034 76.9412 29.0088C76.9158 28.9835 76.9021 28.9489 76.9021 28.9131V27.8896C76.9026 27.8614 76.8938 27.8337 76.8777 27.8105C76.8615 27.7873 76.838 27.7692 76.8113 27.7598C76.7847 27.7505 76.7553 27.7499 76.7283 27.7578C76.7012 27.7658 76.6772 27.7824 76.6599 27.8047C76.1844 28.3227 75.6019 28.7314 74.9529 29.002C74.3039 29.2724 73.6037 29.3981 72.9011 29.3711C69.796 29.3711 67.661 27.055 67.6609 23.5449C67.6609 19.9601 69.8957 17.5938 73.1501 17.5938ZM60.4021 17.5898C64.001 17.5898 66.4596 20.0771 66.4597 23.4912C66.4597 26.9055 64.0011 29.3682 60.4021 29.3682C56.8032 29.3681 54.3445 26.8806 54.3445 23.4912C54.3446 20.102 56.8033 17.5899 60.4021 17.5898ZM52.2664 11.2559C52.643 11.2559 53.3322 11.2552 55.1687 11.415C55.2066 11.4219 55.2412 11.4426 55.2654 11.4727C55.2894 11.5027 55.302 11.5407 55.3005 11.5791L54.8425 13.5469C54.8252 13.5967 54.7913 13.6396 54.7468 13.668C54.7025 13.6963 54.6498 13.7083 54.5974 13.7031C54.4091 13.6783 54.2095 13.6398 54.0105 13.6113C51.0973 13.2028 50.9371 14.4817 50.8376 15.9561V17.4873C50.8377 17.5315 50.8553 17.5742 50.8865 17.6055C50.9177 17.6367 50.9605 17.6542 51.0046 17.6543H53.7371C53.7813 17.6543 53.8239 17.6718 53.8552 17.7031C53.8865 17.7344 53.9041 17.777 53.9041 17.8213L53.531 19.8955C53.531 19.9397 53.5134 19.9824 53.4822 20.0137C53.4509 20.045 53.4083 20.0625 53.364 20.0625H51.0046C50.9605 20.0626 50.9177 20.0811 50.8865 20.1123C50.8555 20.1435 50.8378 20.1856 50.8376 20.2295V29.1338C50.8375 29.1779 50.82 29.2198 50.7888 29.251C50.7575 29.2823 50.7149 29.3008 50.6707 29.3008H48.113C48.0688 29.3008 48.0262 29.2823 47.9949 29.251C47.9638 29.2198 47.9462 29.1778 47.946 29.1338V20.2266C47.946 20.2046 47.9417 20.1824 47.9333 20.1621C47.925 20.142 47.9126 20.1238 47.8972 20.1084C47.8817 20.0929 47.8628 20.0807 47.8425 20.0723C47.8224 20.064 47.8009 20.0596 47.7791 20.0596H45.6228C45.6009 20.0596 45.5786 20.0553 45.5583 20.0469C45.5382 20.0385 45.5201 20.0261 45.5046 20.0107C45.4891 19.9952 45.4769 19.9763 45.4685 19.9561C45.4602 19.9359 45.4558 19.9144 45.4558 19.8926L45.8357 17.8213C45.8357 17.777 45.8532 17.7344 45.8845 17.7031C45.9158 17.6718 45.9584 17.6543 46.0027 17.6543H47.7791C47.8233 17.6543 47.8659 17.6367 47.8972 17.6055C47.9285 17.5742 47.946 17.5315 47.946 17.4873V15.458C47.9462 12.4314 49.6374 11.2559 52.2664 11.2559ZM94.7693 17.5791C97.0819 17.5899 98.7517 19.1109 98.7517 21.7256V28.9697C98.7517 28.9905 98.7429 29.0107 98.7283 29.0254C98.7137 29.0398 98.6941 29.0478 98.6736 29.0479H96.0759C96.0658 29.0478 96.056 29.0458 96.0466 29.042C96.0372 29.0381 96.0285 29.0326 96.0212 29.0254C96.014 29.0181 96.0076 29.0095 96.0037 29C95.9997 28.9905 95.9978 28.98 95.9978 28.9697V22.3828C95.9977 20.738 95.1274 19.9922 93.9373 19.9922C92.4488 19.9923 91.6277 21.0868 91.6277 22.5078V28.9521C91.6277 28.9624 91.6258 28.9729 91.6218 28.9824C91.6179 28.9917 91.6124 29.0007 91.6052 29.0078C91.598 29.015 91.5892 29.0205 91.5798 29.0244C91.5704 29.0283 91.5598 29.0303 91.5496 29.0303H88.9773C88.9672 29.0302 88.9573 29.0282 88.948 29.0244C88.9386 29.0205 88.9298 29.015 88.9226 29.0078C88.9155 29.0007 88.9099 28.9917 88.906 28.9824C88.9021 28.9729 88.8992 28.9624 88.8992 28.9521V22.3828C88.8991 20.8625 88.079 19.9924 86.7683 19.9922C85.3792 19.9922 84.533 21.1115 84.533 22.5078V28.9521C84.533 28.9624 84.531 28.9729 84.5271 28.9824C84.5232 28.9918 84.5177 29.0006 84.5105 29.0078C84.5033 29.015 84.4945 29.0205 84.4851 29.0244C84.4756 29.0283 84.4651 29.0303 84.4548 29.0303H81.8328C81.8227 29.0302 81.8128 29.0282 81.8035 29.0244C81.7941 29.0206 81.7853 29.0149 81.7781 29.0078C81.7709 29.0006 81.7644 28.9918 81.7605 28.9824C81.7566 28.9729 81.7546 28.9624 81.7546 28.9521V18.0127C81.7547 17.9921 81.7635 17.9726 81.7781 17.958C81.7927 17.9434 81.8121 17.9346 81.8328 17.9346H84.2166C84.2355 17.9344 84.2539 17.9417 84.2683 17.9541C84.2826 17.9664 84.292 17.9833 84.2947 18.002L84.4128 18.9336C84.4147 18.9492 84.4211 18.9637 84.4314 18.9756C84.4419 18.9876 84.456 18.9961 84.4714 19C84.4866 19.0037 84.5027 19.0035 84.5173 18.998C84.5322 18.9924 84.5454 18.9819 84.5544 18.9688C84.9297 18.5245 85.3996 18.1694 85.9294 17.9297C86.4592 17.6901 87.0357 17.5716 87.6169 17.583C89.1729 17.583 90.4947 18.3219 91.1023 19.5332C91.1089 19.5459 91.1194 19.5571 91.1316 19.5645C91.1437 19.5717 91.1575 19.5752 91.1716 19.5752C91.1857 19.5752 91.1996 19.5717 91.2117 19.5645C91.2239 19.5571 91.2344 19.5459 91.241 19.5332C91.9089 18.297 93.1671 17.5791 94.7693 17.5791ZM60.4021 20.0596C58.4625 20.0597 57.205 21.5053 57.2048 23.4697C57.2048 25.4344 58.4908 26.8808 60.4021 26.8809C62.3384 26.8809 63.6316 25.4344 63.6316 23.4697C63.6314 21.5052 62.3418 20.0596 60.4021 20.0596ZM73.6228 20.0879C71.7576 20.0879 70.492 21.4592 70.4919 23.4736C70.4919 25.4881 71.7322 26.8593 73.5974 26.8594C75.4625 26.8594 76.7525 25.4883 76.7527 23.4492C76.7527 21.4065 75.4878 20.0881 73.6228 20.0879Z" fill="#1C2128"/>
</svg>
