<svg width="110" height="43" viewBox="0 0 110 43" fill="none" xmlns="http://www.w3.org/2000/svg">
<g id="logotype">
<path id="Vector" d="M31.7168 0H11.2832C5.05166 0 0 5.05166 0 11.2832V31.7168C0 37.9483 5.05166 43 11.2832 43H31.7168C37.9483 43 43 37.9483 43 31.7168V11.2832C43 5.05166 37.9483 0 31.7168 0Z" fill="#FFFFFF"/>
<path id="Vector_2" d="M29.7445 13.9664C29.7445 13.6422 29.6806 13.3211 29.5563 13.0216C29.4321 12.7221 29.2499 12.4501 29.0204 12.2211C28.7909 11.9921 28.5184 11.8106 28.2187 11.6871C27.9189 11.5635 27.5977 11.5003 27.2734 11.5011H17.4006C17.3166 11.4953 17.2324 11.4953 17.1484 11.5011C17.0462 11.5122 16.9447 11.5294 16.8445 11.5527C16.7357 11.5791 16.6285 11.6116 16.5234 11.6501L16.34 11.7304C16.027 11.8781 15.7494 12.0912 15.5259 12.3553C15.4902 12.3948 15.4577 12.437 15.4284 12.4815C15.3562 12.5759 15.291 12.6755 15.2334 12.7796C15.1017 13.0196 15.0162 13.2821 14.9812 13.5536C14.9581 13.6803 14.9466 13.8089 14.9468 13.9377V28.7641C14.9773 29.3981 15.2507 29.9961 15.7103 30.434C16.1698 30.8719 16.7802 31.1162 17.415 31.1162C18.0497 31.1162 18.6602 30.8719 19.1197 30.434C19.5792 29.9961 19.8526 29.3981 19.8832 28.7641V23.8335H24.8081C25.4422 23.8029 26.0401 23.5295 26.478 23.07C26.9159 22.6104 27.1602 22 27.1602 21.3653C27.1602 20.7305 26.9159 20.1201 26.478 19.6605C26.0401 19.201 25.4422 18.9276 24.8081 18.8971H19.8774V16.4375H27.262C27.5874 16.439 27.91 16.3762 28.2111 16.2527C28.5123 16.1291 28.786 15.9474 29.0167 15.7178C29.2474 15.4882 29.4304 15.2152 29.5553 14.9147C29.6802 14.6141 29.7445 14.2919 29.7445 13.9664ZM24.8196 19.6997C25.1597 19.6997 25.4923 19.8006 25.7752 19.9896C26.058 20.1786 26.2785 20.4472 26.4087 20.7615C26.5388 21.0758 26.5729 21.4216 26.5065 21.7553C26.4402 22.0889 26.2763 22.3954 26.0358 22.6359C25.7952 22.8765 25.4888 23.0403 25.1552 23.1067C24.8215 23.173 24.4757 23.139 24.1614 23.0088C23.8471 22.8786 23.5784 22.6582 23.3894 22.3753C23.2005 22.0924 23.0996 21.7599 23.0996 21.4197C23.0958 21.1934 23.1367 20.9685 23.22 20.758C23.3033 20.5475 23.4274 20.3555 23.585 20.193C23.7427 20.0306 23.9309 19.9008 24.1388 19.8113C24.3467 19.7217 24.5703 19.674 24.7966 19.6711L24.8196 19.6997ZM17.4236 30.4956C17.0834 30.4956 16.7508 30.3947 16.468 30.2057C16.1851 30.0167 15.9647 29.7481 15.8345 29.4338C15.7043 29.1195 15.6703 28.7737 15.7366 28.44C15.803 28.1064 15.9668 27.7999 16.2074 27.5594C16.4479 27.3188 16.7544 27.155 17.088 27.0886C17.4217 27.0223 17.7675 27.0563 18.0818 27.1865C18.3961 27.3167 18.6647 27.5372 18.8537 27.82C19.0427 28.1029 19.1436 28.4354 19.1436 28.7756C19.136 29.2308 18.9483 29.6644 18.6216 29.9814C18.2949 30.2985 17.8558 30.4731 17.4006 30.4669L17.4236 30.4956ZM19.2697 18.9257H17.4236C17.0733 18.9263 16.727 19.0013 16.4078 19.1456C16.0886 19.2899 15.8037 19.5002 15.5717 19.7628V15.5947C15.8027 15.8588 16.0873 16.0707 16.4066 16.216C16.726 16.3613 17.0727 16.4368 17.4236 16.4375H19.2697V18.9257ZM28.9705 13.9951C28.9705 14.3352 28.8696 14.6678 28.6806 14.9506C28.4916 15.2335 28.223 15.4539 27.9087 15.5841C27.5944 15.7143 27.2486 15.7484 26.915 15.682C26.5813 15.6156 26.2748 15.4518 26.0343 15.2113C25.7937 14.9707 25.6299 14.6643 25.5636 14.3306C25.4972 13.997 25.5313 13.6511 25.6614 13.3368C25.7916 13.0225 26.0121 12.7539 26.2949 12.5649C26.5778 12.3759 26.9103 12.2751 27.2505 12.2751C27.6978 12.281 28.1252 12.4609 28.442 12.7766C28.7588 13.0924 28.9402 13.5191 28.9476 13.9664L28.9705 13.9951Z" fill="#1C2128"/>
<path id="Vector_3" d="M56.4792 15.9845V17.6644C56.4792 17.713 56.4985 17.7597 56.533 17.7941C56.5674 17.8285 56.614 17.8479 56.6627 17.8479H59.6669C59.7156 17.8479 59.7623 17.8672 59.7967 17.9016C59.8311 17.936 59.8504 17.9827 59.8504 18.0313L59.4319 20.3247C59.4319 20.3733 59.4125 20.42 59.3781 20.4544C59.3437 20.4888 59.2971 20.5081 59.2484 20.5081H56.6913C56.6675 20.5074 56.6438 20.5114 56.6216 20.52C56.5993 20.5286 56.579 20.5415 56.5619 20.5581C56.5448 20.5747 56.5312 20.5945 56.5219 20.6165C56.5126 20.6384 56.5079 20.662 56.5079 20.6859V30.444C56.5079 30.4681 56.5031 30.4919 56.4939 30.5142C56.4847 30.5365 56.4712 30.5567 56.4541 30.5737C56.4371 30.5908 56.4169 30.6043 56.3946 30.6135C56.3724 30.6227 56.3485 30.6275 56.3244 30.6275H53.5208C53.4721 30.6275 53.4255 30.6081 53.3911 30.5737C53.3567 30.5393 53.3373 30.4926 53.3373 30.444V20.6629C53.3374 20.6391 53.3326 20.6155 53.3233 20.5936C53.314 20.5716 53.3004 20.5518 53.2833 20.5352C53.2662 20.5186 53.2459 20.5056 53.2237 20.497C53.2014 20.4885 53.1777 20.4844 53.1539 20.4852H50.786C50.7378 20.4838 50.692 20.464 50.6579 20.4299C50.6238 20.3958 50.604 20.3499 50.6025 20.3017L51.0211 18.0084C51.0211 17.9597 51.0404 17.9131 51.0748 17.8787C51.1092 17.8443 51.1559 17.8249 51.2045 17.8249H53.1539C53.2025 17.8249 53.2492 17.8056 53.2836 17.7712C53.318 17.7368 53.3373 17.6901 53.3373 17.6415V15.4399C53.3373 12.1145 55.1949 10.8245 58.0788 10.8245C58.4916 10.8245 59.2599 10.8245 61.2665 11.0023C61.3085 11.0105 61.3461 11.0336 61.3724 11.0673C61.3987 11.101 61.412 11.143 61.4099 11.1857L60.9111 13.3415C60.8929 13.3968 60.8562 13.4442 60.8071 13.4756C60.7579 13.5069 60.6995 13.5203 60.6416 13.5135L59.9995 13.4103C56.7601 12.9631 56.5881 14.3677 56.4792 15.9845Z" fill="#FFFFFF"/>
<path id="Vector_4" d="M66.9768 17.7791C70.9271 17.7791 73.6275 20.5138 73.6275 24.2577C73.6275 28.0016 70.9271 30.7077 66.9768 30.7077C63.0266 30.7077 60.3262 27.9787 60.3262 24.2577C60.3262 20.5368 63.0266 17.7791 66.9768 17.7791ZM66.9768 27.9787C69.1039 27.9787 70.52 26.3905 70.52 24.2291C70.52 22.0676 69.1039 20.4852 66.9768 20.4852C64.8498 20.4852 63.4623 22.0733 63.4623 24.2291C63.4623 26.3848 64.8784 27.9787 66.9768 27.9787Z" fill="#FFFFFF"/>
<path id="Vector_5" d="M87.9951 18.3123V30.2032C87.9959 30.223 87.9926 30.2427 87.9854 30.2612C87.9782 30.2796 87.9673 30.2964 87.9533 30.3104C87.9392 30.3244 87.9225 30.3354 87.9041 30.3426C87.8856 30.3498 87.8659 30.3531 87.8461 30.3523H85.2317C85.2119 30.3531 85.1921 30.3498 85.1737 30.3426C85.1552 30.3354 85.1385 30.3244 85.1245 30.3104C85.1104 30.2964 85.0995 30.2796 85.0923 30.2612C85.0851 30.2427 85.0818 30.223 85.0826 30.2032V29.0565C85.0819 29.0262 85.0719 28.9968 85.054 28.9722C85.0362 28.9477 85.0112 28.9292 84.9825 28.9192C84.9538 28.9092 84.9228 28.9083 84.8936 28.9164C84.8643 28.9246 84.8382 28.9414 84.8189 28.9648C84.2971 29.5342 83.6575 29.9831 82.9446 30.2801C82.2317 30.5771 81.4626 30.7152 80.6909 30.6848C77.2853 30.6848 74.9575 28.1449 74.9575 24.2921C74.9575 20.4393 77.4057 17.7561 80.9775 17.7561C81.7344 17.7155 82.4907 17.8448 83.1911 18.1345C83.8915 18.4242 84.5182 18.8669 85.0252 19.4303C85.044 19.4512 85.0682 19.4663 85.0952 19.4741C85.1221 19.4818 85.1507 19.4818 85.1777 19.474C85.2046 19.4662 85.2288 19.451 85.2475 19.4301C85.2662 19.4092 85.2786 19.3834 85.2833 19.3557L85.4552 18.2664C85.4606 18.2319 85.4779 18.2004 85.5041 18.1774C85.5303 18.1543 85.5637 18.1412 85.5986 18.1403H87.8575C87.8782 18.1416 87.8984 18.1472 87.9168 18.1568C87.9351 18.1664 87.9513 18.1797 87.9643 18.1959C87.9772 18.2121 87.9866 18.2308 87.992 18.2508C87.9973 18.2709 87.9983 18.2918 87.9951 18.3123ZM84.9163 24.2061C84.9163 21.9644 83.5288 20.5139 81.4763 20.5139C79.4238 20.5139 78.0363 22.016 78.0363 24.2291C78.0363 26.4421 79.4008 27.95 81.4763 27.95C83.5518 27.95 84.9163 26.4479 84.9163 24.2061Z" fill="#FFFFFF"/>
<path id="Vector_6" d="M109.065 22.3198V30.2662C109.065 30.2891 109.056 30.3109 109.04 30.3271C109.024 30.3432 109.002 30.3522 108.979 30.3522H106.113C106.09 30.3522 106.068 30.3432 106.052 30.3271C106.036 30.3109 106.027 30.2891 106.027 30.2662V23.0537C106.027 21.2534 105.075 20.4336 103.768 20.4336C102.128 20.4336 101.233 21.6376 101.233 23.1913V30.2662C101.234 30.278 101.231 30.2897 101.226 30.3005C101.222 30.3114 101.215 30.3211 101.206 30.3292C101.198 30.3372 101.188 30.3435 101.176 30.3474C101.165 30.3514 101.154 30.353 101.142 30.3522H98.3209C98.3094 30.3531 98.2979 30.3515 98.2871 30.3474C98.2762 30.3434 98.2664 30.3371 98.2582 30.329C98.2501 30.3208 98.2438 30.311 98.2397 30.3001C98.2357 30.2893 98.2341 30.2778 98.235 30.2662V23.0537C98.235 21.391 97.3348 20.4336 95.89 20.4336C94.4452 20.4336 93.4362 21.6605 93.4362 23.1913V30.2662C93.4362 30.2891 93.4271 30.3109 93.411 30.3271C93.3948 30.3432 93.373 30.3522 93.3501 30.3522H90.4835C90.4607 30.3522 90.4388 30.3432 90.4227 30.3271C90.4065 30.3109 90.3975 30.2891 90.3975 30.2662V18.2262C90.3975 18.2034 90.4065 18.1816 90.4227 18.1654C90.4388 18.1493 90.4607 18.1402 90.4835 18.1402H93.0979C93.1188 18.1401 93.1391 18.1475 93.1549 18.1613C93.1708 18.175 93.1811 18.194 93.1839 18.2148L93.31 19.241C93.3121 19.2582 93.3194 19.2742 93.3307 19.2872C93.3421 19.3001 93.3571 19.3094 93.3738 19.3137C93.3904 19.318 93.4081 19.3172 93.4243 19.3114C93.4405 19.3056 93.4546 19.2951 93.4648 19.2812C93.8777 18.7965 94.3936 18.4101 94.9749 18.1503C95.5561 17.8904 96.188 17.7636 96.8245 17.779C97.5986 17.7439 98.367 17.9262 99.0428 18.3051C99.7186 18.6841 100.275 19.2446 100.649 19.9233C100.655 19.9382 100.665 19.951 100.678 19.96C100.691 19.969 100.707 19.9738 100.723 19.9738C100.739 19.9738 100.755 19.969 100.768 19.96C100.781 19.951 100.792 19.9382 100.798 19.9233C101.178 19.2401 101.742 18.677 102.426 18.298C103.11 17.919 103.887 17.7392 104.668 17.779C107.236 17.779 109.065 19.4474 109.065 22.3198Z" fill="#FFFFFF"/>
</g>
</svg>
