<svg width="56" height="56" viewBox="0 0 56 56" fill="none" xmlns="http://www.w3.org/2000/svg">
<path d="M41.3093 0H14.6907C10.7945 0 7.05782 1.54776 4.30279 4.3028C1.54775 7.05783 0 10.7945 0 14.6907V41.3093C0 45.2055 1.54775 48.9422 4.30279 51.6972C7.05782 54.4522 10.7945 56 14.6907 56H41.3093C43.2385 56 45.1488 55.62 46.9312 54.8817C48.7136 54.1435 50.333 53.0614 51.6972 51.6972C53.0614 50.3331 54.1435 48.7136 54.8817 46.9312C55.62 45.1489 56 43.2385 56 41.3093V14.6907C56 12.7615 55.62 10.8511 54.8817 9.06879C54.1435 7.28644 53.0614 5.66695 51.6972 4.3028C50.333 2.93864 48.7136 1.85654 46.9312 1.11826C45.1488 0.379989 43.2385 0 41.3093 0V0Z" fill="#1C2128"/>
<path d="M38.7085 18.2064C38.7085 17.3532 38.3695 16.535 37.7663 15.9317C37.163 15.3284 36.3447 14.9895 35.4916 14.9895H22.6613C22.5515 14.9833 22.4414 14.9833 22.3316 14.9895C22.1974 15.0027 22.0643 15.0256 21.9334 15.058C21.7917 15.09 21.6525 15.1315 21.5165 15.1824L21.2738 15.2882C20.8697 15.4828 20.5097 15.7581 20.216 16.0971L20.0854 16.2651C19.9911 16.3873 19.9058 16.5162 19.8302 16.6508C19.7345 16.8269 19.6573 17.0125 19.6 17.2046C19.5573 17.3559 19.5241 17.5097 19.5005 17.6651C19.4734 17.8296 19.4588 17.9961 19.4569 18.1628V37.4517C19.4569 38.3049 19.7958 39.1231 20.3991 39.7264C21.0024 40.3297 21.8206 40.6686 22.6738 40.6686C23.527 40.6686 24.3452 40.3297 24.9485 39.7264C25.5518 39.1231 25.8907 38.3049 25.8907 37.4517V31.0491H32.2934C33.1465 31.0491 33.9647 30.7101 34.568 30.1069C35.1713 29.5036 35.5102 28.6853 35.5102 27.8322C35.5111 27.4095 35.4284 26.9908 35.267 26.6002C35.1057 26.2095 34.8687 25.8545 34.5699 25.5557C34.271 25.2568 33.916 25.0199 33.5254 24.8585C33.1347 24.6971 32.716 24.6145 32.2934 24.6153H25.872V21.4108H35.4916C35.9134 21.4125 36.3315 21.3308 36.7217 21.1705C37.1119 21.0102 37.4666 20.7744 37.7655 20.4767C38.0644 20.179 38.3015 19.8252 38.4634 19.4356C38.6252 19.046 38.7085 18.6283 38.7085 18.2064ZM32.2934 25.6295C32.5834 25.6295 32.8707 25.6866 33.1387 25.7976C33.4066 25.9087 33.6502 26.0714 33.8553 26.2765C34.0604 26.4816 34.2231 26.7251 34.3341 26.9931C34.4451 27.2611 34.5022 27.5483 34.5022 27.8384C34.5022 28.4242 34.2695 28.9861 33.8553 29.4003C33.441 29.8146 32.8792 30.0473 32.2934 30.0473C31.7075 30.0473 31.1457 29.8146 30.7314 29.4003C30.3172 28.9861 30.0845 28.4242 30.0845 27.8384C30.0845 27.5483 30.1416 27.2611 30.2526 26.9931C30.3636 26.7251 30.5263 26.4816 30.7314 26.2765C30.9366 26.0714 31.1801 25.9087 31.4481 25.7976C31.716 25.6866 32.0033 25.6295 32.2934 25.6295ZM22.6676 39.6917C22.3775 39.6917 22.0903 39.6346 21.8223 39.5236C21.5543 39.4126 21.3108 39.2499 21.1057 39.0448C20.9005 38.8396 20.7378 38.5961 20.6268 38.3281C20.5158 38.0602 20.4587 37.7729 20.4587 37.4828C20.4587 36.897 20.6914 36.3352 21.1057 35.9209C21.5199 35.5067 22.0817 35.274 22.6676 35.274C23.2534 35.274 23.8152 35.5067 24.2295 35.9209C24.6437 36.3352 24.8765 36.897 24.8765 37.4828C24.8765 37.7729 24.8193 38.0602 24.7083 38.3281C24.5973 38.5961 24.4346 38.8396 24.2295 39.0448C24.0244 39.2499 23.7809 39.4126 23.5129 39.5236C23.2449 39.6346 22.9577 39.6917 22.6676 39.6917ZM25.0756 24.6277H22.6738C22.2174 24.6271 21.7662 24.7246 21.3508 24.9135C20.9353 25.1025 20.5653 25.3785 20.2658 25.7228V20.3282C20.5666 20.671 20.9369 20.9459 21.352 21.1347C21.7672 21.3235 22.2177 21.4219 22.6738 21.4233H25.0756V24.6277ZM37.7067 18.2064C37.7067 18.7922 37.474 19.3541 37.0597 19.7683C36.6455 20.1826 36.0836 20.4153 35.4978 20.4153C34.912 20.4153 34.3501 20.1826 33.9359 19.7683C33.5216 19.3541 33.2889 18.7922 33.2889 18.2064C33.2889 17.9163 33.346 17.6291 33.457 17.3611C33.568 17.0931 33.7308 16.8496 33.9359 16.6445C34.141 16.4394 34.3845 16.2767 34.6525 16.1656C34.9205 16.0546 35.2077 15.9975 35.4978 15.9975C36.0825 15.9992 36.6428 16.2326 37.0557 16.6467C37.4686 17.0607 37.7005 17.6216 37.7005 18.2064H37.7067Z" fill="white"/>
</svg>
