<svg width="40" height="40" viewBox="0 0 40 40" fill="none" xmlns="http://www.w3.org/2000/svg">
<path d="M28.906 2.11234C31.2853 2.11465 33.5664 3.06081 35.2488 4.74318C36.9311 6.42555 37.8773 8.70666 37.8796 11.0859V29.7122C37.8773 32.0914 36.9311 34.3725 35.2488 36.0549C33.5664 37.7373 31.2853 38.6834 28.906 38.6857H10.2797C7.90052 38.6834 5.6194 37.7373 3.93703 36.0549C2.25467 34.3725 1.3085 32.0914 1.30619 29.7122V11.0859C1.3085 8.70666 2.25467 6.42555 3.93703 4.74318C5.6194 3.06081 7.90052 2.11465 10.2797 2.11234H28.906V2.11234ZM28.906 0.806152H10.2797C7.55339 0.806152 4.93869 1.88919 3.01087 3.81702C1.08305 5.74484 0 8.35953 0 11.0859V29.7122C0 32.4385 1.08305 35.0532 3.01087 36.9811C4.93869 38.9089 7.55339 39.9919 10.2797 39.9919H28.906C30.256 39.9919 31.5927 39.726 32.8399 39.2094C34.0871 38.6928 35.2204 37.9356 36.1749 36.9811C37.1295 36.0265 37.8867 34.8933 38.4033 33.6461C38.9199 32.3989 39.1858 31.0621 39.1858 29.7122V11.0859C39.1858 8.35953 38.1027 5.74484 36.1749 3.81702C34.2471 1.88919 31.6324 0.806152 28.906 0.806152V0.806152Z" fill="#1C2128"/>
<path d="M26.1196 13.4956C26.1196 12.9002 25.8902 12.3291 25.482 11.908C25.0737 11.487 24.52 11.2504 23.9426 11.2504H15.2347C15.1607 11.246 15.0866 11.246 15.0126 11.2504C14.9216 11.2599 14.8313 11.2765 14.7427 11.2998C14.6464 11.3229 14.5518 11.3529 14.4596 11.3896L14.2942 11.4615C14.0195 11.5971 13.7749 11.7897 13.5758 12.0273C13.5444 12.0642 13.5153 12.1032 13.4887 12.144C13.4256 12.2293 13.3688 12.3193 13.3189 12.4134V12.4134C13.2534 12.536 13.2008 12.6655 13.1622 12.7996C13.1323 12.9042 13.109 13.0107 13.0925 13.1184C13.0733 13.2342 13.0631 13.3513 13.062 13.4687V13.4687V26.9668C13.062 27.5623 13.2914 28.1334 13.6996 28.5544C14.1079 28.9755 14.6616 29.212 15.239 29.212C15.8164 29.212 16.3701 28.9755 16.7784 28.5544C17.1866 28.1334 17.416 27.5623 17.416 26.9668V26.9668V22.4764H21.77C22.3473 22.4764 22.9011 22.2399 23.3093 21.8188C23.7176 21.3978 23.947 20.8267 23.947 20.2312C23.947 19.6358 23.7176 19.0647 23.3093 18.6436C22.9011 18.2226 22.3473 17.986 21.77 17.986H17.416V15.7408H23.947C24.5236 15.7396 25.0762 15.5026 25.4835 15.0816C25.8908 14.6607 26.1196 14.0903 26.1196 13.4956V13.4956ZM21.7656 18.691C22.0622 18.6901 22.3524 18.7801 22.5994 18.9495C22.8463 19.1189 23.039 19.3601 23.1529 19.6425C23.2668 19.9249 23.2968 20.2359 23.2392 20.536C23.1815 20.836 23.0388 21.1117 22.829 21.328C22.6193 21.5443 22.352 21.6915 22.0611 21.7509C21.7702 21.8104 21.4686 21.7794 21.1948 21.662C20.9209 21.5445 20.6871 21.3458 20.5228 21.0911C20.3586 20.8364 20.2713 20.5371 20.2722 20.2312C20.2716 20.028 20.3099 19.8266 20.385 19.6387C20.46 19.4508 20.5702 19.28 20.7093 19.1361C20.8485 18.9921 21.0138 18.878 21.1958 18.8C21.3778 18.7221 21.5729 18.682 21.77 18.682L21.7656 18.691ZM15.2347 28.5295C14.9394 28.5286 14.6509 28.4377 14.4056 28.2682C14.1602 28.0987 13.9689 27.8582 13.8557 27.5769C13.7425 27.2956 13.7125 26.9861 13.7694 26.6872C13.8263 26.3884 13.9675 26.1135 14.1754 25.8973C14.3833 25.681 14.6486 25.5329 14.9379 25.4717C15.2271 25.4104 15.5275 25.4387 15.8012 25.553C16.0749 25.6673 16.3098 25.8625 16.4762 26.114C16.6427 26.3656 16.7333 26.6623 16.7368 26.9668C16.7379 27.1704 16.7 27.3723 16.6253 27.5607C16.5505 27.7492 16.4404 27.9205 16.3012 28.0649C16.162 28.2093 15.9965 28.3239 15.8142 28.4021C15.6319 28.4803 15.4364 28.5205 15.239 28.5205L15.2347 28.5295ZM16.8717 17.986H15.2434C14.9335 17.9858 14.6272 18.0538 14.3449 18.1854C14.0626 18.317 13.8107 18.5093 13.6063 18.7494V14.9775C13.8107 15.2175 14.0626 15.4098 14.3449 15.5414C14.6272 15.6731 14.9335 15.7411 15.2434 15.7408H16.8717V17.986ZM25.4404 13.4956C25.4404 13.8011 25.3525 14.0998 25.1879 14.3538C25.0234 14.6078 24.7894 14.8058 24.5158 14.9227C24.2421 15.0397 23.9409 15.0702 23.6504 15.0106C23.3599 14.951 23.093 14.8039 22.8835 14.5879C22.674 14.3719 22.5314 14.0966 22.4736 13.797C22.4158 13.4973 22.4455 13.1867 22.5588 12.9045C22.6722 12.6222 22.8642 12.381 23.1105 12.2113C23.3568 12.0415 23.6464 11.9509 23.9426 11.9509C24.3398 11.9509 24.7208 12.1137 25.0017 12.4034C25.2826 12.693 25.4404 13.0859 25.4404 13.4956V13.4956Z" fill="#1C2128"/>
</svg>
