<!-- Icon: AddContent -->
<svg width="16" height="16" viewBox="0 0 16 16"  xmlns="http://www.w3.org/2000/svg" fill="currentColor" data-themable="true">
<path fill-rule="evenodd" clip-rule="evenodd" d="M3.09533 5.2947C2.8286 5.36617 2.6703 5.64034 2.74177 5.90707L4.81233 13.6345C4.8838 13.9012 5.15797 14.0595 5.4247 13.988L8.32248 13.2116C8.58921 13.1401 8.86338 13.2984 8.93485 13.5651C9.00632 13.8319 8.84803 14.106 8.5813 14.1775L5.68352 14.954C4.88332 15.1684 4.06081 14.6935 3.8464 13.8933L1.77585 6.16589C1.56144 5.36569 2.03631 4.54318 2.83651 4.32877L3.80243 4.06995C4.06917 3.99848 4.34334 4.15677 4.41481 4.4235C4.48628 4.69024 4.32799 4.96441 4.06125 5.03588L3.09533 5.2947Z" fill="currentColor"/>
<path fill-rule="evenodd" clip-rule="evenodd" d="M5.49999 3C5.49999 2.17157 6.17157 1.5 6.99999 1.5H13C13.8284 1.5 14.5 2.17157 14.5 3V11C14.5 11.8284 13.8284 12.5 13 12.5H6.99999C6.17157 12.5 5.49999 11.8284 5.49999 11V3ZM10.5 5C10.5 4.72386 10.2761 4.5 9.99999 4.5C9.72385 4.5 9.49999 4.72386 9.49999 5V6.5H7.99999C7.72385 6.5 7.49999 6.72386 7.49999 7C7.49999 7.27614 7.72385 7.5 7.99999 7.5H9.49999V9C9.49999 9.27614 9.72385 9.5 9.99999 9.5C10.2761 9.5 10.5 9.27614 10.5 9V7.5H12C12.2761 7.5 12.5 7.27614 12.5 7C12.5 6.72386 12.2761 6.5 12 6.5H10.5V5Z" fill="currentColor"/>
</svg>
