<!-- Icon: Alert -->
<svg width="16" height="16" viewBox="0 0 16 16"  xmlns="http://www.w3.org/2000/svg" fill="currentColor" data-themable="true">
<path fill-rule="evenodd" clip-rule="evenodd" d="M9.19922 3.80232C8.60895 2.9767 7.39086 2.9767 6.80059 3.80232C6.08622 4.80152 5.03413 6.30908 4.3216 7.492C3.60299 8.68502 2.76107 10.3259 2.19799 11.4567C1.72261 12.4114 2.3776 13.5293 3.43893 13.5889C4.71662 13.6607 6.58875 13.75 7.99991 13.75C9.41106 13.75 11.2832 13.6607 12.5609 13.5889C13.6222 13.5293 14.2772 12.4114 13.8018 11.4567C13.2387 10.3259 12.3968 8.68502 11.6782 7.492C10.9657 6.30908 9.91359 4.80152 9.19922 3.80232ZM7.61407 4.38391C7.80549 4.11617 8.19432 4.11617 8.38574 4.38391C9.09914 5.38176 10.1311 6.86162 10.8216 8.00798C11.5178 9.16383 12.3445 10.7735 12.9067 11.9024C13.0603 12.211 12.8524 12.571 12.5048 12.5905C11.2285 12.6622 9.38068 12.75 7.99991 12.75C6.61913 12.75 4.77128 12.6622 3.495 12.5905C3.1474 12.571 2.93953 12.211 3.09315 11.9024C3.65531 10.7735 4.48198 9.16383 5.17821 8.00798C5.86872 6.86162 6.90067 5.38176 7.61407 4.38391ZM8.49988 9C8.49988 8.72386 8.27602 8.5 7.99988 8.5C7.72374 8.5 7.49988 8.72386 7.49988 9V11.4873C7.49988 11.7634 7.72374 11.9873 7.99988 11.9873C8.27602 11.9873 8.49988 11.7634 8.49988 11.4873V9ZM8.62488 6.875C8.62488 7.22018 8.34506 7.5 7.99988 7.5C7.6547 7.5 7.37488 7.22018 7.37488 6.875C7.37488 6.52982 7.6547 6.25 7.99988 6.25C8.34506 6.25 8.62488 6.52982 8.62488 6.875Z" fill="currentColor"/>
</svg>
