<!-- Icon: Apps -->
<svg width="16" height="16" viewBox="0 0 16 16"  xmlns="http://www.w3.org/2000/svg" fill="currentColor" data-themable="true">
<path fill-rule="evenodd" clip-rule="evenodd" d="M4.5 3C4.5 3.82843 3.82843 4.5 3 4.5C2.17157 4.5 1.5 3.82843 1.5 3C1.5 2.17157 2.17157 1.5 3 1.5C3.82843 1.5 4.5 2.17157 4.5 3ZM4.5 8C4.5 8.82843 3.82843 9.5 3 9.5C2.17157 9.5 1.5 8.82843 1.5 8C1.5 7.17157 2.17157 6.5 3 6.5C3.82843 6.5 4.5 7.17157 4.5 8ZM3 14.5C3.82843 14.5 4.5 13.8284 4.5 13C4.5 12.1716 3.82843 11.5 3 11.5C2.17157 11.5 1.5 12.1716 1.5 13C1.5 13.8284 2.17157 14.5 3 14.5ZM9.5 3C9.5 3.82843 8.82843 4.5 8 4.5C7.17157 4.5 6.5 3.82843 6.5 3C6.5 2.17157 7.17157 1.5 8 1.5C8.82843 1.5 9.5 2.17157 9.5 3ZM8 9.5C8.82843 9.5 9.5 8.82843 9.5 8C9.5 7.17157 8.82843 6.5 8 6.5C7.17157 6.5 6.5 7.17157 6.5 8C6.5 8.82843 7.17157 9.5 8 9.5ZM9.5 13C9.5 13.8284 8.82843 14.5 8 14.5C7.17157 14.5 6.5 13.8284 6.5 13C6.5 12.1716 7.17157 11.5 8 11.5C8.82843 11.5 9.5 12.1716 9.5 13ZM13 4.5C13.8284 4.5 14.5 3.82843 14.5 3C14.5 2.17157 13.8284 1.5 13 1.5C12.1716 1.5 11.5 2.17157 11.5 3C11.5 3.82843 12.1716 4.5 13 4.5ZM14.5 8C14.5 8.82843 13.8284 9.5 13 9.5C12.1716 9.5 11.5 8.82843 11.5 8C11.5 7.17157 12.1716 6.5 13 6.5C13.8284 6.5 14.5 7.17157 14.5 8ZM13 14.5C13.8284 14.5 14.5 13.8284 14.5 13C14.5 12.1716 13.8284 11.5 13 11.5C12.1716 11.5 11.5 12.1716 11.5 13C11.5 13.8284 12.1716 14.5 13 14.5Z" fill="currentColor"/>
</svg>
