<!-- Icon: ArchiveArrowUp -->
<svg width="16" height="16" viewBox="0 0 16 16"  xmlns="http://www.w3.org/2000/svg" fill="currentColor" data-themable="true">
<path fill-rule="evenodd" clip-rule="evenodd" d="M2 4.88249V3.11751C3.02004 3.08031 5.51101 3 8 3C10.489 3 12.98 3.08031 14 3.11751V4.88249C12.98 4.91969 10.489 5 8 5C5.51101 5 3.02004 4.91969 2 4.88249ZM8 2C5.48947 2 2.98091 2.08104 1.95917 2.11833C1.41903 2.13804 1 2.58226 1 3.11582V4.88418C1 5.41774 1.41903 5.86196 1.95917 5.88167L2 5.88315V11.3426C2 12.5568 2.8788 13.6136 4.11291 13.7558C5.15969 13.8765 6.57708 14 8 14C9.42292 14 10.8403 13.8765 11.8871 13.7558C13.1212 13.6136 14 12.5568 14 11.3426V5.88315L14.0408 5.88167C14.581 5.86196 15 5.41774 15 4.88418V3.11582C15 2.58226 14.581 2.13804 14.0408 2.11833C13.0191 2.08104 10.5105 2 8 2ZM13 5.91647C11.7458 5.95487 9.87344 6 8 6C6.12656 6 4.25422 5.95487 3 5.91647V11.3426C3 12.0771 3.52555 12.6815 4.22743 12.7624C5.25348 12.8807 6.6295 13 8 13C9.37049 13 10.7465 12.8807 11.7726 12.7624C12.4745 12.6815 13 12.0771 13 11.3426V5.91647ZM7.29293 7.50005C7.68346 7.10952 8.31662 7.10952 8.70715 7.50005L10.0203 8.81316C10.2155 9.00842 10.2155 9.325 10.0203 9.52027C9.825 9.71553 9.50842 9.71553 9.31315 9.52027L8.5 8.70711V11C8.5 11.2761 8.27614 11.5 8 11.5C7.72386 11.5 7.5 11.2761 7.5 11V8.70719L6.68693 9.52027C6.49167 9.71553 6.17508 9.71553 5.97982 9.52027C5.78456 9.325 5.78456 9.00842 5.97982 8.81316L7.29293 7.50005Z" fill="currentColor"/>
</svg>
