<!-- Icon: Archive -->
<svg width="16" height="16" viewBox="0 0 16 16"  xmlns="http://www.w3.org/2000/svg" fill="currentColor" data-themable="true">
<path fill-rule="evenodd" clip-rule="evenodd" d="M2 3.11751V4.88249C3.02004 4.91969 5.51101 5 8 5C10.489 5 12.98 4.91969 14 4.88249V3.11751C12.98 3.08031 10.489 3 8 3C5.51101 3 3.02004 3.08031 2 3.11751ZM1.95917 2.11833C2.98091 2.08104 5.48947 2 8 2C10.5105 2 13.0191 2.08104 14.0408 2.11833C14.581 2.13804 15 2.58226 15 3.11582V4.88418C15 5.41774 14.581 5.86196 14.0408 5.88167L14 5.88315V11.3426C14 12.5568 13.1212 13.6136 11.8871 13.7558C10.8403 13.8765 9.42292 14 8 14C6.57708 14 5.15969 13.8765 4.11291 13.7558C2.8788 13.6136 2 12.5568 2 11.3426V5.88315L1.95917 5.88167C1.41903 5.86196 1 5.41774 1 4.88418V3.11582C1 2.58226 1.41903 2.13804 1.95917 2.11833ZM8 6C9.87344 6 11.7458 5.95487 13 5.91647V11.3426C13 12.0771 12.4745 12.6815 11.7726 12.7624C10.7465 12.8807 9.37049 13 8 13C6.6295 13 5.25348 12.8807 4.22743 12.7624C3.52555 12.6815 3 12.0771 3 11.3426V5.91647C4.25422 5.95487 6.12656 6 8 6ZM6.5 7.5C6.22386 7.5 6 7.72386 6 8C6 8.27614 6.22386 8.5 6.5 8.5H9.5C9.77614 8.5 10 8.27614 10 8C10 7.72386 9.77614 7.5 9.5 7.5H6.5Z" fill="currentColor"/>
</svg>
