<!-- Icon: At -->
<svg width="16" height="16" viewBox="0 0 16 16"  xmlns="http://www.w3.org/2000/svg" fill="currentColor" data-themable="true">
<path d="M8.97144 6.23401L9.0813 5.74622H10.2415L9.57349 8.89709C9.53247 9.09631 9.51196 9.22815 9.51196 9.2926C9.51196 9.35999 9.52808 9.41272 9.5603 9.45081C9.59546 9.48889 9.63647 9.50793 9.68335 9.50793C9.84155 9.50793 10.0452 9.4054 10.2942 9.20032C10.5461 8.99231 10.7644 8.71106 10.949 8.35657C11.1365 7.99915 11.2302 7.6095 11.2302 7.18762C11.2302 6.83606 11.1628 6.505 11.0281 6.19446C10.8962 5.88391 10.7043 5.61438 10.4524 5.38586C10.2004 5.15735 9.88843 4.97864 9.51636 4.84973C9.14722 4.72083 8.72827 4.65637 8.25952 4.65637C7.78198 4.65637 7.34399 4.71936 6.94556 4.84534C6.54712 4.96838 6.19702 5.14709 5.89526 5.38147C5.59351 5.61292 5.34155 5.90002 5.1394 6.2428C4.96069 6.54163 4.82446 6.87268 4.73071 7.23596C4.63696 7.59924 4.59009 7.96985 4.59009 8.34778C4.59009 8.85168 4.6897 9.31311 4.88892 9.73206C5.09106 10.1481 5.38257 10.4967 5.76343 10.778C6.14722 11.0621 6.61011 11.2628 7.1521 11.38C7.69409 11.5001 8.3064 11.525 8.98901 11.4547C9.53101 11.3903 9.9895 11.2672 10.3645 11.0856C10.7424 10.9039 11.0618 10.649 11.3225 10.3209H12.2585C12.1062 10.6344 11.907 10.9142 11.6609 11.1603C11.4177 11.4064 11.1321 11.6129 10.804 11.7799C10.4758 11.9498 10.1082 12.0787 9.70093 12.1666C9.2937 12.2545 8.84985 12.2985 8.36938 12.2985C7.64868 12.2985 6.99976 12.2032 6.42261 12.0128C5.84546 11.8253 5.35913 11.5529 4.96362 11.1954C4.57104 10.8409 4.27368 10.4176 4.07153 9.92542C3.86938 9.4303 3.76831 8.88391 3.76831 8.28625C3.76831 7.66223 3.87231 7.07922 4.08032 6.53723C4.28833 5.99524 4.58716 5.52502 4.97681 5.12659C5.36938 4.72522 5.84692 4.41174 6.40942 4.18616C6.97485 3.96057 7.59741 3.84778 8.2771 3.84778C8.83374 3.84778 9.34351 3.92981 9.8064 4.09387C10.2722 4.255 10.6707 4.48792 11.0017 4.7926C11.3328 5.09729 11.5847 5.45911 11.7576 5.87805C11.9333 6.29407 12.0212 6.75403 12.0212 7.25793C12.0212 7.65051 11.9509 8.03577 11.8103 8.4137C11.6697 8.7887 11.4675 9.12708 11.2039 9.42883C10.9431 9.72766 10.6355 9.96497 10.281 10.1407C9.92651 10.3136 9.54419 10.4 9.13403 10.4C8.89673 10.4 8.71216 10.3605 8.58032 10.2814C8.44849 10.1993 8.3606 10.0704 8.31665 9.89465C8.06177 10.1466 7.7688 10.3063 7.43774 10.3737C7.10669 10.4381 6.78589 10.4073 6.47534 10.2814C6.16479 10.1525 5.91284 9.93713 5.71948 9.63538C5.52905 9.33362 5.43384 8.96155 5.43384 8.51917C5.43384 8.0592 5.53198 7.60657 5.72827 7.16125C5.92749 6.71594 6.20874 6.3512 6.57202 6.06702C6.93823 5.78284 7.35132 5.64075 7.81128 5.64075C8.33862 5.64075 8.72534 5.8385 8.97144 6.23401ZM6.56763 8.51038C6.56763 8.86194 6.64087 9.13147 6.78735 9.31897C6.93384 9.50647 7.12573 9.60022 7.36304 9.60022C7.63843 9.60022 7.88013 9.49036 8.08813 9.27063C8.29907 9.0509 8.45874 8.77405 8.56714 8.44006C8.67554 8.10315 8.72974 7.77795 8.72974 7.46448C8.72974 7.3092 8.71069 7.17004 8.67261 7.047C8.63745 6.92102 8.58325 6.81116 8.51001 6.71741C8.4397 6.62366 8.35327 6.55334 8.25073 6.50647C8.15112 6.45667 8.03687 6.43176 7.90796 6.43176C7.65015 6.43176 7.41724 6.53284 7.20923 6.73499C7.00415 6.9342 6.84595 7.19495 6.73462 7.51721C6.62329 7.83655 6.56763 8.1676 6.56763 8.51038Z" fill="currentColor"/>
</svg>
