<!-- Icon: Bell -->
<svg width="16" height="16" viewBox="0 0 16 16"  xmlns="http://www.w3.org/2000/svg" fill="currentColor" data-themable="true">
<path fill-rule="evenodd" clip-rule="evenodd" d="M8.00016 2.5C6.06716 2.5 4.50016 4.067 4.50016 6L4.50003 6.5C4.50003 6.49996 4.50003 6.50004 4.50003 6.5C4.5 7.88458 4.0665 9.16953 3.32785 10.2244C3.31516 10.2425 3.31272 10.2646 3.31688 10.2801C4.22899 10.5688 5.17771 10.7755 6.15447 10.8913C6.75947 10.9631 7.37533 11 8.00003 11C8.62481 11 9.24075 10.9631 9.84583 10.8913C10.8225 10.7754 11.7711 10.5688 12.6832 10.2801C12.6873 10.2646 12.6849 10.2425 12.6722 10.2244C11.9335 9.1695 11.5 7.88463 11.5 6.5V6.02877L11.5002 6C11.5002 4.067 9.93315 2.5 8.00016 2.5ZM3.50016 5.99987C3.50023 3.51465 5.51492 1.5 8.00016 1.5C10.4854 1.5 12.5002 3.51472 12.5002 6L12.5 6.03279V6.5C12.5 7.67282 12.8666 8.75855 13.4913 9.65078C13.8511 10.1646 13.7113 11.0031 12.9942 11.2305C12.1857 11.487 11.3502 11.6829 10.4932 11.8128C10.4978 11.8746 10.5002 11.9371 10.5002 12C10.5002 13.3807 9.38087 14.5 8.00016 14.5C6.61945 14.5 5.50016 13.3807 5.50016 12C5.50016 11.9371 5.50249 11.8747 5.50708 11.8128C4.65001 11.6829 3.81446 11.487 3.00583 11.2305C2.28876 11.0031 2.14892 10.1646 2.50871 9.65078C3.13349 8.75855 3.50003 7.67282 3.50003 6.5L3.50016 5.99987C3.50016 5.99991 3.50016 5.99982 3.50016 5.99987ZM6.50163 11.9328C6.50065 11.9551 6.50016 11.9775 6.50016 12C6.50016 12.8284 7.17173 13.5 8.00016 13.5C8.82859 13.5 9.50016 12.8284 9.50016 12C9.50016 11.9775 9.49966 11.9551 9.49869 11.9328C9.00497 11.9773 8.50509 12 8.00003 12C7.49505 12 6.99526 11.9773 6.50163 11.9328Z" fill="currentColor"/>
</svg>
