<!-- Icon: Block -->
<svg width="16" height="16" viewBox="0 0 16 16"  xmlns="http://www.w3.org/2000/svg" fill="currentColor" data-themable="true">
<path fill-rule="evenodd" clip-rule="evenodd" d="M12.2268 11.5197L4.48032 3.77321C6.64114 1.96964 9.86038 2.08221 11.8891 4.11091C13.9178 6.13962 14.0304 9.35886 12.2268 11.5197ZM3.77321 4.48032L11.5197 12.2268C9.35886 14.0304 6.13962 13.9178 4.11091 11.8891C2.08221 9.86038 1.96964 6.64114 3.77321 4.48032ZM12.5962 3.40381C10.0578 0.865398 5.94221 0.865398 3.40381 3.40381C0.865398 5.94221 0.865398 10.0578 3.40381 12.5962C5.94221 15.1346 10.0578 15.1346 12.5962 12.5962C15.1346 10.0578 15.1346 5.94221 12.5962 3.40381Z" fill="currentColor"/>
</svg>
