<!-- Icon: Bookmark -->
<svg width="16" height="16" viewBox="0 0 16 16"  xmlns="http://www.w3.org/2000/svg" fill="currentColor" data-themable="true">
<path fill-rule="evenodd" clip-rule="evenodd" d="M4.75 3.7622V12.6058C4.75 12.6064 4.75001 12.6069 4.75003 12.6074C4.7522 12.6091 4.75617 12.6117 4.76243 12.614C4.77341 12.6179 4.78153 12.6171 4.78388 12.6166C4.7846 12.6164 4.78442 12.6164 4.78405 12.6166C4.7835 12.617 4.78529 12.6161 4.78898 12.6118C5.25264 12.0687 5.8344 11.417 6.37571 10.8977C6.64535 10.639 6.91627 10.4021 7.16532 10.2266C7.28988 10.1389 7.41912 10.0592 7.54801 9.99992C7.67125 9.94322 7.82857 9.88889 8 9.88889C8.17143 9.88889 8.32875 9.94322 8.45199 9.99992C8.58088 10.0592 8.71012 10.1389 8.83468 10.2266C9.08373 10.4021 9.35465 10.639 9.62429 10.8977C10.1656 11.417 10.7474 12.0687 11.211 12.6118C11.2147 12.6161 11.2165 12.617 11.2159 12.6166C11.2156 12.6164 11.2154 12.6164 11.2161 12.6166C11.2185 12.6171 11.2266 12.6179 11.2376 12.614C11.2438 12.6117 11.2478 12.6091 11.25 12.6074C11.25 12.6069 11.25 12.6064 11.25 12.6058V3.7622C10.5999 3.66547 9.29591 3.5 8 3.5C6.70409 3.5 5.40013 3.66547 4.75 3.7622ZM4.58885 2.77517C5.25334 2.6759 6.62259 2.5 8 2.5C9.37741 2.5 10.7467 2.6759 11.4111 2.77517C11.9025 2.84857 12.25 3.27165 12.25 3.75425V12.6058C12.25 13.5641 11.0485 13.9616 10.4505 13.2611C9.99398 12.7264 9.43745 12.1043 8.93197 11.6193C8.67821 11.3758 8.4486 11.1779 8.25872 11.0441C8.1638 10.9772 8.08897 10.9337 8.03401 10.9084C8.01972 10.9018 8.00845 10.8972 8 10.8941C7.99155 10.8972 7.98028 10.9018 7.96599 10.9084C7.91103 10.9337 7.8362 10.9772 7.74128 11.0441C7.5514 11.1779 7.32179 11.3758 7.06803 11.6193C6.56255 12.1043 6.00602 12.7264 5.5495 13.2611C4.95149 13.9616 3.75 13.5641 3.75 12.6058V3.75425C3.75 3.27165 4.09748 2.84858 4.58885 2.77517Z" fill="currentColor"/>
</svg>
