<!-- Icon: Calendar -->
<svg width="16" height="16" viewBox="0 0 16 16"  xmlns="http://www.w3.org/2000/svg" fill="currentColor" data-themable="true">
<path fill-rule="evenodd" clip-rule="evenodd" d="M5.5 3C5.5 2.72386 5.27614 2.5 5 2.5C4.72386 2.5 4.5 2.72386 4.5 3V3.66612C4.19863 3.69251 3.91499 3.7201 3.65422 3.74732C2.40436 3.87778 1.5 4.94134 1.5 6.17434V8.6675V11.8257V12.3325C1.5 13.3534 2.2716 14.2191 3.3039 14.2998C4.46478 14.3905 6.23043 14.5 8 14.5C9.76957 14.5 11.5352 14.3905 12.6961 14.2998C13.7284 14.2191 14.5 13.3534 14.5 12.3325V11.8257V8.6675V6.17434C14.5 4.94134 13.5956 3.87778 12.3458 3.74732C12.085 3.7201 11.8014 3.69251 11.5 3.66612V3C11.5 2.72386 11.2761 2.5 11 2.5C10.7239 2.5 10.5 2.72386 10.5 3V3.5889C9.71321 3.53652 8.85733 3.5 8 3.5C7.14267 3.5 6.28679 3.53652 5.5 3.5889V3ZM13.5 6.94403V6.17434C13.5 5.42961 12.9592 4.81677 12.242 4.74191C11.11 4.62376 9.55249 4.5 8 4.5C6.44751 4.5 4.88997 4.62376 3.75804 4.74191C3.04085 4.81677 2.5 5.42961 2.5 6.17434V6.94403C2.73921 6.80918 3.01107 6.72312 3.3039 6.70022C4.46478 6.60946 6.23043 6.5 8 6.5C9.76957 6.5 11.5352 6.60946 12.6961 6.70022C12.9889 6.72312 13.2608 6.80918 13.5 6.94403ZM2.5 8.6675V11.8257C2.5 12.5704 3.04085 13.1832 3.75804 13.2581C4.88997 13.3762 6.44751 13.5 8 13.5C9.55249 13.5 11.11 13.3762 12.242 13.2581C12.9592 13.1832 13.5 12.5704 13.5 11.8257V8.6675C13.5 8.15404 13.1155 7.73607 12.6181 7.69718C11.4701 7.60741 9.73306 7.5 8 7.5C6.26694 7.5 4.52995 7.60741 3.38185 7.69718C2.88445 7.73607 2.5 8.15404 2.5 8.6675Z" fill="currentColor"/>
</svg>
