<!-- Icon: Chat -->
<svg width="16" height="16" viewBox="0 0 16 16"  xmlns="http://www.w3.org/2000/svg" fill="currentColor" data-themable="true">
<path fill-rule="evenodd" clip-rule="evenodd" d="M8.33325 3.66675C6.92131 3.66675 5.50503 3.76414 4.44697 3.86097C3.71957 3.92753 3.1665 4.54557 3.1665 5.29877V9.52764C3.1665 10.2808 3.71957 10.8989 4.44697 10.9654C4.91439 11.0082 5.45254 11.0512 6.02991 11.0858C6.29396 11.1016 6.5 11.3204 6.5 11.5849V13.119L7.98285 11.3396C8.07772 11.2257 8.21822 11.1598 8.36642 11.1597C9.76739 11.1581 11.1698 11.0615 12.2195 10.9654C12.9469 10.8989 13.5 10.2808 13.5 9.52765V5.29877C13.5 4.54557 12.9469 3.92753 12.2195 3.86097C11.1615 3.76414 9.74519 3.66675 8.33325 3.66675ZM4.35584 2.86513C5.43056 2.76677 6.87973 2.66675 8.33325 2.66675C9.78677 2.66675 11.2359 2.76677 12.3107 2.86513C13.5754 2.98087 14.5 4.05152 14.5 5.29877V9.52765C14.5 10.7749 13.5754 11.8455 12.3107 11.9613C11.3022 12.0536 9.96407 12.1473 8.60206 12.1586L6.38411 14.8201C6.24934 14.9818 6.02772 15.0418 5.82979 14.9701C5.63185 14.8985 5.5 14.7105 5.5 14.5V12.0536C5.08827 12.0249 4.70276 11.993 4.35584 11.9613C3.09111 11.8455 2.1665 10.7749 2.1665 9.52764V5.29877C2.1665 4.05152 3.09111 2.98087 4.35584 2.86513Z" fill="currentColor"/>
</svg>
