<!-- Icon: Chats -->
<svg width="16" height="16" viewBox="0 0 16 16"  xmlns="http://www.w3.org/2000/svg" fill="currentColor" data-themable="true">
<path fill-rule="evenodd" clip-rule="evenodd" d="M6.75 2.5C5.49822 2.5 4.24162 2.59514 3.34273 2.68392C2.86552 2.73106 2.5 3.1377 2.5 3.63866V7.75023C2.5 8.25118 2.86552 8.65783 3.34273 8.70497C3.86208 8.75626 4.50228 8.80983 5.19279 8.84584C5.45845 8.85969 5.66675 9.07913 5.66675 9.34516V10.119L6.5 9.11907V7.8444C6.5 6.97021 7.14989 6.21609 8.04193 6.13468C8.76154 6.06901 9.75358 6 10.75 6C10.8334 6 10.9168 6.00048 11 6.00141V3.63866C11 3.13771 10.6345 2.73106 10.1573 2.68392C9.25838 2.59514 8.00178 2.5 6.75 2.5ZM12 6.03196V3.63866C12 2.64506 11.2657 1.78853 10.2556 1.68877C9.3395 1.59829 8.04716 1.5 6.75 1.5C5.45284 1.5 4.1605 1.59829 3.24444 1.68877C2.23432 1.78853 1.5 2.64505 1.5 3.63866V7.75023C1.5 8.74383 2.23432 9.60035 3.24444 9.70012C3.6549 9.74066 4.14005 9.78268 4.66675 9.81676V11.5C4.66675 11.7105 4.7986 11.8985 4.99654 11.9701C5.19447 12.0418 5.41609 11.9818 5.55086 11.8201L6.50018 10.6809C6.51258 11.5443 7.1585 12.2847 8.04193 12.3653C8.67116 12.4227 9.50826 12.4827 10.3743 12.4969L11.6159 13.9868C11.7329 14.1272 11.9172 14.1926 12.0966 14.1572C12.276 14.1219 12.4217 13.9915 12.4768 13.8172L12.9211 12.4103C13.1121 12.3957 13.2922 12.3805 13.4581 12.3653C14.3501 12.2839 15 11.5298 15 10.6556V7.8444C15 6.97021 14.3501 6.21609 13.4581 6.13468C13.0449 6.09698 12.542 6.05817 12 6.03196ZM8.13282 7.13054C8.83614 7.06635 9.79527 7 10.75 7C11.7047 7 12.6639 7.06635 13.3672 7.13054C13.723 7.16301 14 7.46557 14 7.8444V10.6556C14 11.0344 13.723 11.337 13.3672 11.3695C13.1126 11.3927 12.8239 11.4163 12.5135 11.4369C12.308 11.4505 12.1318 11.5888 12.0698 11.7852L11.7986 12.644L10.9948 11.6795C10.9006 11.5663 10.7612 11.5005 10.614 11.4996C9.70448 11.4937 8.80246 11.4306 8.13282 11.3695C7.77704 11.337 7.5 11.0344 7.5 10.6556V7.8444C7.5 7.46557 7.77704 7.16301 8.13282 7.13054Z" fill="currentColor"/>
</svg>
