<!-- Icon: Checkbox -->
<svg width="16" height="16" viewBox="0 0 16 16"  xmlns="http://www.w3.org/2000/svg" fill="currentColor" data-themable="true">
<path fill-rule="evenodd" clip-rule="evenodd" d="M8 3.5C6.29441 3.5 4.57811 3.79047 3.87859 3.92447C3.75546 4.57466 3.5 6.14829 3.5 8C3.5 9.85171 3.75546 11.4253 3.87859 12.0755C4.57811 12.2095 6.29441 12.5 8 12.5C9.70559 12.5 11.4219 12.2095 12.1214 12.0755C12.2445 11.4253 12.5 9.85171 12.5 8C12.5 7.72386 12.7239 7.5 13 7.5C13.2761 7.5 13.5 7.72386 13.5 8C13.5 9.95729 13.2279 11.6122 13.0997 12.2841C13.0245 12.678 12.7182 12.979 12.3295 13.0538C11.6216 13.1902 9.81625 13.5 8 13.5C6.18375 13.5 4.3784 13.1902 3.67048 13.0538C3.28184 12.979 2.97549 12.678 2.90032 12.2841C2.77213 11.6122 2.5 9.95729 2.5 8C2.5 6.04271 2.77213 4.38776 2.90032 3.71593C2.97549 3.322 3.28184 3.021 3.67048 2.94617C4.3784 2.80984 6.18375 2.5 8 2.5C9.25803 2.5 10.5084 2.64853 11.3902 2.78424C11.6631 2.82624 11.8503 3.08155 11.8083 3.35448C11.7663 3.62741 11.511 3.81461 11.238 3.7726C10.3822 3.64088 9.18727 3.5 8 3.5ZM13.8536 4.85354C14.0488 4.65827 14.0488 4.34169 13.8536 4.14643C13.6583 3.95117 13.3417 3.95117 13.1465 4.14643L7.76923 9.52368L5.88966 7.18663C5.71659 6.97144 5.40186 6.9373 5.18667 7.11036C4.97149 7.28342 4.93734 7.59816 5.1104 7.81334L6.98998 10.1504C7.36286 10.614 8.05562 10.6515 8.47633 10.2308L13.8536 4.85354Z" fill="currentColor"/>
</svg>
