<!-- Icon: Click -->
<svg width="16" height="16" viewBox="0 0 16 16"  xmlns="http://www.w3.org/2000/svg" fill="currentColor" data-themable="true">
<path fill-rule="evenodd" clip-rule="evenodd" d="M7.48653 1.71643C7.48653 1.44029 7.26268 1.21643 6.98653 1.21643C6.71039 1.21643 6.48653 1.44029 6.48653 1.71643V3.338C6.48653 3.61414 6.71039 3.838 6.98653 3.838C7.26268 3.838 7.48653 3.61414 7.48653 3.338V1.71643ZM4.50235 2.57905C4.30708 2.38379 3.9905 2.38379 3.79524 2.57905C3.59998 2.77431 3.59998 3.0909 3.79524 3.28616L5.01141 4.50233C5.20668 4.6976 5.52326 4.6976 5.71852 4.50233C5.91378 4.30707 5.91378 3.99049 5.71852 3.79523L4.50235 2.57905ZM10.1778 3.28616C10.3731 3.0909 10.3731 2.77431 10.1778 2.57905C9.98257 2.38379 9.66598 2.38379 9.47072 2.57905L8.25455 3.79523C8.05928 3.99049 8.05928 4.30707 8.25455 4.50233C8.44981 4.6976 8.76639 4.6976 8.96165 4.50233L10.1778 3.28616ZM2.93262 5.27035C2.65647 5.27035 2.43262 5.4942 2.43262 5.77035C2.43262 6.04649 2.65647 6.27035 2.93262 6.27035H4.55418C4.83033 6.27035 5.05418 6.04649 5.05418 5.77035C5.05418 5.4942 4.83033 5.27035 4.55418 5.27035H2.93262ZM7.27807 4.95875C7.12574 4.84945 6.92506 4.83455 6.75826 4.92016C6.59146 5.00577 6.48657 5.1775 6.48657 5.36499V14.2836C6.48657 14.504 6.63083 14.6983 6.84173 14.7622C7.05264 14.826 7.28047 14.7442 7.40266 14.5609L9.86371 10.8675L14.0581 10.9458C14.277 10.9499 14.473 10.8111 14.542 10.6034C14.6109 10.3957 14.5368 10.1672 14.3589 10.0396L7.27807 4.95875ZM7.48657 12.6315V6.33917L12.4713 9.91597L9.60873 9.86252C9.43823 9.85933 9.27787 9.94326 9.18331 10.0852L7.48657 12.6315Z" fill="currentColor"/>
</svg>
