<!-- Icon: Close -->
<svg width="16" height="16" viewBox="0 0 16 16"  xmlns="http://www.w3.org/2000/svg" fill="currentColor" data-themable="true">
<path fill-rule="evenodd" clip-rule="evenodd" d="M10.8283 11.5355C11.0235 11.7308 11.3401 11.7308 11.5354 11.5355C11.7306 11.3402 11.7306 11.0237 11.5354 10.8284L8.70701 8.00002L11.5355 5.17157C11.7307 4.97631 11.7307 4.65973 11.5355 4.46446C11.3402 4.2692 11.0236 4.2692 10.8284 4.46446L7.9999 7.29292L5.17142 4.46444C4.97616 4.26918 4.65958 4.26918 4.46432 4.46444C4.26906 4.6597 4.26906 4.97628 4.46432 5.17155L7.29279 8.00002L4.46439 10.8284C4.26913 11.0237 4.26913 11.3403 4.46439 11.5355C4.65966 11.7308 4.97624 11.7308 5.1715 11.5355L7.9999 8.70713L10.8283 11.5355Z" fill="currentColor"/>
</svg>
