<!-- Icon: Cogwheel -->
<svg width="16" height="16" viewBox="0 0 16 16"  xmlns="http://www.w3.org/2000/svg" fill="currentColor" data-themable="true">
<path fill-rule="evenodd" clip-rule="evenodd" d="M5.60005 14.9C5.70005 15 5.90005 15 6.00005 15H6.10005C6.23338 15 6.36672 14.9111 6.50005 14.8222C6.56672 14.7778 6.63338 14.7333 6.70005 14.7L7.60005 13.5H8.50005L9.40005 14.7C9.50005 14.9 9.70005 15 9.90005 15C10.1 15 10.3 15 10.4 14.9L12.7 13.6C12.9 13.5 13 13.4 13.1 13.2C13.2 13 13.2 12.8 13.1 12.6L12.7 11.5C12.6 11.3 12.7 11 12.8 10.8C12.85 10.75 12.875 10.675 12.9 10.6C12.925 10.525 12.95 10.45 13 10.4L14.5 10C14.7 10 14.9 9.9 15 9.7C15.1 9.6 15.2 9.4 15.2 9.2V6.5C15.2 6.35359 15.1465 6.26077 15.0785 6.14308C15.0536 6.1 15.0268 6.05359 15 6C14.9 5.8 14.7 5.7 14.5 5.7L13 5.5C12.9764 5.45279 12.9528 5.4 12.9279 5.34427C12.8473 5.16393 12.7528 4.95279 12.6 4.8L13.2 3.4C13.3 3.2 13.3 3 13.2 2.8C13.1698 2.76972 13.1395 2.73028 13.1064 2.68722C13.0303 2.58806 12.9395 2.46972 12.8 2.4L10.5 1.1C10.3 1 10.1 1 9.90005 1C9.70005 1 9.50005 1.1 9.30005 1.3L8.40005 2.5H7.50005L6.60005 1.3C6.50005 1.1 6.30005 1 6.10005 1C5.90005 1 5.70005 1 5.60005 1.1L3.30005 2.4C3.10005 2.5 3.00005 2.7 2.90005 2.9C2.80005 3.1 2.80005 3.3 2.90005 3.5L3.50005 4.9L3.20005 5.2C3.15005 5.25 3.12505 5.325 3.10005 5.4C3.07505 5.475 3.05005 5.55 3.00005 5.6L1.50005 5.8C1.30005 5.9 1.10005 6 1.00005 6.2C0.900049 6.3 0.800049 6.5 0.800049 6.7V9.4C0.800049 9.5 0.900049 9.7 1.00005 9.9C1.06185 9.9618 1.16185 10.0236 1.30005 10.109C1.38546 10.1618 1.48546 10.2236 1.60005 10.3L3.10005 10.5C3.12366 10.5472 3.14726 10.6 3.17218 10.6557C3.25284 10.8361 3.34726 11.0472 3.50005 11.2L2.90005 12.6C2.80005 12.8 2.80005 13 2.90005 13.2C2.93033 13.2303 2.9606 13.2697 2.99366 13.3128C3.06977 13.4119 3.1606 13.5303 3.30005 13.6L5.60005 14.9ZM5.90005 14L3.90005 12.8L4.30005 11.6C4.40005 11.4 4.40005 11.3 4.40005 11.1C4.40005 10.9 4.30005 10.7 4.20005 10.6L3.90005 10C3.90005 9.8 3.80005 9.7 3.70005 9.6C3.64646 9.5732 3.60005 9.54641 3.55697 9.52154C3.43928 9.45359 3.34646 9.4 3.20005 9.4L1.80005 9.2V6.8L3.20005 6.6C3.30005 6.6 3.50005 6.5 3.60005 6.4C3.80005 6.3 3.90005 6.2 3.90005 6.1C3.93825 6.02361 3.96185 5.9618 3.98202 5.90902C4.01464 5.82361 4.03825 5.7618 4.10005 5.7C4.10005 5.6 4.20005 5.5 4.20005 5.5C4.22684 5.44641 4.25364 5.4 4.27851 5.35692C4.34646 5.23923 4.40005 5.14641 4.40005 5C4.46462 4.87085 4.4458 4.7834 4.42436 4.68379C4.4126 4.62915 4.40005 4.57085 4.40005 4.5L3.90005 3.2L5.90005 2L6.80005 3.1C6.90005 3.3 7.00005 3.4 7.20005 3.4C7.40005 3.5 7.50005 3.5 7.70005 3.5H8.40005C8.50005 3.5 8.70005 3.5 8.80005 3.4C8.95284 3.4 9.04726 3.28328 9.12791 3.18359C9.15283 3.15279 9.17644 3.12361 9.20005 3.1L10.1 2L12.2 3L11.7 4.3C11.6 4.5 11.6 4.6 11.6 4.8C11.6439 4.88769 11.6685 4.97538 11.6908 5.05464C11.7193 5.15616 11.7439 5.24384 11.8 5.3L12.1 5.9C12.2 6.1 12.3 6.2 12.4 6.3C12.4536 6.3268 12.5 6.35359 12.5431 6.37846C12.6608 6.44641 12.7536 6.5 12.9 6.5L14.3 6.7V9.1L12.9 9.3C12.7 9.3 12.5 9.4 12.4 9.5C12.35 9.55 12.3 9.625 12.25 9.7C12.2 9.775 12.15 9.85 12.1 9.9C12.05 9.95 12.025 10.025 12 10.1C11.975 10.175 11.95 10.25 11.9 10.3C11.6 10.8 11.5 11.4 11.7 11.9L12.1 12.8L10 14L9.20005 12.9C9.15005 12.85 9.07505 12.8 9.00005 12.75C8.92505 12.7 8.85005 12.65 8.80005 12.6C8.60005 12.5 8.50005 12.5 8.30005 12.5H7.60005C7.40005 12.5 7.20005 12.5 7.10005 12.6C6.90005 12.7 6.80005 12.8 6.70005 12.9L5.90005 14ZM6.5 8C6.5 7.1 7.2 6.5 8 6.5C8.9 6.5 9.5 7.1 9.5 8C9.5 8.8 8.8 9.5 8 9.5C7.2 9.5 6.5 8.8 6.5 8ZM8 5.5C6.6 5.5 5.5 6.6 5.5 8C5.5 9.3 6.6 10.5 8 10.5C9.4 10.5 10.5 9.4 10.5 8C10.5 6.6 9.4 5.5 8 5.5Z" fill="currentColor"/>
</svg>
