<!-- Icon: Command -->
<svg width="16" height="16" viewBox="0 0 16 16"  xmlns="http://www.w3.org/2000/svg" fill="currentColor" data-themable="true">
<path fill-rule="evenodd" clip-rule="evenodd" d="M2.5 4.75C2.5 3.50736 3.50736 2.5 4.75 2.5C5.99264 2.5 7 3.50736 7 4.75V6H9V4.75C9 3.50736 10.0074 2.5 11.25 2.5C12.4926 2.5 13.5 3.50736 13.5 4.75C13.5 5.99264 12.4926 7 11.25 7H10V9H11.25C12.4926 9 13.5 10.0074 13.5 11.25C13.5 12.4926 12.4926 13.5 11.25 13.5C10.0074 13.5 9 12.4926 9 11.25V10H7V11.25C7 12.4926 5.99264 13.5 4.75 13.5C3.50736 13.5 2.5 12.4926 2.5 11.25C2.5 10.0074 3.50736 9 4.75 9H6V7H4.75C3.50736 7 2.5 5.99264 2.5 4.75ZM4.75 3.5C4.05964 3.5 3.5 4.05964 3.5 4.75C3.5 5.44036 4.05964 6 4.75 6H6V4.75C6 4.05964 5.44036 3.5 4.75 3.5ZM12.5 4.75C12.5 4.05964 11.9404 3.5 11.25 3.5C10.5596 3.5 10 4.05964 10 4.75V6H11.25C11.9404 6 12.5 5.44036 12.5 4.75ZM6 11.25C6 11.9404 5.44036 12.5 4.75 12.5C4.05964 12.5 3.5 11.9404 3.5 11.25C3.5 10.5596 4.05964 10 4.75 10H6V11.25ZM11.25 12.5C11.9404 12.5 12.5 11.9404 12.5 11.25C12.5 10.5596 11.9404 10 11.25 10H10V11.25C10 11.9404 10.5596 12.5 11.25 12.5ZM7 9V7H9V9H7Z" fill="currentColor"/>
</svg>
