<!-- Icon: Copy -->
<svg width="16" height="16" viewBox="0 0 16 16"  xmlns="http://www.w3.org/2000/svg" fill="currentColor" data-themable="true">
<path fill-rule="evenodd" clip-rule="evenodd" d="M6.5 2C5.67157 2 5 2.67157 5 3.5V4H4.5C3.67157 4 3 4.67157 3 5.5V12.5C3 13.3284 3.67157 14 4.5 14H9.5C10.3284 14 11 13.3284 11 12.5V12H11.5C12.3284 12 13 11.3284 13 10.5V3.5C13 2.67157 12.3284 2 11.5 2H6.5ZM10 12H6.5C5.67157 12 5 11.3284 5 10.5V5H4.5C4.22386 5 4 5.22386 4 5.5V12.5C4 12.7761 4.22386 13 4.5 13H9.5C9.77614 13 10 12.7761 10 12.5V12ZM6 3.5C6 3.22386 6.22386 3 6.5 3H11.5C11.7761 3 12 3.22386 12 3.5V10.5C12 10.7761 11.7761 11 11.5 11H6.5C6.22386 11 6 10.7761 6 10.5V3.5Z" fill="currentColor"/>
</svg>
