<!-- Icon: Dollar -->
<svg width="16" height="16" viewBox="0 0 16 16"  xmlns="http://www.w3.org/2000/svg" fill="currentColor" data-themable="true">
<path fill-rule="evenodd" clip-rule="evenodd" d="M2.5 8C2.5 4.96243 4.96243 2.5 8 2.5C11.0376 2.5 13.5 4.96243 13.5 8C13.5 11.0376 11.0376 13.5 8 13.5C4.96243 13.5 2.5 11.0376 2.5 8ZM8 1.5C4.41015 1.5 1.5 4.41015 1.5 8C1.5 11.5899 4.41015 14.5 8 14.5C11.5899 14.5 14.5 11.5899 14.5 8C14.5 4.41015 11.5899 1.5 8 1.5ZM8.27435 4.47412V3.99951C8.27435 3.75928 8.1806 3.63916 7.9931 3.63916C7.80853 3.63916 7.71625 3.76221 7.71625 4.0083V4.47412C7.1098 4.52686 6.64545 4.71436 6.32318 5.03662C6.00385 5.35889 5.84418 5.77197 5.84418 6.27588C5.84418 6.6626 5.92621 6.979 6.09027 7.2251C6.25433 7.47119 6.4682 7.66162 6.73187 7.79639C6.99554 7.92822 7.32367 8.04834 7.71625 8.15674V10.2002C7.51996 10.1445 7.36176 10.064 7.24164 9.9585C7.12445 9.85303 7.03656 9.7373 6.97797 9.61133C6.91937 9.48242 6.85052 9.29785 6.77142 9.05762C6.73627 8.94629 6.67328 8.85986 6.58246 8.79834C6.49164 8.73682 6.38031 8.70605 6.24847 8.70605C6.08441 8.70605 5.94672 8.76318 5.83539 8.87744C5.72699 8.98877 5.67279 9.11475 5.67279 9.25537C5.67279 9.4458 5.71381 9.64062 5.79584 9.83984C5.87787 10.0361 6.00385 10.2266 6.17377 10.4111C6.34662 10.5928 6.56049 10.7451 6.81537 10.8682C7.07318 10.9912 7.37347 11.0718 7.71625 11.1099V12.2964C7.71625 12.4312 7.73676 12.5308 7.77777 12.5952C7.82172 12.6597 7.89642 12.6919 8.00189 12.6919C8.11615 12.6919 8.18939 12.6523 8.22162 12.5732C8.25677 12.4941 8.27435 12.3682 8.27435 12.1953V11.1011C8.6933 11.0659 9.05511 10.9561 9.3598 10.7715C9.66449 10.5869 9.89447 10.3496 10.0497 10.0596C10.2079 9.7666 10.287 9.45312 10.287 9.11914C10.287 8.85254 10.2372 8.60791 10.1376 8.38525C10.041 8.15967 9.90179 7.96631 9.72015 7.80518C9.55023 7.6499 9.35687 7.53125 9.14008 7.44922C8.92621 7.36719 8.63763 7.27637 8.27435 7.17676V5.34863C8.64349 5.46875 8.8764 5.71191 8.97308 6.07812C9.05804 6.38867 9.24408 6.54395 9.53119 6.54395C9.68353 6.54395 9.81244 6.49121 9.91791 6.38574C10.0263 6.27734 10.0805 6.1499 10.0805 6.00342C10.0805 5.87158 10.0439 5.72656 9.97064 5.56836C9.90033 5.41016 9.79926 5.25635 9.66742 5.10693C9.50043 4.91064 9.30414 4.76416 9.07855 4.66748C8.8559 4.5708 8.58783 4.50635 8.27435 4.47412ZM7.71625 5.33105V7.01416C7.45258 6.91748 7.25629 6.81055 7.12738 6.69336C6.99847 6.57324 6.93402 6.39746 6.93402 6.16602C6.93402 5.92285 7.00287 5.74121 7.14056 5.62109C7.27826 5.50098 7.47015 5.4043 7.71625 5.33105ZM8.27435 10.2441V8.31934C8.57904 8.41602 8.80902 8.53467 8.96429 8.67529C9.1225 8.81299 9.2016 9.00928 9.2016 9.26416C9.2016 9.50146 9.12103 9.70947 8.9599 9.88818C8.79877 10.0669 8.57025 10.1855 8.27435 10.2441Z" fill="currentColor"/>
</svg>
