<!-- Icon: Download -->
<svg width="16" height="16" viewBox="0 0 16 16"  xmlns="http://www.w3.org/2000/svg" fill="currentColor" data-themable="true">
<path fill-rule="evenodd" clip-rule="evenodd" d="M2.5 11.2727C2.5 10.9966 2.27614 10.7727 2 10.7727C1.72386 10.7727 1.5 10.9966 1.5 11.2727V12.2556C1.5 13.2424 2.2242 14.093 3.2231 14.2058C4.38519 14.3371 6.18971 14.5 8 14.5C9.81029 14.5 11.6148 14.3371 12.7769 14.2058C13.7758 14.093 14.5 13.2424 14.5 12.2556V11.2727C14.5 10.9966 14.2761 10.7727 14 10.7727C13.7239 10.7727 13.5 10.9966 13.5 11.2727V12.2556C13.5 12.7521 13.1396 13.1585 12.6646 13.2122C11.5204 13.3414 9.75734 13.5 8 13.5C6.24266 13.5 4.47956 13.3414 3.33538 13.2122C2.86036 13.1585 2.5 12.7521 2.5 12.2556V11.2727ZM8.70713 10.6667C8.3166 11.0572 7.68344 11.0572 7.29291 10.6667L3.9798 7.35361C3.78454 7.15835 3.78454 6.84177 3.9798 6.6465C4.17506 6.45124 4.49164 6.45124 4.68691 6.6465L7.5 9.4596L7.5 3.00002C7.5 2.72388 7.72386 2.50002 8 2.50002C8.27614 2.50002 8.5 2.72388 8.5 3.00002L8.5 9.45964L11.3131 6.6465C11.5084 6.45124 11.825 6.45124 12.0202 6.6465C12.2155 6.84177 12.2155 7.15835 12.0202 7.35361L8.70713 10.6667Z" fill="currentColor"/>
</svg>
