<!-- Icon: Edit -->
<svg width="16" height="16" viewBox="0 0 16 16"  xmlns="http://www.w3.org/2000/svg" fill="currentColor" data-themable="true">
<path fill-rule="evenodd" clip-rule="evenodd" d="M12.4243 2.71712C12.1899 2.4828 11.8101 2.4828 11.5757 2.71712L5.17574 9.11712C5.06321 9.22964 5 9.38225 5 9.54138V10.9C5 11.2313 5.26863 11.5 5.6 11.5H6.95858C7.11771 11.5 7.27032 11.4367 7.38284 11.3242L13.7828 4.92423C14.0172 4.68991 14.0172 4.31001 13.7828 4.0757L12.4243 2.71712ZM10.9571 4.74998L12 3.70707L12.7929 4.49996L11.75 5.54287L10.9571 4.74998ZM10.25 5.45709L6 9.70707V10.5H6.79289L11.0429 6.24998L10.25 5.45709ZM2 12.5C1.72386 12.5 1.5 12.7238 1.5 13C1.5 13.2761 1.72386 13.5 2 13.5H5.5C5.77614 13.5 6 13.2761 6 13C6 12.7238 5.77614 12.5 5.5 12.5H2Z" fill="currentColor"/>
</svg>
