<!-- Icon: Editor -->
<svg width="16" height="16" viewBox="0 0 16 16"  xmlns="http://www.w3.org/2000/svg" fill="currentColor" data-themable="true">
<path fill-rule="evenodd" clip-rule="evenodd" d="M4 2.5C3.17157 2.5 2.5 3.17157 2.5 4V12C2.5 12.8284 3.17157 13.5 4 13.5H12C12.8284 13.5 13.5 12.8284 13.5 12V8C13.5 7.72386 13.7239 7.5 14 7.5C14.2761 7.5 14.5 7.72386 14.5 8V12C14.5 13.3807 13.3807 14.5 12 14.5H4C2.61929 14.5 1.5 13.3807 1.5 12V4C1.5 2.61929 2.61929 1.5 4 1.5H8C8.27614 1.5 8.5 1.72386 8.5 2C8.5 2.27614 8.27614 2.5 8 2.5H4ZM11.5757 2.71712C11.81 2.4828 12.1899 2.4828 12.4243 2.71712L13.7828 4.0757C14.0172 4.31001 14.0172 4.68991 13.7828 4.92423L7.38284 11.3242C7.27032 11.4367 7.11771 11.5 6.95858 11.5H5.6C5.26863 11.5 5 11.2313 5 10.9V9.54138C5 9.38225 5.06321 9.22964 5.17574 9.11712L11.5757 2.71712ZM10.25 5.45709L6 9.70707V10.5H6.79289L11.0429 6.24998L10.25 5.45709ZM10.9571 4.74998L11.75 5.54287L12.7929 4.49996L12 3.70707L10.9571 4.74998Z" fill="currentColor"/>
</svg>
