<!-- Icon: EmojiSad -->
<svg width="16" height="16" viewBox="0 0 16 16" fill="currentColor" xmlns="http://www.w3.org/2000/svg">
<path d="M8 2C11.3137 2 14 4.68629 14 8C14 11.3137 11.3137 14 8 14C4.68629 14 2 11.3137 2 8C2 4.68629 4.68629 2 8 2ZM8 3C5.23858 3 3 5.23858 3 8C3 10.7614 5.23858 13 8 13C10.7614 13 13 10.7614 13 8C13 5.23858 10.7614 3 8 3ZM8 9C8.89603 9 9.71414 9.33776 10.333 9.8916C10.5387 10.0757 10.5571 10.3919 10.373 10.5977C10.189 10.8033 9.87276 10.8205 9.66699 10.6367C9.22437 10.2406 8.64061 10 8 10C7.3594 10 6.77563 10.2406 6.33301 10.6367C6.12724 10.8205 5.811 10.8033 5.62695 10.5977C5.44288 10.3919 5.46128 10.0757 5.66699 9.8916C6.28585 9.33775 7.10398 9.00001 8 9ZM6.25 6C6.66421 6 7 6.33579 7 6.75C7 7.16421 6.66421 7.5 6.25 7.5C5.83579 7.5 5.5 7.16421 5.5 6.75C5.5 6.33579 5.83579 6 6.25 6ZM9.75 6C10.1642 6 10.5 6.33579 10.5 6.75C10.5 7.16421 10.1642 7.5 9.75 7.5C9.33579 7.5 9 7.16421 9 6.75C9 6.33579 9.33579 6 9.75 6Z" fill="#currentColor"/>
</svg>
