<!-- Icon: Envelope -->
<svg width="16" height="16" viewBox="0 0 16 16"  xmlns="http://www.w3.org/2000/svg" fill="currentColor" data-themable="true">
<path fill-rule="evenodd" clip-rule="evenodd" d="M3.33538 3.78784C4.47956 3.65856 6.24266 3.5 8 3.5C9.75734 3.5 11.5204 3.65856 12.6646 3.78784C12.8901 3.81332 13.0897 3.91824 13.2372 4.07455C13.2187 4.08603 13.2007 4.09885 13.1834 4.11302L8.94987 7.57681C8.39732 8.0289 7.60271 8.0289 7.05016 7.57681L2.81663 4.11302C2.7993 4.09884 2.78131 4.08602 2.76277 4.07454C2.9103 3.91824 3.10992 3.81332 3.33538 3.78784ZM2.5 5.14602V11.2556C2.5 11.7521 2.86036 12.1585 3.33538 12.2122C4.47956 12.3414 6.24266 12.5 8 12.5C9.75734 12.5 11.5204 12.3414 12.6646 12.2122C13.1396 12.1585 13.5 11.7521 13.5 11.2556V5.14604L9.58311 8.35077C8.6622 9.10425 7.33784 9.10425 6.41692 8.35077L2.5 5.14602ZM8 2.5C6.18971 2.5 4.38519 2.66286 3.2231 2.79417C2.2242 2.90704 1.5 3.75762 1.5 4.74439V11.2556C1.5 12.2424 2.2242 13.093 3.2231 13.2058C4.38519 13.3371 6.18971 13.5 8 13.5C9.81029 13.5 11.6148 13.3371 12.7769 13.2058C13.7758 13.093 14.5 12.2424 14.5 11.2556V4.74439C14.5 3.75762 13.7758 2.90704 12.7769 2.79417C11.6148 2.66286 9.81029 2.5 8 2.5Z" fill="currentColor"/>
</svg>
