<!-- Icon: EnvelopePlus -->
<svg width="16" height="16" viewBox="0 0 16 16"  xmlns="http://www.w3.org/2000/svg" fill="currentColor" data-themable="true">
<path fill-rule="evenodd" clip-rule="evenodd" d="M2.83538 3.78784C3.97956 3.65856 5.74266 3.5 7.5 3.5C9.25734 3.5 11.0204 3.65856 12.1646 3.78784C12.3901 3.81332 12.5897 3.91824 12.7372 4.07455C12.7187 4.08603 12.7007 4.09885 12.6834 4.11302L8.13325 7.83587C7.76489 8.13726 7.23514 8.13726 6.86678 7.83587L2.31663 4.11302C2.2993 4.09884 2.28131 4.08602 2.26277 4.07454C2.4103 3.91824 2.60992 3.81332 2.83538 3.78784ZM2 5.14602V11.2556C2 11.7521 2.36036 12.1585 2.83538 12.2122C3.97956 12.3414 5.74266 12.5 7.5 12.5C7.96662 12.5 8.43415 12.4888 8.89095 12.4699C9.16685 12.4585 9.39978 12.6729 9.41119 12.9488C9.42261 13.2247 9.2082 13.4576 8.9323 13.4691C8.46383 13.4884 7.98237 13.5 7.5 13.5C5.68971 13.5 3.88519 13.3371 2.7231 13.2058C1.7242 13.093 1 12.2424 1 11.2556V4.74439C1 3.75762 1.7242 2.90704 2.7231 2.79417C3.88519 2.66286 5.68971 2.5 7.5 2.5C9.31029 2.5 11.1148 2.66286 12.2769 2.79417C13.2758 2.90704 14 3.75762 14 4.74439V8C14 8.27614 13.7761 8.5 13.5 8.5C13.2239 8.5 13 8.27614 13 8V5.14604L8.76649 8.60982C8.02976 9.2126 6.97027 9.2126 6.23354 8.60982L2 5.14602ZM13.4116 10.5C13.6878 10.5 13.9116 10.7239 13.9116 11V12.25H15.1616C15.4378 12.25 15.6616 12.4739 15.6616 12.75C15.6616 13.0261 15.4378 13.25 15.1616 13.25H13.9116V14.5C13.9116 14.7761 13.6878 15 13.4116 15C13.1355 15 12.9116 14.7761 12.9116 14.5V13.25H11.6616C11.3855 13.25 11.1616 13.0261 11.1616 12.75C11.1616 12.4739 11.3855 12.25 11.6616 12.25H12.9116V11C12.9116 10.7239 13.1355 10.5 13.4116 10.5Z" fill="currentColor"/>
</svg>
