<!-- Icon: EnvelopeMove -->
<svg width="16" height="16" viewBox="0 0 16 16"  xmlns="http://www.w3.org/2000/svg" fill="currentColor" data-themable="true">
<path fill-rule="evenodd" clip-rule="evenodd" d="M2.7822 4.0872L2.53505 3.88523C3.48575 3.76066 5.74641 3.5 8.00005 3.5C9.75739 3.5 11.5205 3.65856 12.6647 3.78784C12.8901 3.81332 13.0897 3.91824 13.2373 4.07453C13.2187 4.08601 13.2007 4.09884 13.1834 4.11302L8.94987 7.57681C8.39732 8.0289 7.60271 8.0289 7.05016 7.57681L2.81663 4.11302C2.80542 4.10385 2.79393 4.09524 2.7822 4.0872ZM3.48926 5.95541C3.4816 5.94984 3.47405 5.94402 3.46662 5.93795L1.8596 4.62469C1.63204 4.43874 1.50005 4.16041 1.50005 3.86653C1.50005 3.3837 1.85377 2.96681 2.34185 2.90205C3.26853 2.7791 5.63062 2.5 8.00005 2.5C9.81034 2.5 11.6149 2.66286 12.777 2.79417C13.7759 2.90704 14.5 3.75762 14.5 4.74439V11.2556C14.5 12.2424 13.7759 13.093 12.777 13.2058C11.6149 13.3371 9.81034 13.5 8.00005 13.5C6.47715 13.5 4.95904 13.3848 3.8248 13.2702C3.25686 13.2128 2.78334 13.1554 2.45128 13.1123C2.28521 13.0907 2.15443 13.0727 2.0648 13.0601C2.01999 13.0537 1.98545 13.0487 1.96193 13.0453L1.93501 13.0413L1.92598 13.0399L2.00005 12.5455C1.92515 13.0398 1.92592 13.0399 1.92598 13.0399C1.65295 12.9986 1.46432 12.7436 1.50569 12.4706C1.54706 12.1975 1.8019 12.0097 2.07491 12.0511L2.07656 12.0513L2.08249 12.0522L2.10701 12.0558C2.1289 12.0591 2.16175 12.0638 2.20482 12.0699C2.29098 12.0821 2.41801 12.0996 2.58007 12.1206C2.90425 12.1627 3.36823 12.219 3.9253 12.2753C5.04106 12.388 6.52295 12.5 8.00005 12.5C9.75739 12.5 11.5205 12.3414 12.6647 12.2122C13.1397 12.1585 13.5 11.7521 13.5 11.2556V5.146L9.58311 8.35077C8.6622 9.10425 7.33784 9.10425 6.41692 8.35077L3.48926 5.95541ZM0.5 8C0.5 7.72386 0.723858 7.5 1 7.5H2.91187C3.18801 7.5 3.41187 7.72386 3.41187 8C3.41187 8.27614 3.18801 8.5 2.91187 8.5H1C0.723858 8.5 0.5 8.27614 0.5 8ZM1 9.5C0.723858 9.5 0.5 9.72386 0.5 10C0.5 10.2761 0.723858 10.5 1 10.5H5.5C5.77614 10.5 6 10.2761 6 10C6 9.72386 5.77614 9.5 5.5 9.5H1Z" fill="currentColor"/>
</svg>
