<!-- Icon: Error -->
<svg width="16" height="16" viewBox="0 0 16 16"  xmlns="http://www.w3.org/2000/svg" fill="currentColor" data-themable="true">
<path fill-rule="evenodd" clip-rule="evenodd" d="M2.5 8C2.5 4.96243 4.96243 2.5 8 2.5C11.0376 2.5 13.5 4.96243 13.5 8C13.5 11.0376 11.0376 13.5 8 13.5C4.96243 13.5 2.5 11.0376 2.5 8ZM8 1.5C4.41015 1.5 1.5 4.41015 1.5 8C1.5 11.5899 4.41015 14.5 8 14.5C11.5899 14.5 14.5 11.5899 14.5 8C14.5 4.41015 11.5899 1.5 8 1.5ZM7.5 8.43982C7.5 8.71596 7.72386 8.93982 8 8.93982C8.27614 8.93982 8.5 8.71596 8.5 8.43982L8.5 4.74999C8.5 4.47385 8.27614 4.24999 8 4.24999C7.72386 4.24999 7.5 4.47385 7.5 4.74999L7.5 8.43982ZM7.375 10.8623C7.375 10.5171 7.65482 10.2373 8 10.2373C8.34518 10.2373 8.625 10.5171 8.625 10.8623C8.625 11.2075 8.34518 11.4873 8 11.4873C7.65482 11.4873 7.375 11.2075 7.375 10.8623Z" fill="currentColor"/>
</svg>
