<!-- Icon: Expand -->
<svg width="16" height="16" viewBox="0 0 16 16"  xmlns="http://www.w3.org/2000/svg" fill="currentColor" data-themable="true">
<path d="M13.0156 3.00098C13.0363 3.00164 13.0567 3.00363 13.0771 3.00684L13.1006 3.00977C13.1073 3.01113 13.1135 3.014 13.1201 3.01562C13.1293 3.01791 13.1384 3.02062 13.1475 3.02344C13.1647 3.02877 13.1818 3.03391 13.1982 3.04102C13.2093 3.0458 13.2197 3.052 13.2305 3.05762C13.2453 3.06538 13.2595 3.07385 13.2734 3.08301C13.2828 3.08915 13.2918 3.09571 13.3008 3.10254C13.3145 3.11293 13.3273 3.12403 13.3398 3.13574C13.344 3.13966 13.3494 3.1424 13.3535 3.14648C13.3579 3.15091 13.361 3.15658 13.3652 3.16113C13.3777 3.17457 13.3895 3.18838 13.4004 3.20312C13.4069 3.21182 13.4131 3.22049 13.4189 3.22949C13.4267 3.24152 13.4337 3.2539 13.4404 3.2666C13.4483 3.28139 13.4556 3.29618 13.4619 3.31152C13.467 3.324 13.4715 3.33665 13.4756 3.34961C13.4796 3.36218 13.4824 3.37491 13.4854 3.3877C13.4885 3.40123 13.4912 3.41479 13.4932 3.42871C13.4957 3.44627 13.4974 3.46375 13.498 3.48145C13.4983 3.48762 13.5 3.49377 13.5 3.5V7C13.5 7.27614 13.2761 7.5 13 7.5C12.7239 7.5 12.5 7.27614 12.5 7V4.70703L9.85352 7.35352C9.65827 7.54877 9.34175 7.54874 9.14648 7.35352C8.95122 7.15825 8.95122 6.84175 9.14648 6.64648L11.793 4H9.5C9.22386 4 9 3.77614 9 3.5C9 3.22386 9.22386 3 9.5 3H13L13.0156 3.00098Z" fill="currentColor"/>
<path d="M3.5 8.9999C3.77608 8.9999 3.9999 9.22385 4.00001 9.4999V11.7929L6.64652 9.14638L6.72464 9.08193C6.91869 8.95385 7.18272 8.97561 7.35355 9.14638C7.52438 9.31721 7.54607 9.58123 7.41801 9.7753L7.35355 9.85342L4.70705 12.4999H7.00003C7.27611 12.4999 7.49993 12.7239 7.50004 13C7.50004 13.2761 7.27618 13.5 7.00003 13.5H3.5C3.46694 13.5 3.43391 13.4967 3.40137 13.4902C3.39164 13.4882 3.38257 13.4839 3.37305 13.4814C3.29025 13.4596 3.2114 13.4184 3.14649 13.3535C3.1098 13.3168 3.08149 13.2751 3.05859 13.2314C3.05163 13.2181 3.04386 13.2053 3.03809 13.1914C3.01279 13.1302 2.99998 13.0651 3 13V9.4999C3.00011 9.22385 3.22393 8.9999 3.5 8.9999Z" fill="currentColor"/>
</svg>
