<!-- Icon: Eye -->
<svg width="16" height="16" viewBox="0 0 16 16"  xmlns="http://www.w3.org/2000/svg" fill="currentColor" data-themable="true">
<path fill-rule="evenodd" clip-rule="evenodd" d="M1.5 8C1.5 7.722 1.63898 7.29812 1.96975 6.78745C2.29274 6.28879 2.7692 5.75345 3.36783 5.2612C4.56823 4.27409 6.20963 3.5 8 3.5C9.79037 3.5 11.4318 4.27409 12.6322 5.2612C13.2308 5.75345 13.7073 6.28879 14.0302 6.78745C14.361 7.29812 14.5 7.722 14.5 8C14.5 8.278 14.361 8.70188 14.0302 9.21256C13.7073 9.71121 13.2308 10.2465 12.6322 10.7388C11.4318 11.7259 9.79037 12.5 8 12.5C6.20963 12.5 4.56823 11.7259 3.36783 10.7388C2.7692 10.2465 2.29274 9.71121 1.96975 9.21256C1.63898 8.70188 1.5 8.278 1.5 8ZM8 2.5C5.92438 2.5 4.06578 3.39258 2.73268 4.4888C2.06455 5.03821 1.51589 5.64871 1.13044 6.24381C0.752768 6.82688 0.5 7.44466 0.5 8C0.5 8.55534 0.752768 9.17312 1.13044 9.7562C1.51589 10.3513 2.06455 10.9618 2.73268 11.5112C4.06578 12.6074 5.92438 13.5 8 13.5C10.0756 13.5 11.9342 12.6074 13.2673 11.5112C13.9354 10.9618 14.4841 10.3513 14.8696 9.7562C15.2472 9.17312 15.5 8.55534 15.5 8C15.5 7.44466 15.2472 6.82688 14.8696 6.24381C14.4841 5.64871 13.9354 5.03821 13.2673 4.4888C11.9342 3.39258 10.0756 2.5 8 2.5ZM6.5 8C6.5 7.17157 7.17157 6.5 8 6.5C8.82843 6.5 9.5 7.17157 9.5 8C9.5 8.82843 8.82843 9.5 8 9.5C7.17157 9.5 6.5 8.82843 6.5 8ZM8 5.5C6.61929 5.5 5.5 6.61929 5.5 8C5.5 9.38071 6.61929 10.5 8 10.5C9.38071 10.5 10.5 9.38071 10.5 8C10.5 6.61929 9.38071 5.5 8 5.5Z" fill="currentColor"/>
</svg>
