<!-- Icon: EyeOff -->
<svg width="16" height="16" viewBox="0 0 16 16"  xmlns="http://www.w3.org/2000/svg" fill="currentColor" data-themable="true">
<path fill-rule="evenodd" clip-rule="evenodd" d="M10.9812 3.11162C10.0724 2.73487 9.06473 2.5 8 2.5C5.92438 2.5 4.06578 3.39258 2.73268 4.4888C2.06455 5.03821 1.51589 5.64871 1.13044 6.24381C0.752768 6.82688 0.5 7.44466 0.5 8C0.5 8.55534 0.752768 9.17312 1.13044 9.7562C1.49992 10.3266 2.01937 10.9112 2.65026 11.4426L3.36027 10.7326C2.76519 10.242 2.29138 9.70911 1.96975 9.21256C1.63898 8.70188 1.5 8.278 1.5 8C1.5 7.722 1.63898 7.29812 1.96975 6.78745C2.29274 6.28879 2.7692 5.75345 3.36783 5.2612C4.56823 4.27409 6.20963 3.5 8 3.5C8.77106 3.5 9.51449 3.64357 10.207 3.88591L10.9812 3.11162ZM8.5354 5.55746C8.36291 5.51983 8.18377 5.5 8 5.5C6.61929 5.5 5.5 6.61929 5.5 8C5.5 8.18377 5.51983 8.36291 5.55746 8.5354L6.58133 7.51153C6.73125 7.07604 7.07604 6.73125 7.51153 6.58133L8.5354 5.55746ZM2.04525 13.4618C1.9608 13.6464 1.99456 13.8717 2.1465 14.0236C2.34179 14.2188 2.65837 14.2188 2.85361 14.0235L4.31659 12.5601C5.39669 13.1239 6.65262 13.5 8 13.5C10.0756 13.5 11.9342 12.6074 13.2673 11.5112C13.9354 10.9618 14.4841 10.3513 14.8696 9.7562C15.2472 9.17312 15.5 8.55534 15.5 8C15.5 7.44466 15.2472 6.82688 14.8696 6.24381C14.4841 5.64871 13.9354 5.03821 13.2673 4.4888C13.1082 4.35796 12.9416 4.23001 12.768 4.10613L14.0203 2.8535C14.2155 2.65821 14.2155 2.34163 14.0202 2.14639C13.8699 1.99619 13.6479 1.96158 13.4645 2.04253L2.04525 13.4618ZM5.0622 11.8142L6.72504 10.1509C7.09834 10.3727 7.5343 10.5 8 10.5C9.38071 10.5 10.5 9.38071 10.5 8C10.5 7.53403 10.3725 7.09784 10.1505 6.7244L12.0501 4.82428C12.2538 4.96356 12.4482 5.10988 12.6322 5.2612C13.2308 5.75345 13.7073 6.28879 14.0302 6.78745C14.361 7.29812 14.5 7.722 14.5 8C14.5 8.278 14.361 8.70188 14.0302 9.21256C13.7073 9.71121 13.2308 10.2465 12.6322 10.7388C11.4318 11.7259 9.79037 12.5 8 12.5C6.94983 12.5 5.95093 12.2337 5.0622 11.8142ZM9.5 8C9.5 7.81382 9.46608 7.63556 9.40408 7.47107L7.47149 9.40424C7.63586 9.46614 7.81398 9.5 8 9.5C8.82843 9.5 9.5 8.82843 9.5 8Z" fill="currentColor"/>
</svg>
