<!-- Icon: File -->
<svg width="16" height="16" viewBox="0 0 16 16"  xmlns="http://www.w3.org/2000/svg" fill="currentColor" data-themable="true">
<path d="M8.58594 0.5C8.67469 0.500009 8.76243 0.509051 8.84863 0.524414C9.02557 0.468068 9.22056 0.513531 9.35352 0.646484L13.3535 4.64648C13.4858 4.77877 13.5306 4.97221 13.4756 5.14844C13.4913 5.23554 13.5 5.32432 13.5 5.41406V14C13.5 14.8284 12.8284 15.5 12 15.5H4C3.17157 15.5 2.5 14.8284 2.5 14V2C2.5 1.17157 3.17157 0.5 4 0.5H8.58594ZM4 1.5C3.72386 1.5 3.5 1.72386 3.5 2V14C3.5 14.2761 3.72386 14.5 4 14.5H12C12.2761 14.5 12.5 14.2761 12.5 14V5.5H10C9.17158 5.5 8.50001 4.82842 8.5 4V1.5H4ZM9.5 4C9.50001 4.27614 9.72386 4.5 10 4.5H11.793L9.5 2.20703V4Z" fill="currentColor"/>
</svg>
