<!-- Icon: FilterDown -->
<svg width="16" height="16" viewBox="0 0 16 16"  xmlns="http://www.w3.org/2000/svg" fill="currentColor" data-themable="true">
<path fill-rule="evenodd" clip-rule="evenodd" d="M6.70719 13.6666C6.31666 14.0571 5.6835 14.0571 5.29297 13.6666L1.97986 10.3535C1.7846 10.1582 1.7846 9.84162 1.97986 9.64636C2.17512 9.4511 2.49171 9.4511 2.68697 9.64636L5.5 12.4594L5.5 2C5.5 1.72386 5.72386 1.5 6 1.5C6.27614 1.5 6.5 1.72386 6.5 2L6.5 12.4596L9.31319 9.64636C9.50846 9.4511 9.82504 9.4511 10.0203 9.64636C10.2156 9.84162 10.2156 10.1582 10.0203 10.3535L6.70719 13.6666ZM8.5 2.5C8.22386 2.5 8 2.72386 8 3C8 3.27614 8.22386 3.5 8.5 3.5H13C13.2761 3.5 13.5 3.27614 13.5 3C13.5 2.72386 13.2761 2.5 13 2.5H8.5ZM8 5C8 4.72386 8.22386 4.5 8.5 4.5H11C11.2761 4.5 11.5 4.72386 11.5 5C11.5 5.27614 11.2761 5.5 11 5.5H8.5C8.22386 5.5 8 5.27614 8 5ZM8.5 6.5C8.22386 6.5 8 6.72386 8 7C8 7.27614 8.22386 7.5 8.5 7.5H9C9.27614 7.5 9.5 7.27614 9.5 7C9.5 6.72386 9.27614 6.5 9 6.5H8.5Z" fill="currentColor"/>
</svg>
