<!-- Icon: Filter -->
<svg width="16" height="16" viewBox="0 0 16 16"  xmlns="http://www.w3.org/2000/svg" fill="currentColor" data-themable="true">
<path fill-rule="evenodd" clip-rule="evenodd" d="M2.83325 4.66663C2.83325 4.39048 3.05711 4.16663 3.33325 4.16663H12.6666C12.9427 4.16663 13.1666 4.39048 13.1666 4.66663C13.1666 4.94277 12.9427 5.16663 12.6666 5.16663H3.33325C3.05711 5.16663 2.83325 4.94277 2.83325 4.66663ZM4.83325 7.99996C4.83325 7.72382 5.05711 7.49996 5.33325 7.49996H10.6666C10.9427 7.49996 11.1666 7.72382 11.1666 7.99996C11.1666 8.2761 10.9427 8.49996 10.6666 8.49996H5.33325C5.05711 8.49996 4.83325 8.2761 4.83325 7.99996ZM6.16658 11.3333C6.16658 11.0571 6.39044 10.8333 6.66658 10.8333H9.33325C9.60939 10.8333 9.83325 11.0571 9.83325 11.3333C9.83325 11.6094 9.60939 11.8333 9.33325 11.8333H6.66658C6.39044 11.8333 6.16658 11.6094 6.16658 11.3333Z" fill="currentColor"/>
</svg>
