<!-- Icon: Flame -->
<svg width="16" height="16" viewBox="0 0 16 16"  xmlns="http://www.w3.org/2000/svg" fill="currentColor" data-themable="true">
<path fill-rule="evenodd" clip-rule="evenodd" d="M7.55714 0.71685C7.69921 0.617036 7.8829 0.598079 8.04237 0.666772C9.87914 1.45798 11.1666 3.28503 11.1666 5.4139C11.1666 5.47781 11.1654 5.54147 11.1631 5.60486C11.1631 5.60674 11.163 5.60863 11.1629 5.61051C11.119 6.78288 10.6845 7.85489 9.9865 8.70061C10.76 8.44254 11.4326 7.96369 11.93 7.33809C12.0405 7.19914 12.2164 7.12919 12.3921 7.15428C12.5678 7.17938 12.7171 7.29576 12.7842 7.46007C13.0309 8.06348 13.1666 8.72347 13.1666 9.41391C13.1666 12.2674 10.8534 14.5806 7.99992 14.5806C5.14645 14.5806 2.83325 12.2674 2.83325 9.41391C2.83325 9.35412 2.83427 9.29455 2.83629 9.23522C2.83634 9.23298 2.8364 9.23073 2.83648 9.22849C2.89692 7.51799 3.7887 6.01998 5.11787 5.12515C5.1467 5.09832 5.17916 5.07451 5.21499 5.0545C6.49176 4.34143 7.3533 2.97794 7.3533 1.4139C7.3533 1.32735 7.35067 1.24148 7.34548 1.15636C7.33494 0.983042 7.41506 0.816665 7.55714 0.71685ZM5.80113 5.8711C5.78909 5.88041 5.77653 5.88926 5.76346 5.8976C4.64283 6.612 3.88799 7.8456 3.83608 9.25778C3.83603 9.25979 3.83597 9.26181 3.8359 9.26383C3.83414 9.31361 3.83325 9.36364 3.83325 9.41391C3.83325 11.7151 5.69873 13.5806 7.99992 13.5806C10.3011 13.5806 12.1666 11.7151 12.1666 9.41391C12.1666 9.14095 12.1404 8.87442 12.0905 8.61656C11.1792 9.42339 9.98009 9.91391 8.66658 9.91391C8.57367 9.91391 8.48129 9.91145 8.3895 9.90659C8.17039 9.89499 7.98444 9.7419 7.93098 9.52909C7.87753 9.31628 7.96907 9.09349 8.1567 8.97973C9.32143 8.27356 10.1112 7.01451 10.1638 5.56847C10.1638 5.56671 10.1639 5.56496 10.164 5.56321C10.1657 5.51368 10.1666 5.4639 10.1666 5.4139C10.1666 3.97435 9.43652 2.70453 8.32522 1.95578C8.15102 3.62682 7.18025 5.06051 5.80113 5.8711Z" fill="currentColor"/>
</svg>
