<!-- Icon: Globe -->
<svg width="16" height="16" viewBox="0 0 16 16"  xmlns="http://www.w3.org/2000/svg" fill="currentColor" data-themable="true">
<path fill-rule="evenodd" clip-rule="evenodd" d="M8 3C7.62628 3 7.12457 3.35608 6.68742 4.31781C6.53113 4.66164 6.39537 5.05961 6.28673 5.5H9.71327C9.60463 5.05961 9.46887 4.66164 9.31258 4.31781C8.87543 3.35608 8.37372 3 8 3ZM5.77705 3.90401C5.56441 4.37182 5.38959 4.9107 5.25998 5.5H3.66891C4.20805 4.56799 5.03939 3.82616 6.03766 3.39978C5.94287 3.56117 5.85596 3.7304 5.77705 3.90401ZM5.09018 6.5H3.2289C3.08018 6.97352 3 7.4774 3 8C3 8.5226 3.08018 9.02648 3.2289 9.5H5.09018C5.03112 9.01933 5 8.51638 5 8C5 7.48362 5.03112 6.98067 5.09018 6.5ZM5.25998 10.5H3.66891C4.20805 11.432 5.03938 12.1738 6.03766 12.6002C5.94287 12.4388 5.85596 12.2696 5.77705 12.096C5.56441 11.6282 5.38959 11.0893 5.25998 10.5ZM6.28673 10.5H9.71327C9.60463 10.9404 9.46887 11.3384 9.31258 11.6822C8.87543 12.6439 8.37372 13 8 13C7.62628 13 7.12457 12.6439 6.68742 11.6822C6.53113 11.3384 6.39537 10.9404 6.28673 10.5ZM9.90159 9.5H6.09841C6.03472 9.02767 6 8.52427 6 8C6 7.47573 6.03472 6.97233 6.09841 6.5H9.90159C9.96528 6.97233 10 7.47573 10 8C10 8.52427 9.96528 9.02767 9.90159 9.5ZM10.74 10.5C10.6104 11.0893 10.4356 11.6282 10.2229 12.096C10.144 12.2696 10.0571 12.4388 9.96234 12.6002C10.9606 12.1738 11.792 11.432 12.3311 10.5H10.74ZM12.7711 9.5H10.9098C10.9689 9.01933 11 8.51638 11 8C11 7.48362 10.9689 6.98067 10.9098 6.5H12.7711C12.9198 6.97352 13 7.4774 13 8C13 8.5226 12.9198 9.02648 12.7711 9.5ZM9.96234 3.39978C10.9606 3.82616 11.792 4.56799 12.3311 5.5H10.74C10.6104 4.9107 10.4356 4.37182 10.2229 3.90401C10.144 3.7304 10.0571 3.56117 9.96234 3.39978ZM8 14C11.3137 14 14 11.3137 14 8C14 4.68629 11.3137 2 8 2C4.68629 2 2 4.68629 2 8C2 11.3137 4.68629 14 8 14Z" fill="currentColor"/>
</svg>
