<!-- Icon: Grid -->
<svg width="16" height="16" viewBox="0 0 16 16"  xmlns="http://www.w3.org/2000/svg" fill="currentColor" data-themable="true">
<path fill-rule="evenodd" clip-rule="evenodd" d="M3 1.5C2.17157 1.5 1.5 2.17157 1.5 3V6C1.5 6.82843 2.17157 7.5 3 7.5H6C6.82843 7.5 7.5 6.82843 7.5 6V3C7.5 2.17157 6.82843 1.5 6 1.5H3ZM2.5 3C2.5 2.72386 2.72386 2.5 3 2.5H6C6.27614 2.5 6.5 2.72386 6.5 3V6C6.5 6.27614 6.27614 6.5 6 6.5H3C2.72386 6.5 2.5 6.27614 2.5 6V3ZM3 8.5C2.17157 8.5 1.5 9.17157 1.5 10V13C1.5 13.8284 2.17157 14.5 3 14.5H6C6.82843 14.5 7.5 13.8284 7.5 13V10C7.5 9.17157 6.82843 8.5 6 8.5H3ZM2.5 10C2.5 9.72386 2.72386 9.5 3 9.5H6C6.27614 9.5 6.5 9.72386 6.5 10V13C6.5 13.2761 6.27614 13.5 6 13.5H3C2.72386 13.5 2.5 13.2761 2.5 13V10ZM8.5 3C8.5 2.17157 9.17157 1.5 10 1.5H13C13.8284 1.5 14.5 2.17157 14.5 3V6C14.5 6.82843 13.8284 7.5 13 7.5H10C9.17157 7.5 8.5 6.82843 8.5 6V3ZM10 2.5C9.72386 2.5 9.5 2.72386 9.5 3V6C9.5 6.27614 9.72386 6.5 10 6.5H13C13.2761 6.5 13.5 6.27614 13.5 6V3C13.5 2.72386 13.2761 2.5 13 2.5H10ZM10 8.5C9.17157 8.5 8.5 9.17157 8.5 10V13C8.5 13.8284 9.17157 14.5 10 14.5H13C13.8284 14.5 14.5 13.8284 14.5 13V10C14.5 9.17157 13.8284 8.5 13 8.5H10ZM9.5 10C9.5 9.72386 9.72386 9.5 10 9.5H13C13.2761 9.5 13.5 9.72386 13.5 10V13C13.5 13.2761 13.2761 13.5 13 13.5H10C9.72386 13.5 9.5 13.2761 9.5 13V10Z" fill="currentColor"/>
</svg>
