<!-- Icon: Grid-1 -->
<svg width="16" height="16" viewBox="0 0 16 16"  xmlns="http://www.w3.org/2000/svg" fill="currentColor" data-themable="true">
<path fill-rule="evenodd" clip-rule="evenodd" d="M1.5 3C1.5 2.17157 2.17157 1.5 3 1.5H6C6.82843 1.5 7.5 2.17157 7.5 3V13C7.5 13.8284 6.82843 14.5 6 14.5H3C2.17157 14.5 1.5 13.8284 1.5 13V3ZM3 2.5C2.72386 2.5 2.5 2.72386 2.5 3V13C2.5 13.2761 2.72386 13.5 3 13.5H6C6.27614 13.5 6.5 13.2761 6.5 13V3C6.5 2.72386 6.27614 2.5 6 2.5H3ZM8.5 3C8.5 2.17157 9.17157 1.5 10 1.5H13C13.8284 1.5 14.5 2.17157 14.5 3V6C14.5 6.82843 13.8284 7.5 13 7.5H10C9.17157 7.5 8.5 6.82843 8.5 6V3ZM10 2.5C9.72386 2.5 9.5 2.72386 9.5 3V6C9.5 6.27614 9.72386 6.5 10 6.5H13C13.2761 6.5 13.5 6.27614 13.5 6V3C13.5 2.72386 13.2761 2.5 13 2.5H10ZM10 8.5C9.17157 8.5 8.5 9.17157 8.5 10V13C8.5 13.8284 9.17157 14.5 10 14.5H13C13.8284 14.5 14.5 13.8284 14.5 13V10C14.5 9.17157 13.8284 8.5 13 8.5H10ZM9.5 10C9.5 9.72386 9.72386 9.5 10 9.5H13C13.2761 9.5 13.5 9.72386 13.5 10V13C13.5 13.2761 13.2761 13.5 13 13.5H10C9.72386 13.5 9.5 13.2761 9.5 13V10Z" fill="currentColor"/>
</svg>
