<!-- Icon: Grid-2 -->
<svg width="16" height="16" viewBox="0 0 16 16"  xmlns="http://www.w3.org/2000/svg" fill="currentColor" data-themable="true">
<path d="M13 8.5C13.8284 8.5 14.5 9.17157 14.5 10V12C14.5 12.8284 13.8284 13.5 13 13.5H3C2.17157 13.5 1.5 12.8284 1.5 12V10C1.5 9.17157 2.17157 8.5 3 8.5H13ZM3 9.5C2.72386 9.5 2.5 9.72386 2.5 10V12C2.5 12.2761 2.72386 12.5 3 12.5H13C13.2761 12.5 13.5 12.2761 13.5 12V10C13.5 9.72386 13.2761 9.5 13 9.5H3ZM13 2.5C13.8284 2.5 14.5 3.17157 14.5 4V6C14.5 6.82843 13.8284 7.5 13 7.5H3C2.17157 7.5 1.5 6.82843 1.5 6V4C1.5 3.17157 2.17157 2.5 3 2.5H13ZM3 3.5C2.72386 3.5 2.5 3.72386 2.5 4V6C2.5 6.27614 2.72386 6.5 3 6.5H13C13.2761 6.5 13.5 6.27614 13.5 6V4C13.5 3.72386 13.2761 3.5 13 3.5H3Z" fill="currentColor"/>
</svg>
