<!-- Icon: Home -->
<svg width="16" height="16" viewBox="0 0 16 16"  xmlns="http://www.w3.org/2000/svg" fill="currentColor" data-themable="true">
<path fill-rule="evenodd" clip-rule="evenodd" d="M5.74931 4.03963C4.66451 5.19689 3.56967 6.49473 3.10973 7.04733C3.03895 7.13237 3 7.23961 3 7.35696V12.1654C3 12.4091 3.17158 12.6036 3.39548 12.6361C3.80793 12.696 4.35456 12.768 4.98013 12.8321C5.25319 12.8601 5.5 12.6428 5.5 12.3486L5.5 9.49618C5.5 8.67044 6.16662 7.99973 6.99266 7.99536C7.5871 7.99221 8.34452 7.98753 8.9662 7.98153C9.80508 7.97343 10.5 8.65144 10.5 9.49612V12.3486C10.5 12.6428 10.7468 12.8601 11.0199 12.8321C11.6454 12.768 12.1921 12.696 12.6045 12.6361C12.8284 12.6036 13 12.4091 13 12.1654V7.35696C13 7.23961 12.9611 7.13237 12.8903 7.04733C12.4303 6.49473 11.3355 5.19689 10.2507 4.03963C9.70713 3.45977 9.17484 2.92465 8.73084 2.53772C8.50794 2.34347 8.31836 2.19636 8.16831 2.10066C8.0805 2.04465 8.02623 2.01948 8 2.00832C7.97377 2.01948 7.9195 2.04465 7.83169 2.10066C7.68164 2.19636 7.49206 2.34347 7.26916 2.53772C6.82516 2.92465 6.29287 3.45977 5.74931 4.03963ZM7.29392 1.25756C7.47803 1.14013 7.73485 1 8 1C8.26515 1 8.52197 1.14013 8.70608 1.25756C8.9159 1.3914 9.14783 1.57467 9.38783 1.78382C9.86964 2.20369 10.4288 2.7674 10.9803 3.35573C12.0856 4.53484 13.1954 5.85072 13.6589 6.4076C13.8834 6.67741 14 7.01263 14 7.35696V12.1654C14 12.8884 13.4809 13.5193 12.7482 13.6257C12.3245 13.6872 11.7638 13.7611 11.1218 13.8269C10.2397 13.9173 9.5 13.2156 9.5 12.3486V9.49612C9.5 9.21325 9.26446 8.9787 8.97585 8.98148C8.35194 8.98751 7.59277 8.99219 6.99796 8.99534C6.72243 8.9968 6.5 9.22034 6.5 9.49618L6.5 12.3486C6.49999 13.2156 5.76032 13.9173 4.87819 13.8269C4.23623 13.7611 3.67546 13.6872 3.25178 13.6257C2.51914 13.5193 2 12.8884 2 12.1654V7.35696C2 7.01263 2.11656 6.67741 2.34113 6.4076C2.80464 5.85072 3.91445 4.53484 5.01974 3.35573C5.57123 2.7674 6.13036 2.20369 6.61217 1.78382C6.85217 1.57467 7.0841 1.3914 7.29392 1.25756Z" fill="currentColor"/>
</svg>
