<!-- Icon: Hotspot -->
<svg width="16" height="16" viewBox="0 0 16 16"  xmlns="http://www.w3.org/2000/svg" fill="currentColor" data-themable="true">
<path fill-rule="evenodd" clip-rule="evenodd" d="M2 8C2 4.68629 4.68629 2 8 2C11.3137 2 14 4.68629 14 8C14 9.65331 13.332 11.1496 12.2499 12.2354C12.055 12.431 12.0555 12.7476 12.2511 12.9425C12.4467 13.1374 12.7633 13.1369 12.9582 12.9413C14.2194 11.6757 15 9.92855 15 8C15 4.13401 11.866 1 8 1C4.13401 1 1 4.13401 1 8C1 9.92855 1.78056 11.6757 3.0418 12.9413C3.23673 13.1369 3.55332 13.1374 3.74891 12.9425C3.9445 12.7476 3.94504 12.431 3.75011 12.2354C2.66804 11.1496 2 9.65331 2 8ZM8 4.5C6.067 4.5 4.5 6.067 4.5 8C4.5 9.04529 4.9576 9.98307 5.68504 10.6251C5.89208 10.8079 5.91178 11.1238 5.72904 11.3309C5.54631 11.5379 5.23034 11.5576 5.02331 11.3749C4.08991 10.551 3.5 9.3441 3.5 8C3.5 5.51472 5.51472 3.5 8 3.5C10.4853 3.5 12.5 5.51472 12.5 8C12.5 9.23354 12.003 10.352 11.1995 11.1644C11.0053 11.3607 10.6887 11.3624 10.4924 11.1682C10.2961 10.9741 10.2943 10.6575 10.4885 10.4612C11.1144 9.82836 11.5 8.9597 11.5 8C11.5 6.067 9.933 4.5 8 4.5ZM8 7C7.44772 7 7 7.44772 7 8C7 8.55228 7.44772 9 8 9C8.55228 9 9 8.55228 9 8C9 7.44772 8.55228 7 8 7ZM6 8C6 6.89543 6.89543 6 8 6C9.10457 6 10 6.89543 10 8C10 9.10457 9.10457 10 8 10C6.89543 10 6 9.10457 6 8Z" fill="currentColor"/>
</svg>
