<!-- Icon: Import -->
<svg width="16" height="16" viewBox="0 0 16 16"  xmlns="http://www.w3.org/2000/svg" fill="currentColor" data-themable="true">
<path fill-rule="evenodd" clip-rule="evenodd" d="M13.5 2C13.5 1.72386 13.2761 1.5 13 1.5C12.7238 1.5 12.5 1.72386 12.5 2V14C12.5 14.2761 12.7238 14.5 13 14.5C13.2761 14.5 13.5 14.2761 13.5 14V2ZM10.4999 6.95956C10.627 7.08665 10.7127 7.23944 10.7571 7.4012C10.8054 7.47813 10.8333 7.56915 10.8333 7.66669C10.8333 7.76424 10.8054 7.85527 10.7571 7.93221C10.7127 8.09394 10.627 8.2467 10.4999 8.37377L7.1868 11.6869C6.99154 11.8821 6.67495 11.8821 6.47969 11.6869C6.28443 11.4916 6.28443 11.175 6.47969 10.9798L9.29279 8.16669H3C2.72386 8.16669 2.5 7.94283 2.5 7.66669C2.5 7.39054 2.72386 7.16669 3 7.16669H9.29283L6.47969 4.35355C6.28443 4.15829 6.28443 3.84171 6.47969 3.64645C6.67495 3.45118 6.99154 3.45118 7.1868 3.64645L10.4999 6.95956Z" fill="currentColor"/>
</svg>
