<!-- Icon: Inbox -->
<svg width="16" height="16" viewBox="0 0 16 16"  xmlns="http://www.w3.org/2000/svg" fill="currentColor" data-themable="true">
<path fill-rule="evenodd" clip-rule="evenodd" d="M8 2.5C6.29669 2.5 5.27339 2.67945 4.73186 2.82082C4.54896 2.86856 4.38805 3.02864 4.31644 3.29553L2.65183 9.5H5.15879C5.91548 9.5 6.62167 9.87973 7.03892 10.511C7.5346 11.2608 8.63508 11.2608 9.13075 10.511C9.54801 9.87973 10.2542 9.5 11.0109 9.5H13.3482L11.6836 3.29553C11.612 3.02864 11.451 2.86856 11.2681 2.82082C10.7266 2.67945 9.70331 2.5 8 2.5ZM2.5 12.2027V10.5H5.15879C5.57973 10.5 5.97258 10.7112 6.2047 11.0624C7.09572 12.4104 9.07396 12.4104 9.96497 11.0624C10.1971 10.7112 10.5899 10.5 11.0109 10.5H13.5V12.2027C13.5 12.6887 13.1559 13.0867 12.6961 13.1495C11.5552 13.3054 9.77408 13.5 8 13.5C6.22592 13.5 4.44479 13.3054 3.30387 13.1495C2.84415 13.0867 2.5 12.6887 2.5 12.2027ZM14.5 10.1977C14.5 10.1538 14.4986 10.1099 14.4957 10.0661C14.4985 10.0445 14.5 10.0224 14.5 10C14.5 9.93171 14.4863 9.86663 14.4615 9.80733C14.453 9.76443 14.443 9.72178 14.4317 9.67947L12.6494 3.0364C12.5084 2.51076 12.1318 2.01275 11.5207 1.85324C10.8823 1.68658 9.77221 1.5 8 1.5C6.22779 1.5 5.11771 1.68658 4.47928 1.85324C3.86823 2.01275 3.49163 2.51076 3.3506 3.0364L1.56831 9.67947C1.52297 9.84849 1.5 10.0227 1.5 10.1977V12.2027C1.5 13.1665 2.19169 14.0068 3.16848 14.1403C4.33053 14.2991 6.16174 14.5 8 14.5C9.83826 14.5 11.6695 14.2991 12.8315 14.1403C13.8083 14.0068 14.5 13.1665 14.5 12.2027V10.1977ZM4.5 7.5C4.22386 7.5 4 7.72386 4 8C4 8.27614 4.22386 8.5 4.5 8.5H11.5C11.7761 8.5 12 8.27614 12 8C12 7.72386 11.7761 7.5 11.5 7.5H4.5ZM4.5 6C4.5 5.72386 4.72386 5.5 5 5.5H11C11.2761 5.5 11.5 5.72386 11.5 6C11.5 6.27614 11.2761 6.5 11 6.5H5C4.72386 6.5 4.5 6.27614 4.5 6ZM5.5 3.5C5.22386 3.5 5 3.72386 5 4C5 4.27614 5.22386 4.5 5.5 4.5H10.5C10.7761 4.5 11 4.27614 11 4C11 3.72386 10.7761 3.5 10.5 3.5H5.5Z" fill="currentColor"/>
</svg>
