<!-- Icon: Info -->
<svg width="16" height="16" viewBox="0 0 16 16"  xmlns="http://www.w3.org/2000/svg" fill="currentColor" data-themable="true">
<path fill-rule="evenodd" clip-rule="evenodd" d="M8 2.5C4.96243 2.5 2.5 4.96243 2.5 8C2.5 11.0376 4.96243 13.5 8 13.5C11.0376 13.5 13.5 11.0376 13.5 8C13.5 4.96243 11.0376 2.5 8 2.5ZM1.5 8C1.5 4.41015 4.41015 1.5 8 1.5C11.5899 1.5 14.5 4.41015 14.5 8C14.5 11.5899 11.5899 14.5 8 14.5C4.41015 14.5 1.5 11.5899 1.5 8ZM8 7.29749C8.27614 7.29749 8.5 7.52134 8.5 7.79749V11.4873C8.5 11.7635 8.27614 11.9873 8 11.9873C7.72386 11.9873 7.5 11.7635 7.5 11.4873V7.79749C7.5 7.52134 7.72386 7.29749 8 7.29749ZM8 6C8.34518 6 8.625 5.72018 8.625 5.375C8.625 5.02982 8.34518 4.75 8 4.75C7.65482 4.75 7.375 5.02982 7.375 5.375C7.375 5.72018 7.65482 6 8 6Z" fill="currentColor"/>
</svg>
