<!-- Icon: Link -->
<svg width="16" height="16" viewBox="0 0 16 16"  xmlns="http://www.w3.org/2000/svg" fill="currentColor" data-themable="true">
<path fill-rule="evenodd" clip-rule="evenodd" d="M13.1053 2.89805C11.8045 1.59724 9.69548 1.59726 8.39468 2.89808L7.52638 3.7664C7.33112 3.96167 7.33112 4.27825 7.52639 4.47351C7.72165 4.66877 8.03824 4.66877 8.2335 4.4735L9.1018 3.60518C10.0121 2.69489 11.4879 2.69488 12.3982 3.60516C13.3074 4.51433 13.3086 5.98799 12.401 6.89872L11.5258 7.77701C11.3308 7.97261 11.3314 8.28919 11.527 8.48411C11.7226 8.67904 12.0392 8.6785 12.2341 8.4829L13.1094 7.60461C14.4063 6.30316 14.4045 4.19727 13.1053 2.89805ZM4.47348 8.2335C4.66874 8.03824 4.66875 7.72165 4.47349 7.52639C4.27823 7.33113 3.96164 7.33112 3.76638 7.52639L2.89629 8.39646C1.59643 9.6963 1.59642 11.8038 2.89627 13.1036C4.19613 14.4035 6.30362 14.4035 7.60345 13.1036L8.47349 12.2335C8.66875 12.0382 8.66874 11.7217 8.47348 11.5264C8.27821 11.3311 7.96163 11.3311 7.76637 11.5264L6.89633 12.3965C5.98702 13.3058 4.5127 13.3058 3.60337 12.3965C2.69405 11.4872 2.69406 10.0129 3.60339 9.10358L4.47348 8.2335ZM10.1972 6.50964C10.3925 6.31438 10.3925 5.99779 10.1972 5.80253C10.0019 5.60727 9.68534 5.60727 9.49008 5.80253L5.49008 9.80253C5.29482 9.99779 5.29482 10.3144 5.49008 10.5096C5.68534 10.7049 6.00193 10.7049 6.19719 10.5096L10.1972 6.50964Z" fill="currentColor"/>
</svg>
