<!-- Icon: List -->
<svg width="16" height="16" viewBox="0 0 16 16"  xmlns="http://www.w3.org/2000/svg" fill="currentColor" data-themable="true">
<path fill-rule="evenodd" clip-rule="evenodd" d="M2.75 4.75C3.16421 4.75 3.5 4.41421 3.5 4C3.5 3.58579 3.16421 3.25 2.75 3.25C2.33579 3.25 2 3.58579 2 4C2 4.41421 2.33579 4.75 2.75 4.75ZM5.5 3.5C5.22386 3.5 5 3.72386 5 4C5 4.27614 5.22386 4.5 5.5 4.5H13C13.2761 4.5 13.5 4.27614 13.5 4C13.5 3.72386 13.2761 3.5 13 3.5H5.5ZM5.5 7.5C5.22386 7.5 5 7.72386 5 8C5 8.27614 5.22386 8.5 5.5 8.5H13C13.2761 8.5 13.5 8.27614 13.5 8C13.5 7.72386 13.2761 7.5 13 7.5H5.5ZM5 12C5 11.7239 5.22386 11.5 5.5 11.5H13C13.2761 11.5 13.5 11.7239 13.5 12C13.5 12.2761 13.2761 12.5 13 12.5H5.5C5.22386 12.5 5 12.2761 5 12ZM3.5 8C3.5 8.41421 3.16421 8.75 2.75 8.75C2.33579 8.75 2 8.41421 2 8C2 7.58579 2.33579 7.25 2.75 7.25C3.16421 7.25 3.5 7.58579 3.5 8ZM2.75 12.75C3.16421 12.75 3.5 12.4142 3.5 12C3.5 11.5858 3.16421 11.25 2.75 11.25C2.33579 11.25 2 11.5858 2 12C2 12.4142 2.33579 12.75 2.75 12.75Z" fill="currentColor"/>
</svg>
