<!-- Icon: Location -->
<svg width="16" height="16" viewBox="0 0 16 16"  xmlns="http://www.w3.org/2000/svg" fill="currentColor" data-themable="true">
<path fill-rule="evenodd" clip-rule="evenodd" d="M4.81476 3.79462C5.658 2.96671 6.8036 2.5 8 2.5C9.1964 2.5 10.342 2.96671 11.1852 3.79462C12.0282 4.62222 12.5 5.74272 12.5 6.90909C12.5 8.10426 11.9452 9.279 11.1705 10.329C10.3997 11.3736 9.44619 12.2473 8.73055 12.8298C8.29772 13.1821 7.70228 13.1821 7.26945 12.8298C6.55381 12.2473 5.60029 11.3736 4.82952 10.329C4.05478 9.279 3.5 8.10426 3.5 6.90909C3.5 5.74272 3.97183 4.62222 4.81476 3.79462ZM8 1.5C6.54424 1.5 5.1463 2.0677 4.11417 3.08106C3.08173 4.09472 2.5 5.47152 2.5 6.90909C2.5 8.40724 3.18917 9.79012 4.02485 10.9227C4.86451 12.0607 5.88789 12.9946 6.63815 13.6054C7.43864 14.257 8.56136 14.257 9.36185 13.6054C10.1121 12.9946 11.1355 12.0607 11.9751 10.9227C12.8108 9.79012 13.5 8.40724 13.5 6.90909C13.5 5.47152 12.9183 4.09472 11.8858 3.08106C10.8537 2.0677 9.45576 1.5 8 1.5ZM6.5 7C6.5 6.17157 7.17157 5.5 8 5.5C8.82843 5.5 9.5 6.17157 9.5 7C9.5 7.82843 8.82843 8.5 8 8.5C7.17157 8.5 6.5 7.82843 6.5 7ZM8 4.5C6.61929 4.5 5.5 5.61929 5.5 7C5.5 8.38071 6.61929 9.5 8 9.5C9.38071 9.5 10.5 8.38071 10.5 7C10.5 5.61929 9.38071 4.5 8 4.5Z" fill="currentColor"/>
</svg>
