<!-- Icon: Lock -->
<svg width="16" height="16" viewBox="0 0 16 16"  xmlns="http://www.w3.org/2000/svg" fill="currentColor" data-themable="true">
<path fill-rule="evenodd" clip-rule="evenodd" d="M4.8335 5.5C4.8335 3.84315 6.17664 2.5 7.8335 2.5C9.49035 2.5 10.8335 3.84315 10.8335 5.5V7.11022C11.1594 7.13364 11.4618 7.15863 11.7318 7.1829C12.7512 7.27452 13.5 8.13505 13.5 9.13937V12.8606C13.5 13.8649 12.7512 14.7255 11.7318 14.8171C10.766 14.9039 9.38521 15 8 15C6.61479 15 5.23398 14.9039 4.26822 14.8171C3.24876 14.7255 2.5 13.8649 2.5 12.8606V9.13937C2.5 8.13506 3.24875 7.27452 4.26822 7.1829C4.44376 7.16712 4.633 7.15104 4.8335 7.13528V5.5ZM5.8335 7.06695C6.51185 7.02778 7.25529 7 8 7C8.62461 7 9.24833 7.01954 9.8335 7.04895V5.5C9.8335 4.39543 8.93807 3.5 7.8335 3.5C6.72893 3.5 5.8335 4.39543 5.8335 5.5V7.06695ZM8 10.5C7.72386 10.5 7.5 10.7239 7.5 11C7.5 11.2761 7.72386 11.5 8 11.5C8.27614 11.5 8.5 11.2761 8.5 11C8.5 10.7239 8.27614 10.5 8 10.5ZM6.5 11C6.5 10.1716 7.17157 9.5 8 9.5C8.82843 9.5 9.5 10.1716 9.5 11C9.5 11.8284 8.82843 12.5 8 12.5C7.17157 12.5 6.5 11.8284 6.5 11ZM4.35774 8.17888C5.30802 8.09347 6.65622 8 8 8C9.34378 8 10.692 8.09347 11.6423 8.17888C12.1271 8.22246 12.5 8.63328 12.5 9.13937V12.8606C12.5 13.3667 12.1271 13.7775 11.6423 13.8211C10.692 13.9065 9.34378 14 8 14C6.65622 14 5.30802 13.9065 4.35774 13.8211C3.87286 13.7775 3.5 13.3667 3.5 12.8606V9.13937C3.5 8.63328 3.87286 8.22246 4.35774 8.17888Z" fill="currentColor"/>
</svg>
