<!-- Icon: Magic -->
<svg width="16" height="16" viewBox="0 0 16 16"  xmlns="http://www.w3.org/2000/svg" fill="currentColor" data-themable="true">
<path fill-rule="evenodd" clip-rule="evenodd" d="M10.4084 3.78615C10.49 3.54181 10.7193 3.32983 11.032 3.32983C11.3152 3.32983 11.6095 3.51205 11.6723 3.84947C11.921 5.03822 12.8455 5.96925 14.0331 6.21676C14.37 6.27915 14.5533 6.57264 14.5533 6.85684C14.5533 7.14119 14.3698 7.43423 14.0336 7.49682C12.851 7.74541 11.9169 8.67121 11.671 9.85905C11.667 9.87834 11.6619 9.89738 11.6556 9.91607C11.574 10.1604 11.3447 10.3724 11.032 10.3724C10.749 10.3724 10.4548 10.1904 10.3918 9.85329C10.143 8.67416 9.21598 7.74129 8.02467 7.49562C8.00544 7.49165 7.98645 7.48656 7.96782 7.48036C7.72414 7.39929 7.51074 7.17061 7.51074 6.85684C7.51074 6.5725 7.69421 6.27946 8.03039 6.21687C9.2107 5.96872 10.1467 5.03333 10.393 3.84317C10.397 3.82388 10.4022 3.80484 10.4084 3.78615ZM11.0314 5.03055C10.638 5.81977 9.99626 6.46199 9.20995 6.85562C9.99961 7.2485 10.6392 7.88988 11.0315 8.67533C11.4248 7.88715 12.0669 7.24893 12.8528 6.85732C12.0628 6.46363 11.4233 5.82046 11.0314 5.03055Z" fill="currentColor"/>
<path fill-rule="evenodd" clip-rule="evenodd" d="M5.19051 8.91428C5.25222 8.61146 5.51399 8.4303 5.78586 8.4303C6.05712 8.4303 6.31976 8.61099 6.38132 8.91481C6.38143 8.91536 6.38154 8.91591 6.38165 8.91646L5.89135 9.01448L6.3812 8.91426C6.38124 8.91444 6.38128 8.91463 6.38132 8.91481C6.55236 9.74973 7.20079 10.3958 8.02752 10.5659L7.92679 11.0556L8.02502 10.5654C8.32759 10.626 8.51117 10.8869 8.51117 11.1609C8.51117 11.4336 8.3289 11.6948 8.0266 11.7561C8.02691 11.756 8.02723 11.7559 8.02754 11.7559L7.9268 11.2662L8.02436 11.7565C8.02511 11.7564 8.02585 11.7562 8.0266 11.7561C7.1991 11.9267 6.55131 12.5738 6.381 13.3979L5.89135 13.2967L6.38152 13.3954C6.32037 13.6992 6.05818 13.8809 5.78586 13.8809C5.51476 13.8809 5.25228 13.7005 5.19052 13.397C5.19058 13.3973 5.19065 13.3976 5.19072 13.3979L5.68036 13.2967L5.19007 13.3948C5.19021 13.3955 5.19036 13.3962 5.19052 13.397C5.01979 12.573 4.3718 11.9261 3.5442 11.7559L3.64493 11.2661L3.5467 11.7564C3.24413 11.6957 3.06055 11.4349 3.06055 11.1609C3.06055 10.8881 3.24282 10.6269 3.54514 10.5657C3.54483 10.5657 3.54451 10.5658 3.54419 10.5659L3.64493 11.0556L3.54736 10.5652C3.54662 10.5654 3.54588 10.5655 3.54514 10.5657C4.37159 10.3953 5.01974 9.74913 5.19051 8.91428ZM5.19051 8.91428C5.1904 8.91479 5.1903 8.91529 5.1902 8.9158L5.68036 9.01448L5.19051 8.91428ZM5.78587 10.1012C5.52443 10.5354 5.16104 10.8992 4.72837 11.1607C5.16096 11.4219 5.52437 11.7847 5.78585 12.2167C6.04734 11.7847 6.41077 11.4219 6.84336 11.1608C6.41068 10.8992 6.0473 10.5354 5.78587 10.1012Z" fill="currentColor"/>
<path fill-rule="evenodd" clip-rule="evenodd" d="M3.66836 3.19755C3.73732 2.86769 4.03939 2.7218 4.26611 2.7218C4.49338 2.7218 4.79723 2.86863 4.86464 3.20128C4.99958 3.76256 5.43779 4.20278 6.00698 4.3457C6.3358 4.41413 6.4834 4.71477 6.4834 4.94329C6.4834 5.23908 6.28177 5.45209 6.05713 5.52687C6.04325 5.53149 6.02919 5.5355 6.01496 5.53888C5.45822 5.67139 4.99996 6.12181 4.86442 6.67797C4.79653 7.0097 4.49345 7.15637 4.26611 7.15637C3.97176 7.15637 3.75794 6.95653 3.68249 6.731C3.67827 6.71837 3.67455 6.70557 3.67134 6.69265C3.53132 6.1276 3.07885 5.67661 2.52708 5.54125C2.19697 5.47355 2.04883 5.17222 2.04883 4.94329C2.04883 4.64749 2.25046 4.43448 2.4751 4.3597C2.4881 4.35537 2.50128 4.35158 2.51459 4.34833C3.08485 4.2093 3.52412 3.76941 3.66836 3.19755ZM4.26419 4.27355C4.08472 4.53635 3.85809 4.76377 3.5952 4.94383C3.85667 5.12397 4.08393 5.35177 4.2642 5.61401C4.44476 5.35132 4.67323 5.12368 4.93531 4.94382C4.67182 4.76404 4.44398 4.53679 4.26419 4.27355Z" fill="currentColor"/>
</svg>
