<!-- Icon: Mediapacks -->
<svg width="16" height="16" viewBox="0 0 16 16"  xmlns="http://www.w3.org/2000/svg" fill="currentColor" data-themable="true">
<path fill-rule="evenodd" clip-rule="evenodd" d="M5.49992 3C5.49992 2.17157 6.1715 1.5 6.99992 1.5H12.9999C13.8284 1.5 14.4999 2.17157 14.4999 3V11C14.4999 11.8284 13.8284 12.5 12.9999 12.5H6.99992C6.1715 12.5 5.49992 11.8284 5.49992 11V3ZM6.99992 2.5C6.72378 2.5 6.49992 2.72386 6.49992 3V11C6.49992 11.2761 6.72378 11.5 6.99992 11.5H12.9999C13.2761 11.5 13.4999 11.2761 13.4999 11V3C13.4999 2.72386 13.2761 2.5 12.9999 2.5H6.99992ZM9.476 4.99569C9.476 4.75659 9.66983 4.56276 9.90893 4.56276C10.148 4.56276 10.3419 4.75659 10.3419 4.99569C10.3419 5.23479 10.148 5.42862 9.90893 5.42862C9.66983 5.42862 9.476 5.23479 9.476 4.99569ZM9.90893 3.56276C9.11754 3.56276 8.476 4.2043 8.476 4.99569C8.476 5.78708 9.11754 6.42862 9.90893 6.42862C10.7003 6.42862 11.3419 5.78708 11.3419 4.99569C11.3419 4.2043 10.7003 3.56276 9.90893 3.56276ZM8.51897 9.35129C8.51897 8.50313 9.14281 7.83852 9.90894 7.83852C10.6751 7.83852 11.2989 8.50313 11.2989 9.35129V9.3684C10.9461 9.40032 10.4262 9.43722 9.90894 9.43722C9.39172 9.43722 8.8718 9.40032 8.51897 9.3684V9.35129ZM9.90894 6.83852C8.51028 6.83852 7.51897 8.03466 7.51897 9.35129V9.78419C7.51897 10.0463 7.71186 10.2865 7.99463 10.3198C8.17714 10.3412 9.03974 10.4372 9.90894 10.4372C10.7781 10.4372 11.6407 10.3412 11.8232 10.3198C12.106 10.2865 12.2989 10.0463 12.2989 9.78419V9.35129C12.2989 8.03466 11.3076 6.83852 9.90894 6.83852ZM2.74177 5.90706C2.6703 5.64033 2.8286 5.36616 3.09533 5.29469L4.06125 5.03587C4.32799 4.9644 4.48628 4.69023 4.41481 4.4235C4.34334 4.15677 4.06917 3.99848 3.80243 4.06995L2.83651 4.32877C2.03631 4.54318 1.56144 5.36569 1.77585 6.16588L3.8464 13.8933C4.06081 14.6935 4.88332 15.1684 5.68352 14.954L8.5813 14.1775C8.84803 14.106 9.00632 13.8319 8.93485 13.5651C8.86338 13.2984 8.58921 13.1401 8.32248 13.2116L5.4247 13.988C5.15797 14.0595 4.8838 13.9012 4.81233 13.6345L2.74177 5.90706Z" fill="currentColor"/>
</svg>
