<!-- Icon: Move -->
<svg width="16" height="16" viewBox="0 0 16 16"  xmlns="http://www.w3.org/2000/svg" fill="currentColor" data-themable="true">
<path fill-rule="evenodd" clip-rule="evenodd" d="M8.37389 2C7.98337 1.60948 7.35021 1.60948 6.95968 2L5.64657 3.31311C5.45131 3.50838 5.45131 3.82496 5.64657 4.02022C5.84183 4.21548 6.15841 4.21548 6.35368 4.02022L7.16675 3.20715V7.33333H3.04054L4.02031 6.35356C4.21557 6.1583 4.21557 5.84171 4.02031 5.64645C3.82505 5.45119 3.50846 5.45119 3.3132 5.64645L1.83342 7.12623C1.4429 7.51676 1.4429 8.14992 1.83342 8.54045L3.3132 10.0202C3.50846 10.2155 3.82505 10.2155 4.02031 10.0202C4.21557 9.82496 4.21557 9.50838 4.02031 9.31312L3.04052 8.33333H7.16675V12.4595L6.35372 11.6465C6.15845 11.4512 5.84187 11.4512 5.64661 11.6465C5.45135 11.8417 5.45135 12.1583 5.64661 12.3536L6.95972 13.6667C7.35025 14.0572 7.98341 14.0572 8.37394 13.6667L9.68705 12.3536C9.88231 12.1583 9.88231 11.8417 9.68705 11.6465C9.49179 11.4512 9.17521 11.4512 8.97994 11.6465L8.16675 12.4596V8.33333H12.293L11.3132 9.31311C11.1179 9.50838 11.1179 9.82496 11.3132 10.0202C11.5085 10.2155 11.825 10.2155 12.0203 10.0202L13.5001 8.54044C13.8906 8.14992 13.8906 7.51675 13.5001 7.12623L12.0203 5.64645C11.825 5.45118 11.5085 5.45118 11.3132 5.64645C11.1179 5.84171 11.1179 6.15829 11.3132 6.35355L12.293 7.33333H8.16675V3.20707L8.9799 4.02022C9.17516 4.21548 9.49175 4.21548 9.68701 4.02022C9.88227 3.82496 9.88227 3.50838 9.68701 3.31311L8.37389 2Z" fill="currentColor"/>
</svg>
