<!-- Icon: Open -->
<svg width="16" height="16" viewBox="0 0 16 16"  xmlns="http://www.w3.org/2000/svg" fill="currentColor" data-themable="true">
<path fill-rule="evenodd" clip-rule="evenodd" d="M9.5 1.5C9.22386 1.5 9 1.72386 9 2C9 2.27614 9.22386 2.5 9.5 2.5H12.7929L7.37521 7.91768C7.17995 8.11294 7.17995 8.42953 7.37521 8.62479C7.57047 8.82005 7.88706 8.82005 8.08232 8.62479L13.5 3.20711V6.5C13.5 6.77614 13.7239 7 14 7C14.2761 7 14.5 6.77614 14.5 6.5V2.75C14.5 2.05964 13.9404 1.5 13.25 1.5H9.5ZM7 4.5C5.66961 4.5 4.33058 4.67685 3.47087 4.81907C3.10741 4.87919 2.83341 5.15475 2.7772 5.51268C2.65105 6.31603 2.5 7.57625 2.5 9C2.5 10.4237 2.65105 11.684 2.7772 12.4873C2.83341 12.8453 3.10741 13.1208 3.47087 13.1809C4.33058 13.3231 5.66961 13.5 7 13.5C8.33039 13.5 9.66942 13.3231 10.5291 13.1809C10.8926 13.1208 11.1666 12.8453 11.2228 12.4873C11.3489 11.684 11.5 10.4237 11.5 9C11.5 8.72386 11.7239 8.5 12 8.5C12.2761 8.5 12.5 8.72386 12.5 9C12.5 10.4906 12.3422 11.805 12.2107 12.6424C12.0867 13.4323 11.4752 14.038 10.6923 14.1675C9.80754 14.3139 8.40809 14.5 7 14.5C5.59191 14.5 4.19246 14.3139 3.30767 14.1675C2.52481 14.038 1.91335 13.4323 1.78931 12.6424C1.6578 11.805 1.5 10.4906 1.5 9C1.5 7.5094 1.6578 6.19502 1.78931 5.35755C1.91335 4.56767 2.52481 3.96198 3.30767 3.83248C4.19246 3.68611 5.59191 3.5 7 3.5C7.27614 3.5 7.5 3.72386 7.5 4C7.5 4.27614 7.27614 4.5 7 4.5Z" fill="currentColor"/>
</svg>
