<!-- Icon: Person -->
<svg width="16" height="16" viewBox="0 0 16 16"  xmlns="http://www.w3.org/2000/svg" fill="currentColor" data-themable="true">
<path fill-rule="evenodd" clip-rule="evenodd" d="M6.5 4.5C6.5 3.67157 7.17157 3 8 3C8.82843 3 9.5 3.67157 9.5 4.5C9.5 5.32843 8.82843 6 8 6C7.17157 6 6.5 5.32843 6.5 4.5ZM8 2C6.61929 2 5.5 3.11929 5.5 4.5C5.5 5.88071 6.61929 7 8 7C9.38071 7 10.5 5.88071 10.5 4.5C10.5 3.11929 9.38071 2 8 2ZM4.5 12.7599C4.5 10.7033 6.02545 9 8 9C9.97455 9 11.5 10.7033 11.5 12.7599V13.3028C10.8086 13.3747 9.40218 13.5 8 13.5C6.59782 13.5 5.19138 13.3747 4.5 13.3028V12.7599ZM12.5 12.7599C12.5 10.2349 10.6071 8 8 8C5.39292 8 3.5 10.2349 3.5 12.7599V13.6761C3.5 13.9605 3.7088 14.2194 4.01369 14.2552C4.39389 14.3 6.19364 14.5 8 14.5C9.80636 14.5 11.6061 14.3 11.9863 14.2552C12.2912 14.2194 12.5 13.9605 12.5 13.6761V12.7599Z" fill="currentColor"/>
</svg>
