<!-- Icon: Persons -->
<svg width="16" height="16" viewBox="0 0 16 16"  xmlns="http://www.w3.org/2000/svg" fill="currentColor" data-themable="true">
<path fill-rule="evenodd" clip-rule="evenodd" d="M4.4502 4.52344C4.4502 3.84603 4.99935 3.29688 5.67676 3.29688C6.35417 3.29688 6.90332 3.84603 6.90332 4.52344C6.90332 5.20085 6.35417 5.75 5.67676 5.75C4.99935 5.75 4.4502 5.20085 4.4502 4.52344ZM5.67676 2.29688C4.44706 2.29688 3.4502 3.29374 3.4502 4.52344C3.4502 5.75313 4.44706 6.75 5.67676 6.75C6.90645 6.75 7.90332 5.75313 7.90332 4.52344C7.90332 3.29374 6.90645 2.29688 5.67676 2.29688ZM10.4116 4.92725C10.4116 4.47285 10.78 4.10449 11.2344 4.10449C11.6888 4.10449 12.0571 4.47285 12.0571 4.92725C12.0571 5.38164 11.6888 5.75 11.2344 5.75C10.78 5.75 10.4116 5.38164 10.4116 4.92725ZM11.2344 3.10449C10.2277 3.10449 9.41162 3.92057 9.41162 4.92725C9.41162 5.93393 10.2277 6.75 11.2344 6.75C12.2411 6.75 13.0571 5.93393 13.0571 4.92725C13.0571 3.92057 12.2411 3.10449 11.2344 3.10449ZM5.67685 8.75C3.93658 8.75 2.58594 10.2519 2.58594 12.0742V12.5155C3.22041 12.5805 4.45065 12.6875 5.67685 12.6875C6.90304 12.6875 8.13328 12.5805 8.76776 12.5155V12.0742C8.76776 10.2519 7.41711 8.75 5.67685 8.75ZM9.71376 11.3734C10.1611 11.406 10.6984 11.4336 11.2344 11.4336C12.0751 11.4336 12.9194 11.3657 13.4141 11.3173V11.1028C13.4141 9.8024 12.4528 8.74902 11.2344 8.74902C10.3753 8.74902 9.64407 9.2727 9.28747 10.0374C9.49523 10.4516 9.64072 10.9026 9.71376 11.3734ZM8.66903 9.11668C7.9399 8.28559 6.89459 7.75 5.67685 7.75C3.30406 7.75 1.58594 9.78347 1.58594 12.0742V12.8967C1.58594 13.1768 1.79166 13.4321 2.09226 13.4674C2.43413 13.5076 4.05218 13.6875 5.67685 13.6875C7.30151 13.6875 8.91957 13.5076 9.26144 13.4674C9.56204 13.4321 9.76776 13.1768 9.76776 12.8967V12.3797C10.2082 12.4097 10.7207 12.4336 11.2344 12.4336C12.4543 12.4336 13.6677 12.2987 13.9242 12.2685C14.2152 12.2343 14.4141 11.9871 14.4141 11.7166V11.1028C14.4141 9.33392 13.0853 7.74902 11.2344 7.74902C10.1422 7.74902 9.23188 8.30084 8.66903 9.11668Z" fill="currentColor"/>
</svg>
