<!-- Icon: PersonAdd -->
<svg width="16" height="16" viewBox="0 0 16 16"  xmlns="http://www.w3.org/2000/svg" fill="currentColor" data-themable="true">
<path fill-rule="evenodd" clip-rule="evenodd" d="M5.5 4.5C5.5 3.11929 6.61929 2 8 2C9.38071 2 10.5 3.11929 10.5 4.5C10.5 5.88071 9.38071 7 8 7C6.61929 7 5.5 5.88071 5.5 4.5ZM8 3C7.17157 3 6.5 3.67157 6.5 4.5C6.5 5.32843 7.17157 6 8 6C8.82843 6 9.5 5.32843 9.5 4.5C9.5 3.67157 8.82843 3 8 3Z" fill="currentColor"/>
<path d="M4.5 12.7599C4.5 10.7033 6.02545 9 8 9C8.63374 9 9.22122 9.17546 9.72684 9.48175C10.0672 9.28139 10.4443 9.13694 10.8458 9.06104C10.0863 8.40339 9.10762 8 8 8C5.39292 8 3.5 10.2349 3.5 12.7599V13.6761C3.5 13.9605 3.7088 14.2194 4.01369 14.2552C4.39389 14.3 6.19364 14.5 8 14.5C8.2082 14.5 8.41632 14.4973 8.62218 14.4926C8.41392 14.1924 8.25143 13.858 8.14481 13.4996C8.09655 13.4999 8.04827 13.5 8 13.5C6.59782 13.5 5.19138 13.3747 4.5 13.3028V12.7599Z" fill="currentColor"/>
<path d="M11.75 10.5C11.75 10.2239 11.5261 10 11.25 10C10.9739 10 10.75 10.2239 10.75 10.5V11.75H9.5C9.22386 11.75 9 11.9739 9 12.25C9 12.5261 9.22386 12.75 9.5 12.75H10.75V14C10.75 14.2761 10.9739 14.5 11.25 14.5C11.5261 14.5 11.75 14.2761 11.75 14V12.75H13C13.2761 12.75 13.5 12.5261 13.5 12.25C13.5 11.9739 13.2761 11.75 13 11.75H11.75V10.5Z" fill="currentColor"/>
<path fill-rule="evenodd" clip-rule="evenodd" d="M5.5 4.5C5.5 3.11929 6.61929 2 8 2C9.38071 2 10.5 3.11929 10.5 4.5C10.5 5.88071 9.38071 7 8 7C6.61929 7 5.5 5.88071 5.5 4.5ZM8 3C7.17157 3 6.5 3.67157 6.5 4.5C6.5 5.32843 7.17157 6 8 6C8.82843 6 9.5 5.32843 9.5 4.5C9.5 3.67157 8.82843 3 8 3Z" fill="currentColor"/>
<path d="M4.5 12.7599C4.5 10.7033 6.02545 9 8 9C8.63374 9 9.22122 9.17546 9.72684 9.48175C10.0672 9.28139 10.4443 9.13694 10.8458 9.06104C10.0863 8.40339 9.10762 8 8 8C5.39292 8 3.5 10.2349 3.5 12.7599V13.6761C3.5 13.9605 3.7088 14.2194 4.01369 14.2552C4.39389 14.3 6.19364 14.5 8 14.5C8.2082 14.5 8.41632 14.4973 8.62218 14.4926C8.41392 14.1924 8.25143 13.858 8.14481 13.4996C8.09655 13.4999 8.04827 13.5 8 13.5C6.59782 13.5 5.19138 13.3747 4.5 13.3028V12.7599Z" fill="currentColor"/>
<path d="M11.75 10.5C11.75 10.2239 11.5261 10 11.25 10C10.9739 10 10.75 10.2239 10.75 10.5V11.75H9.5C9.22386 11.75 9 11.9739 9 12.25C9 12.5261 9.22386 12.75 9.5 12.75H10.75V14C10.75 14.2761 10.9739 14.5 11.25 14.5C11.5261 14.5 11.75 14.2761 11.75 14V12.75H13C13.2761 12.75 13.5 12.5261 13.5 12.25C13.5 11.9739 13.2761 11.75 13 11.75H11.75V10.5Z" fill="currentColor"/>
</svg>
