<!-- Icon: PersonChange -->
<svg width="16" height="16" viewBox="0 0 16 16"  xmlns="http://www.w3.org/2000/svg" fill="currentColor" data-themable="true">
<path fill-rule="evenodd" clip-rule="evenodd" d="M6.5 2C5.67157 2 5 2.67157 5 3.5C5 4.32843 5.67157 5 6.5 5C7.32843 5 8 4.32843 8 3.5C8 2.67157 7.32843 2 6.5 2ZM4 3.5C4 2.11929 5.11929 1 6.5 1C7.88071 1 9 2.11929 9 3.5C9 4.88071 7.88071 6 6.5 6C5.11929 6 4 4.88071 4 3.5Z" fill="currentColor"/>
<path d="M3 11.7599C3 9.70333 4.52545 8 6.5 8C6.51674 8 6.53346 8.00012 6.55013 8.00037C6.90801 7.64957 7.3409 7.37502 7.82251 7.203C7.40896 7.07137 6.96588 7 6.5 7C3.89292 7 2 9.23486 2 11.7599V12.6761C2 12.9605 2.2088 13.2194 2.51369 13.2552C2.89389 13.3 4.69364 13.5 6.5 13.5C6.72825 13.5 6.95639 13.4968 7.18158 13.4911C6.76405 13.2368 6.40397 12.8974 6.12535 12.4971C4.85271 12.4781 3.62974 12.3683 3 12.3028V11.7599Z" fill="currentColor"/>
<path fill-rule="evenodd" clip-rule="evenodd" d="M8.64655 8.14645C8.84181 8.34171 8.84181 8.65829 8.64655 8.85355L8.0001 9.5H10.793C11.0691 9.5 11.293 9.72386 11.293 10C11.293 10.2761 11.0691 10.5 10.793 10.5H8.0001L8.64655 11.1464C8.84181 11.3417 8.84181 11.6583 8.64655 11.8536C8.45129 12.0488 8.1347 12.0488 7.93944 11.8536L6.79299 10.7071C6.59792 10.512 6.50005 10.2553 6.5 10.0001C6.49995 9.74497 6.59765 9.48824 6.79279 9.2931L7.93944 8.14645C8.1347 7.95118 8.45129 7.95118 8.64655 8.14645Z" fill="currentColor"/>
<path fill-rule="evenodd" clip-rule="evenodd" d="M11.9394 11.1464C12.1347 10.9512 12.4513 10.9512 12.6465 11.1464L13.793 12.2929C13.988 12.488 14.0859 12.7447 14.086 12.9999C14.086 13.255 13.9883 13.5118 13.7932 13.7069L12.6465 14.8536C12.4513 15.0488 12.1347 15.0488 11.9394 14.8536C11.7442 14.6583 11.7442 14.3417 11.9394 14.1464L12.5859 13.5H9.79297C9.51683 13.5 9.29297 13.2761 9.29297 13C9.29297 12.7239 9.51683 12.5 9.79297 12.5H12.5859L11.9394 11.8536C11.7442 11.6583 11.7442 11.3417 11.9394 11.1464Z" fill="currentColor"/>
</svg>
