<!-- Icon: PersonSettings -->
<svg width="16" height="16" viewBox="0 0 16 16"  xmlns="http://www.w3.org/2000/svg" fill="currentColor" data-themable="true">
<path fill-rule="evenodd" clip-rule="evenodd" d="M7 3C6.17157 3 5.5 3.67157 5.5 4.5C5.5 5.32843 6.17157 6 7 6C7.82843 6 8.5 5.32843 8.5 4.5C8.5 3.67157 7.82843 3 7 3ZM4.5 4.5C4.5 3.11929 5.61929 2 7 2C8.38071 2 9.5 3.11929 9.5 4.5C9.5 5.88071 8.38071 7 7 7C5.61929 7 4.5 5.88071 4.5 4.5ZM13.6088 13.8249C13.5335 13.6377 13.5685 13.4271 13.6703 13.253C13.7029 13.1966 13.7324 13.1386 13.7603 13.08C13.7778 13.042 13.8045 13.009 13.838 12.984C13.8716 12.959 13.9108 12.9427 13.9522 12.9367L14.7036 12.8293C14.743 12.8226 14.7788 12.8022 14.8045 12.7716C14.8302 12.7411 14.8443 12.7024 14.8442 12.6624L14.8436 11.3269C14.8431 11.2871 14.8285 11.2488 14.8026 11.2187C14.7766 11.1886 14.7408 11.1686 14.7015 11.1623L13.9529 11.0561C13.9119 11.0503 13.8729 11.0343 13.8395 11.0097C13.8062 10.985 13.7795 10.9524 13.7618 10.9149C13.7069 10.7974 13.6426 10.6844 13.5696 10.5772C13.5462 10.5431 13.5315 10.5037 13.5269 10.4626C13.5223 10.4215 13.528 10.3799 13.5433 10.3415L13.826 9.64191C13.8384 9.60447 13.8377 9.5639 13.824 9.52691C13.8103 9.48991 13.7844 9.45868 13.7506 9.43836L12.5931 8.77008C12.558 8.75076 12.5172 8.74426 12.4778 8.75167C12.4383 8.75908 12.4027 8.77996 12.377 8.81073L11.9118 9.40618C11.8866 9.43844 11.8539 9.46402 11.8166 9.48065C11.7792 9.49728 11.7384 9.50446 11.6976 9.50155C11.5679 9.49217 11.4377 9.49264 11.3081 9.50296C11.2666 9.50649 11.2249 9.49968 11.1867 9.48313C11.1485 9.46658 11.115 9.44081 11.0892 9.40812L10.6229 8.81269C10.5977 8.78185 10.5625 8.76087 10.5234 8.75345C10.4843 8.74604 10.4439 8.75265 10.4092 8.77214L9.25232 9.43934C9.21793 9.4591 9.19159 9.49033 9.17791 9.52756C9.16423 9.56479 9.16409 9.60565 9.17752 9.64297L9.45992 10.3473C9.47538 10.3858 9.48103 10.4275 9.47636 10.4687C9.47169 10.5099 9.45684 10.5493 9.43315 10.5833C9.39626 10.6357 9.36139 10.6895 9.32881 10.7459C9.29624 10.8023 9.26671 10.8604 9.23901 10.9196C9.22162 10.9576 9.19502 10.9906 9.16164 11.0157C9.12825 11.0408 9.08913 11.0571 9.04782 11.0632L8.2964 11.1707C8.257 11.1774 8.22124 11.1978 8.1955 11.2284C8.16975 11.2589 8.1557 11.2976 8.15582 11.3376L8.15645 12.6731C8.15695 12.7128 8.17147 12.7512 8.19745 12.7813C8.22343 12.8114 8.2592 12.8314 8.29847 12.8377L9.04708 12.9439C9.08814 12.9497 9.12711 12.9657 9.16047 12.9903C9.19384 13.015 9.22054 13.0475 9.23818 13.0851C9.29311 13.2026 9.35738 13.3156 9.43037 13.4228C9.45383 13.4569 9.46851 13.4962 9.4731 13.5374C9.47769 13.5785 9.47205 13.6201 9.45668 13.6585L9.17402 14.3581C9.16158 14.3955 9.16227 14.4361 9.17597 14.4731C9.18967 14.5101 9.21556 14.5413 9.24938 14.5616L10.4069 15.2299C10.442 15.2492 10.4828 15.2557 10.5222 15.2483C10.5617 15.2409 10.5973 15.22 10.623 15.1893L11.0882 14.5938C11.1134 14.5615 11.1461 14.536 11.1834 14.5193C11.2208 14.5027 11.2616 14.4955 11.3024 14.4984C11.4321 14.5078 11.5623 14.5073 11.6919 14.497C11.7334 14.4935 11.7751 14.5003 11.8133 14.5169C11.8515 14.5334 11.885 14.5592 11.9108 14.5919L12.3771 15.1873C12.4023 15.2181 12.4375 15.2391 12.4766 15.2465C12.5157 15.254 12.5561 15.2473 12.5908 15.2278L13.7477 14.5606C13.7823 14.5408 13.8088 14.5092 13.8224 14.4716C13.836 14.4341 13.8358 14.3929 13.8219 14.3554L13.6088 13.8249ZM11.0134 11.9792C11.0134 11.703 11.2372 11.4792 11.5134 11.4792C11.7895 11.4792 12.0134 11.703 12.0134 11.9792C12.0134 12.2553 11.7895 12.4792 11.5134 12.4792C11.2372 12.4792 11.0134 12.2553 11.0134 11.9792ZM3.5 12.7599C3.5 10.7033 5.02545 9 7 9C7.38842 9 7.75946 9.06591 8.10493 9.18746L8.1005 9.18465C8.33854 9.23731 8.58562 9.11611 8.67996 8.88683C8.78066 8.64207 8.67104 8.36233 8.4346 8.24293L8.43551 8.24072C7.99002 8.08505 7.5086 8 7 8C4.39292 8 2.5 10.2349 2.5 12.7599V13.6761C2.5 13.9605 2.7088 14.2194 3.01369 14.2552C3.39389 14.3 5.19364 14.5 7 14.5C7.24038 14.5 7.48031 14.4965 7.71645 14.4902C7.74924 14.4894 7.73797 14.4885 7.72608 14.4875C7.7139 14.4865 7.70108 14.4855 7.73438 14.4844C8.00944 14.4844 8.23242 14.2614 8.23242 13.9863C8.23242 13.7187 8.02131 13.5004 7.75653 13.4888L7.69012 13.4906C7.46175 13.4966 7.23065 13.5 7 13.5C5.59782 13.5 4.19138 13.3747 3.5 13.3028V12.7599Z" fill="currentColor"/>
</svg>
