<!-- Icon: Pictures -->
<svg width="16" height="16" viewBox="0 0 16 16"  xmlns="http://www.w3.org/2000/svg" fill="currentColor" data-themable="true">
<path fill-rule="evenodd" clip-rule="evenodd" d="M4.53355 3.74469C5.56352 3.63127 7.08456 3.5 8.60007 3.5C10.1156 3.5 11.6366 3.63127 12.6666 3.74469C13.1401 3.79683 13.5001 4.20183 13.5001 4.69894V10.2836L11.5641 8.07102C10.9524 7.37195 9.96614 7.13505 9.10368 7.48004C8.62543 7.67134 8.07839 7.53295 7.74863 7.13724L7.6368 7.00305C6.72222 5.90555 5.06269 5.83028 4.0525 6.84046L3.70007 7.19289V4.69894C3.70007 4.20183 4.06001 3.79683 4.53355 3.74469ZM3.70007 8.6071L4.75961 7.54757C5.35399 6.95318 6.33045 6.99748 6.86858 7.64323L6.98041 7.77743C7.58749 8.50593 8.59461 8.7607 9.47507 8.40851C9.94355 8.22113 10.4793 8.3498 10.8115 8.72952L12.9523 11.1761C12.8638 11.2169 12.7678 11.2442 12.6666 11.2553C11.6366 11.3687 10.1156 11.5 8.60007 11.5C7.08456 11.5 5.56352 11.3687 4.53355 11.2553C4.06001 11.2032 3.70007 10.7982 3.70007 10.3011V8.6071ZM2.70007 8.4V4.69894C2.70007 3.71275 3.42324 2.8609 4.4241 2.75069C5.47219 2.63528 7.03337 2.5 8.60007 2.5C10.1668 2.5 11.728 2.63528 12.776 2.75069C13.7769 2.8609 14.5001 3.71275 14.5001 4.69894V10.3011C14.5001 11.2873 13.7769 12.1391 12.776 12.2493C11.728 12.3647 10.1668 12.5 8.60007 12.5C7.03337 12.5 5.47219 12.3647 4.4241 12.2493C3.42324 12.1391 2.70007 11.2873 2.70007 10.3011V8.4ZM11.8751 5.7C11.8751 6.11421 11.5393 6.45 11.1251 6.45C10.7109 6.45 10.3751 6.11421 10.3751 5.7C10.3751 5.28578 10.7109 4.95 11.1251 4.95C11.5393 4.95 11.8751 5.28578 11.8751 5.7ZM1.69119 5.51445C1.69121 5.23831 1.46738 5.01443 1.19124 5.0144C0.915093 5.01438 0.691214 5.23821 0.691188 5.51436V6.10922C0.691221 6.32851 0.690879 6.54303 0.690546 6.75273L0.690546 6.75276L0.690546 6.75277C0.68891 7.78086 0.687459 8.6931 0.731114 9.48356C0.716909 10.7854 0.991221 11.8621 1.6312 12.6819C2.27638 13.5085 3.23882 14.0046 4.45698 14.249C4.93854 14.3456 5.44765 14.35 5.96751 14.3545H5.96762C6.13986 14.356 6.31329 14.3575 6.48728 14.3624L6.50127 14.3626L6.82372 14.3626C9.11092 14.3628 9.3682 14.3628 11.1871 14.2579C11.3043 14.2512 11.4849 14.2379 11.6329 14.2266C11.7076 14.2209 11.7752 14.2156 11.8241 14.2117L11.9032 14.2054C12.1785 14.1832 12.384 13.9421 12.3618 13.6668C12.3396 13.3916 12.0985 13.1864 11.8232 13.2087L11.7453 13.2149C11.697 13.2187 11.6304 13.2239 11.5568 13.2295C11.4081 13.2409 11.2362 13.2534 11.1295 13.2596C9.33936 13.3628 9.10291 13.3628 6.82758 13.3626L6.50822 13.3626C6.2824 13.3563 6.07953 13.3545 5.89293 13.3528H5.8929C5.4092 13.3484 5.03486 13.345 4.65369 13.2685C3.58919 13.055 2.87364 12.6484 2.41948 12.0666C1.96297 11.4818 1.71617 10.6503 1.73124 9.47904L1.73146 9.46179L1.73049 9.44457C1.68764 8.68172 1.68898 7.7994 1.69056 6.7639V6.76389C1.69089 6.55212 1.69122 6.33395 1.69119 6.10907V5.51445Z" fill="currentColor"/>
</svg>
