<!-- Icon: Picture -->
<svg width="16" height="16" viewBox="0 0 16 16"  xmlns="http://www.w3.org/2000/svg" fill="currentColor" data-themable="true">
<path fill-rule="evenodd" clip-rule="evenodd" d="M8 3.5C6.24266 3.5 4.47956 3.65856 3.33538 3.78784C2.86036 3.84152 2.5 4.24787 2.5 4.74439V7.79289L3.09784 7.19505C4.13734 6.15555 5.84503 6.23301 6.78616 7.36236L7.01128 7.6325C7.39308 8.09066 8.02646 8.25089 8.5802 8.0294C9.5166 7.65484 10.5874 7.91205 11.2516 8.67105L13.5 11.2407V4.74439C13.5 4.24787 13.1396 3.84152 12.6646 3.78784C11.5204 3.65856 9.75734 3.5 8 3.5ZM1.5 11.2556V9.00008V8.99991V4.74439C1.5 3.75762 2.2242 2.90704 3.2231 2.79417C4.38519 2.66286 6.18971 2.5 8 2.5C9.81029 2.5 11.6148 2.66286 12.7769 2.79417C13.7758 2.90704 14.5 3.75762 14.5 4.74439V11.2556C14.5 12.2424 13.7758 13.093 12.7769 13.2058C11.6148 13.3371 9.81029 13.5 8 13.5C6.18971 13.5 4.38519 13.3371 3.2231 13.2058C2.2242 13.093 1.5 12.2424 1.5 11.2556ZM3.80494 7.90216L2.5 9.2071V11.2556C2.5 11.7521 2.86036 12.1585 3.33538 12.2122C4.47956 12.3414 6.24266 12.5 8 12.5C9.75734 12.5 11.5204 12.3414 12.6646 12.2122C12.7661 12.2007 12.8624 12.1731 12.9511 12.132L10.499 9.32955C10.1143 8.8899 9.494 8.74091 8.95159 8.95788C7.99564 9.34026 6.90219 9.06364 6.24306 8.27269L6.01794 8.00254C5.45326 7.32493 4.42864 7.27846 3.80494 7.90216ZM10.75 6.5C11.1642 6.5 11.5 6.16421 11.5 5.75C11.5 5.33579 11.1642 5 10.75 5C10.3358 5 10 5.33579 10 5.75C10 6.16421 10.3358 6.5 10.75 6.5Z" fill="currentColor"/>
</svg>
