<!-- Icon: Pin -->
<svg width="16" height="16" viewBox="0 0 16 16"  xmlns="http://www.w3.org/2000/svg" fill="currentColor" data-themable="true">
<path fill-rule="evenodd" clip-rule="evenodd" d="M2.92665 7.66228C2.73979 7.69 2.5845 7.82066 2.52525 8.00003C2.46599 8.17939 2.51289 8.37684 2.64646 8.51042L4.76808 10.632C4.763 10.6367 4.758 10.6415 4.75307 10.6465L2.76777 12.6317C2.57251 12.827 2.57251 13.1436 2.76777 13.3389C2.96304 13.5341 3.27962 13.5341 3.47488 13.3389L5.46018 11.3536C5.46511 11.3486 5.46991 11.3436 5.47459 11.3385L7.59621 13.4602C7.72978 13.5937 7.92723 13.6406 8.1066 13.5814C8.28597 13.5221 8.41663 13.3668 8.44435 13.18L8.87275 10.2919C8.87801 10.2565 8.90614 10.2288 8.94169 10.2241C9.79763 10.1114 10.6213 9.82405 11.3616 9.37986L12.7656 8.53746C13.6024 8.03539 13.7446 6.8806 13.0545 6.19056L9.91607 3.0521C9.22603 2.36207 8.07124 2.50423 7.56917 3.34102L6.72676 4.74503C6.28258 5.48533 5.99522 6.309 5.8825 7.16494C5.87782 7.20049 5.85015 7.22862 5.81468 7.23388L2.92665 7.66228ZM7.60092 12.0507L4.05596 8.5057L5.96141 8.22306C6.43856 8.15228 6.81097 7.77374 6.87395 7.2955C6.96878 6.57536 7.21055 5.88237 7.58426 5.25952L8.42666 3.85552C8.59402 3.57659 8.97895 3.5292 9.20896 3.75921L12.3474 6.89767C12.5774 7.12768 12.53 7.51261 12.2511 7.67997L10.8471 8.52237C10.2243 8.89608 9.53127 9.13785 8.81113 9.23268C8.33289 9.29566 7.95435 9.66806 7.88357 10.1452L7.60092 12.0507Z" fill="currentColor"/>
</svg>
