<!-- Icon: PromoteActive -->
<svg width="16" height="16" viewBox="0 0 16 16"  xmlns="http://www.w3.org/2000/svg" fill="currentColor" data-themable="true">
<path fill-rule="evenodd" clip-rule="evenodd" d="M10.957 1.5C10.957 1.22386 10.7332 1 10.457 1C10.1809 1 9.95705 1.22386 9.95705 1.5V2.91421C9.95705 3.19036 10.1809 3.41421 10.457 3.41421C10.7332 3.41421 10.957 3.19036 10.957 2.91421V1.5ZM13.3106 3.06066C13.5058 2.8654 13.5058 2.54882 13.3106 2.35355C13.1153 2.15829 12.7987 2.15829 12.6035 2.35355L11.6035 3.35355C11.4082 3.54882 11.4082 3.8654 11.6035 4.06066C11.7987 4.25592 12.1153 4.25592 12.3106 4.06066L13.3106 3.06066ZM7.84942 3.98106C7.61792 3.74956 7.23009 3.79931 7.06452 4.08175L2.72323 11.4875C2.60816 11.6838 2.64013 11.933 2.80102 12.0939L3.60955 12.9024C3.77044 13.0633 4.01967 13.0953 4.21597 12.9802L11.6217 8.63893C11.9041 8.47336 11.9539 8.08553 11.7224 7.85403L7.84942 3.98106ZM6.20182 3.57603C6.69853 2.72871 7.86202 2.57944 8.55653 3.27395L12.4295 7.14692C13.124 7.84143 12.9747 9.00492 12.1274 9.50163L10.1743 10.6466C10.9429 11.5305 10.9067 12.8714 10.0658 13.7123L9.88903 13.889C8.91272 14.8653 7.3298 14.8653 6.35349 13.889L5.72137 13.2569L4.72169 13.8429C4.13281 14.1881 3.38512 14.0922 2.90244 13.6095L2.09391 12.801C1.61124 12.3183 1.51532 11.5706 1.86053 10.9818L6.20182 3.57603ZM6.61294 12.7343L9.28764 11.1663L9.3587 11.2374C9.84685 11.7255 9.84685 12.517 9.3587 13.0051L9.18192 13.1819C8.59613 13.7677 7.64639 13.7677 7.0606 13.1819L6.61294 12.7343ZM14.6641 5.20706C14.6641 5.4832 14.4403 5.70706 14.1641 5.70706H12.7499C12.4738 5.70706 12.2499 5.4832 12.2499 5.20706C12.2499 4.93092 12.4738 4.70706 12.7499 4.70706H14.1641C14.4403 4.70706 14.6641 4.93092 14.6641 5.20706Z" fill="currentColor"/>
</svg>
