<!-- Icon: Promote -->
<svg width="16" height="16" viewBox="0 0 16 16"  xmlns="http://www.w3.org/2000/svg" fill="currentColor" data-themable="true">
<path fill-rule="evenodd" clip-rule="evenodd" d="M12.3738 3.81053C12.6906 3.72789 13 3.96695 13 4.29434V10.7057C13 11.0331 12.6906 11.2721 12.3738 11.1895L2.87379 8.71122C2.65362 8.65378 2.5 8.45494 2.5 8.22741V6.7726C2.5 6.54507 2.65362 6.34623 2.87379 6.28879L12.3738 3.81053ZM14 4.29434C14 3.31216 13.0717 2.59499 12.1214 2.84291L2.62137 5.32117C1.96087 5.49348 1.5 6.09 1.5 6.7726V8.22741C1.5 8.91001 1.96087 9.50653 2.62137 9.67883L4.5 10.1689V11C4.5 12.3807 5.61929 13.5 7 13.5H7.25C8.41825 13.5 9.37855 12.6096 9.48934 11.4705L12.1214 12.1571C13.0717 12.405 14 11.6878 14 10.7057V4.29434ZM8.5 11.2124L5.5 10.4298V11C5.5 11.8284 6.17157 12.5 7 12.5H7.25C7.94036 12.5 8.5 11.9404 8.5 11.25V11.2124Z" fill="currentColor"/>
</svg>
