<!-- Icon: Question -->
<svg width="16" height="16" viewBox="0 0 16 16"  xmlns="http://www.w3.org/2000/svg" fill="currentColor" data-themable="true">
<path fill-rule="evenodd" clip-rule="evenodd" d="M2.5 8C2.5 4.96243 4.96243 2.5 8 2.5C11.0376 2.5 13.5 4.96243 13.5 8C13.5 11.0376 11.0376 13.5 8 13.5C4.96243 13.5 2.5 11.0376 2.5 8ZM8 1.5C4.41015 1.5 1.5 4.41015 1.5 8C1.5 11.5899 4.41015 14.5 8 14.5C11.5899 14.5 14.5 11.5899 14.5 8C14.5 4.41015 11.5899 1.5 8 1.5ZM6.20526 5.44092C6.02655 5.7251 5.93719 6.00635 5.93719 6.28467C5.93719 6.41943 5.99286 6.54541 6.10419 6.6626C6.21844 6.77686 6.3576 6.83398 6.52167 6.83398C6.79999 6.83398 6.98895 6.66846 7.08856 6.3374C7.19403 6.021 7.32294 5.78223 7.47528 5.62109C7.62762 5.45703 7.86493 5.375 8.18719 5.375C8.46259 5.375 8.68671 5.45557 8.85956 5.6167C9.03534 5.77783 9.12323 5.97559 9.12323 6.20996C9.12323 6.33008 9.09393 6.44141 9.03534 6.54395C8.97968 6.64648 8.90936 6.74023 8.8244 6.8252C8.74237 6.90723 8.6076 7.03027 8.4201 7.19434C8.20624 7.38184 8.03632 7.54443 7.91034 7.68213C7.78436 7.81689 7.68329 7.9751 7.60712 8.15674C7.53094 8.33545 7.49286 8.54785 7.49286 8.79395C7.49286 8.99023 7.54413 9.13818 7.64667 9.23779C7.75214 9.3374 7.88104 9.38721 8.03339 9.38721C8.32635 9.38721 8.50067 9.23486 8.55634 8.93018C8.58856 8.78662 8.612 8.68701 8.62665 8.63135C8.64423 8.57275 8.66766 8.51562 8.69696 8.45996C8.72626 8.40137 8.7702 8.33838 8.8288 8.271C8.89032 8.20068 8.97089 8.12012 9.0705 8.0293C9.43085 7.70703 9.67987 7.47852 9.81757 7.34375C9.95819 7.20605 10.0783 7.04346 10.1779 6.85596C10.2805 6.66846 10.3317 6.4502 10.3317 6.20117C10.3317 5.88477 10.2424 5.5918 10.0637 5.32227C9.88788 5.05273 9.63739 4.84033 9.31219 4.68506C8.987 4.52686 8.612 4.44775 8.18719 4.44775C7.73016 4.44775 7.33026 4.5415 6.98749 4.729C6.64471 4.9165 6.38397 5.15381 6.20526 5.44092ZM7.61151 10.9297C7.74628 11.0439 7.90302 11.1011 8.08173 11.1011C8.25458 11.1011 8.40692 11.0425 8.53876 10.9253C8.67059 10.8081 8.73651 10.647 8.73651 10.4419C8.73651 10.2573 8.67352 10.1021 8.54755 9.97607C8.42157 9.8501 8.2663 9.78711 8.08173 9.78711C7.89423 9.78711 7.73602 9.8501 7.60712 9.97607C7.47821 10.1021 7.41376 10.2573 7.41376 10.4419C7.41376 10.6499 7.47968 10.8125 7.61151 10.9297Z" fill="currentColor"/>
</svg>
