<!-- Icon: Reach -->
<svg width="16" height="16" viewBox="0 0 16 16"  xmlns="http://www.w3.org/2000/svg" fill="currentColor" data-themable="true">
<g clip-path="url(#clip0_1_16318)">
<path fill-rule="evenodd" clip-rule="evenodd" d="M7.29297 15.1666C7.68351 15.5572 8.31671 15.5571 8.70723 15.1666L9.62433 14.2493C9.81958 14.0541 9.81956 13.7375 9.62428 13.5422C9.42901 13.347 9.11242 13.347 8.91717 13.5423L8.50037 13.9591V12C8.50037 11.7239 8.27651 11.5 8.00037 11.5C7.72422 11.5 7.50037 11.7239 7.50037 12V13.9598L7.08282 13.5423C6.88756 13.347 6.57098 13.347 6.37571 13.5423C6.18045 13.7375 6.18045 14.0541 6.37571 14.2494L7.29297 15.1666ZM7.08307 2.70773L7.49988 2.29086V4.25C7.49988 4.52614 7.72374 4.75 7.99988 4.75C8.27602 4.75 8.49988 4.52614 8.49988 4.25V2.2902L8.91742 2.70775C9.11269 2.90301 9.42927 2.90301 9.62453 2.70775C9.81979 2.51249 9.81979 2.1959 9.62453 2.00064L8.70728 1.08339C8.31673 0.692846 7.68353 0.692869 7.29302 1.08344L6.37591 2.00067C6.18067 2.19594 6.18069 2.51253 6.37596 2.70777C6.57124 2.90302 6.88782 2.903 7.08307 2.70773ZM14.9166 8.70716C15.3071 8.31661 15.3071 7.68341 14.9165 7.29289L13.9993 6.37579C13.804 6.18054 13.4874 6.18057 13.2922 6.37584C13.0969 6.57112 13.097 6.8877 13.2922 7.08295L13.7092 7.49985H11.75C11.4739 7.49985 11.25 7.72371 11.25 7.99985C11.25 8.27599 11.4739 8.49985 11.75 8.49985H13.7097L13.2922 8.9173C13.097 9.11256 13.097 9.42915 13.2922 9.62441C13.4875 9.81967 13.8041 9.81967 13.9993 9.62441L14.9166 8.70716ZM0.833299 7.2929C0.442755 7.68345 0.442778 8.31665 0.833347 8.70717L1.75058 9.62427C1.94585 9.81952 2.26243 9.8195 2.45768 9.62422C2.65293 9.42894 2.65291 9.11236 2.45763 8.91711L2.04071 8.50024H4C4.27614 8.50024 4.5 8.27639 4.5 8.00024C4.5 7.7241 4.27614 7.50024 4 7.50024H2.04017L2.45766 7.08276C2.65292 6.8875 2.65292 6.57091 2.45766 6.37565C2.2624 6.18039 1.94581 6.18039 1.75055 6.37565L0.833299 7.2929ZM13.3908 3.60925C13.3908 3.05694 12.943 2.60921 12.3907 2.60925L11.0936 2.60934C10.8175 2.60936 10.5937 2.83323 10.5937 3.10938C10.5937 3.38552 10.8176 3.60936 11.0937 3.60934L11.6833 3.6093L10.298 4.99464C10.1027 5.1899 10.1027 5.50649 10.298 5.70175C10.4933 5.89701 10.8098 5.89701 11.0051 5.70175L12.3908 4.31607L12.3908 4.90644C12.3908 5.18258 12.6146 5.40644 12.8908 5.40644C13.1669 5.40644 13.3908 5.18259 13.3908 4.90644L13.3908 3.60925ZM2.43246 12.5675C2.43246 13.1198 2.88022 13.5676 3.43253 13.5675L4.7296 13.5674C5.00574 13.5674 5.22958 13.3436 5.22957 13.0674C5.22955 12.7913 5.00567 12.5674 4.72953 12.5674L4.13988 12.5675L5.52525 11.1821C5.72051 10.9869 5.72051 10.6703 5.52525 10.475C5.32999 10.2797 5.01341 10.2797 4.81814 10.475L3.43246 11.8607V11.2703C3.43246 10.9942 3.20861 10.7703 2.93246 10.7703C2.65632 10.7703 2.43246 10.9942 2.43246 11.2703L2.43246 12.5675ZM12.3908 13.3908C12.9431 13.3908 13.3908 12.943 13.3908 12.3907L13.3907 11.0936C13.3907 10.8175 13.1668 10.5937 12.8907 10.5937C12.6145 10.5937 12.3907 10.8176 12.3907 11.0937L12.3908 11.6833L11.0054 10.298C10.8101 10.1027 10.4935 10.1027 10.2983 10.298C10.103 10.4932 10.103 10.8098 10.2983 11.0051L11.684 12.3908L11.0936 12.3908C10.8175 12.3908 10.5936 12.6146 10.5936 12.8908C10.5936 13.1669 10.8175 13.3908 11.0936 13.3908L12.3908 13.3908ZM3.43243 2.43243C2.88012 2.43243 2.43239 2.88019 2.43243 3.4325L2.43252 4.72957C2.43254 5.00571 2.65641 5.22955 2.93256 5.22954C3.2087 5.22952 3.43254 5.00564 3.43252 4.7295L3.43248 4.13991L4.81785 5.52528C5.01312 5.72054 5.3297 5.72054 5.52496 5.52528C5.72022 5.33002 5.72022 5.01344 5.52496 4.81817L4.13922 3.43243H4.72962C5.00577 3.43243 5.22962 3.20858 5.22962 2.93243C5.22962 2.65629 5.00577 2.43243 4.72962 2.43243L3.43243 2.43243ZM7.03442 7.99997C7.03442 7.4667 7.46673 7.03439 8 7.03439C8.53327 7.03439 8.96558 7.4667 8.96558 7.99997C8.96558 8.53324 8.53327 8.96555 8 8.96555C7.46673 8.96555 7.03442 8.53324 7.03442 7.99997ZM8 6.03439C6.91444 6.03439 6.03442 6.91441 6.03442 7.99997C6.03442 9.08553 6.91444 9.96555 8 9.96555C9.08556 9.96555 9.96558 9.08553 9.96558 7.99997C9.96558 6.91441 9.08556 6.03439 8 6.03439Z" fill="currentColor"/>
</g>
<defs>
<clipPath id="clip0_1_16318">
<rect width="16" height="16" fill="white" transform="matrix(-1 0 0 -1 16 16)"/>
</clipPath>
</defs>
</svg>
