<!-- Icon: Reel -->
<svg width="16" height="16" viewBox="0 0 16 16"  xmlns="http://www.w3.org/2000/svg" fill="currentColor" data-themable="true">
<path fill-rule="evenodd" clip-rule="evenodd" d="M4.5 4.13168C5.54931 4.0588 6.7755 4 8 4C9.2245 4 10.4507 4.0588 11.5 4.13168V11.8683C10.4507 11.9412 9.2245 12 8 12C6.7755 12 5.54931 11.9412 4.5 11.8683V4.13168ZM12.5 5.5V4.20897C12.9122 4.24402 13.2755 4.27885 13.5733 4.30928C13.8136 4.33383 14 4.53756 14 4.79111V5.5H12.5ZM12.5 7.5V6.5H14V7.5H12.5ZM12.5 9.5V8.5H14V9.5H12.5ZM12.5 11.791V10.5H14V11.2089C14 11.4624 13.8136 11.6662 13.5733 11.6907C13.2755 11.7211 12.9122 11.756 12.5 11.791ZM3.5 4.20897C3.0878 4.24402 2.72447 4.27885 2.42666 4.30928C2.18635 4.33383 2 4.53756 2 4.79111V5.5H3.5V4.20897ZM2 7.5V6.5H3.5V7.5H2ZM2 8.5V9.5H3.5V8.5H2ZM2 11.2089V10.5H3.5V11.791C3.0878 11.756 2.72447 11.7211 2.42666 11.6907C2.18635 11.6662 2 11.4624 2 11.2089ZM8 3C5.75541 3 3.51625 3.19275 2.32502 3.31446C1.56256 3.39236 1 4.03666 1 4.79111V11.2089C1 11.9633 1.56256 12.6076 2.32502 12.6855C3.51625 12.8073 5.75541 13 8 13C10.2446 13 12.4837 12.8073 13.675 12.6855C14.4374 12.6076 15 11.9633 15 11.2089V4.79111C15 4.03666 14.4374 3.39236 13.675 3.31446C12.4837 3.19275 10.2446 3 8 3ZM6.84809 5.93301C6.51475 5.74056 6.09809 5.98112 6.09809 6.36602V9.83012C6.09809 10.215 6.51475 10.4556 6.84809 10.2631L9.84809 8.53109C10.1814 8.33864 10.1814 7.85751 9.84809 7.66506L6.84809 5.93301Z" fill="currentColor"/>
</svg>
