<!-- Icon: Refresh -->
<svg width="16" height="16" viewBox="0 0 16 16"  xmlns="http://www.w3.org/2000/svg" fill="currentColor" data-themable="true">
<path fill-rule="evenodd" clip-rule="evenodd" d="M11.8 3.851C11.943 4.38446 11.6264 4.9328 11.0929 5.07574L9.34428 5.54428C9.07755 5.61576 8.80338 5.45746 8.73191 5.19073C8.66044 4.924 8.81873 4.64983 9.08546 4.57836L10.3554 4.23807C9.33825 3.61377 8.07753 3.39319 6.83478 3.72618C4.43309 4.36971 3.00782 6.83835 3.65135 9.24004C3.72282 9.50677 3.56453 9.78094 3.2978 9.85241C3.03106 9.92388 2.7569 9.76559 2.68543 9.49886C1.89895 6.5637 3.6408 3.54673 6.57596 2.76026C7.98247 2.38338 9.40772 2.58738 10.5968 3.22417L10.3655 2.36119C10.2941 2.09446 10.4524 1.82029 10.7191 1.74882C10.9858 1.67735 11.26 1.83564 11.3315 2.10237L11.8 3.851ZM4.02169 12.149C3.87875 11.6155 4.19533 11.0672 4.7288 10.9242L6.47742 10.4557C6.74415 10.3842 7.01832 10.5425 7.08979 10.8093C7.16126 11.076 7.00297 11.3502 6.73624 11.4216L5.43025 11.7716C6.48141 12.5015 7.83363 12.7803 9.16521 12.4235C11.5669 11.7799 12.9922 9.3113 12.3486 6.90961C12.2772 6.64288 12.4355 6.36871 12.7022 6.29724C12.9689 6.22577 13.2431 6.38406 13.3146 6.65079C14.101 9.58594 12.3592 12.6029 9.42403 13.3894C7.95287 13.7836 6.4612 13.5423 5.24076 12.8349L5.45616 13.6388C5.52763 13.9055 5.36934 14.1797 5.1026 14.2512C4.83587 14.3226 4.5617 14.1643 4.49023 13.8976L4.02169 12.149Z" fill="currentColor"/>
</svg>
