<!-- Icon: Reload -->
<svg width="16" height="16" viewBox="0 0 16 16"  xmlns="http://www.w3.org/2000/svg" fill="currentColor" data-themable="true">
<path fill-rule="evenodd" clip-rule="evenodd" d="M11.7749 3.93114C11.9178 4.4646 11.6012 5.01294 11.0678 5.15588L9.31914 5.62442C9.0524 5.69589 8.77823 5.5376 8.70676 5.27087C8.63529 5.00414 8.79358 4.72997 9.06032 4.6585L10.5 4.27273C9.45537 3.56562 8.12247 3.29961 6.80963 3.65138C5.07788 4.1154 3.85379 5.52833 3.54689 7.18086C3.55557 7.23513 3.55539 7.29176 3.54505 7.34891C3.49978 7.59905 3.47577 7.85221 3.473 8.1055C3.4815 8.45617 3.5314 8.81143 3.6262 9.16524C3.64441 9.2332 3.64771 9.30164 3.6381 9.36708C3.83655 10.0796 4.21359 10.7527 4.76898 11.3158C4.87312 11.322 4.9762 11.3607 5.06194 11.4333C6.1515 12.3559 7.65855 12.7456 9.14006 12.3487C11.5417 11.7051 12.967 9.2365 12.3235 6.83481C12.252 6.56808 12.4103 6.29391 12.677 6.22244C12.9438 6.15097 13.2179 6.30926 13.2894 6.57599C13.7973 8.47154 13.2507 10.4012 12.0093 11.7422C11.9981 11.8529 11.9502 11.9606 11.8653 12.0454C9.71666 14.1941 6.23296 14.1941 4.08428 12.0454C3.0016 10.9628 2.46477 9.54101 2.4729 8.12295C2.41554 5.64473 4.05007 3.35553 6.55081 2.68546C7.9383 2.31368 9.34402 2.50717 10.5233 3.12377L10.3404 2.44133C10.2689 2.1746 10.4272 1.90043 10.694 1.82896C10.9607 1.75749 11.2349 1.91578 11.3063 2.18251L11.7749 3.93114Z" fill="currentColor"/>
</svg>
