<!-- Icon: Reply -->
<svg width="16" height="16" viewBox="0 0 16 16"  xmlns="http://www.w3.org/2000/svg" fill="currentColor" data-themable="true">
<path fill-rule="evenodd" clip-rule="evenodd" d="M13.0001 8.37377C13.3906 7.98325 13.3906 7.35008 13.0001 6.95956L9.68696 3.64645C9.4917 3.45118 9.17512 3.45118 8.97986 3.64645C8.78459 3.84171 8.78459 4.15829 8.97986 4.35355L11.7929 7.16663H7.00363C5.12731 7.16663 3.58478 5.68704 3.50667 3.81234L3.49973 3.64582C3.48823 3.36992 3.25525 3.15557 2.97935 3.16707C2.70344 3.17856 2.4891 3.41155 2.5006 3.68745L2.50753 3.85397C2.60797 6.26429 4.59122 8.16663 7.00363 8.16663H11.793L8.97986 10.9798C8.78459 11.175 8.78459 11.4916 8.97986 11.6869C9.17512 11.8821 9.4917 11.8821 9.68696 11.6869L13.0001 8.37377Z" fill="currentColor"/>
</svg>
