<!-- Icon: Save -->
<svg width="16" height="16" viewBox="0 0 16 16"  xmlns="http://www.w3.org/2000/svg" fill="currentColor" data-themable="true">
<path fill-rule="evenodd" clip-rule="evenodd" d="M4 3C3.44772 3 3 3.44772 3 4V12C3 12.5523 3.44772 13 4 13L4 9.5C4 8.67157 4.67157 8 5.5 8H10.5C11.3284 8 12 8.67157 12 9.5V13C12.5523 13 13 12.5523 13 12V5.86233C13 5.60066 12.8974 5.34942 12.7143 5.16251L11.8144 4.24389L10.8374 3.28598C10.6505 3.10268 10.3991 3 10.1373 3H10V4.5C10 5.32843 9.32843 6 8.5 6H6.5C5.67157 6 5 5.32843 5 4.5V3H4ZM11 13V9.5C11 9.22386 10.7761 9 10.5 9H5.5C5.22386 9 5 9.22386 5 9.5V13H11ZM4.5 14H4C2.89543 14 2 13.1046 2 12V4C2 2.89543 2.89543 2 4 2H5.5H9.5H10.1373C10.6609 2 11.1637 2.20535 11.5375 2.57195L12.5252 3.54041L13.4286 4.46269C13.7949 4.83652 14 5.339 14 5.86233V12C14 13.1046 13.1046 14 12 14H11.5H4.5ZM9 4.5V3H6V4.5C6 4.77614 6.22386 5 6.5 5H8.5C8.77614 5 9 4.77614 9 4.5Z" fill="currentColor"/>
</svg>
