<!-- Icon: SearchPerson -->
<svg width="16" height="16" viewBox="0 0 16 16"  xmlns="http://www.w3.org/2000/svg" fill="currentColor" data-themable="true">
<path fill-rule="evenodd" clip-rule="evenodd" d="M7 2.5C4.51472 2.5 2.5 4.51472 2.5 7C2.5 8.40797 3.14662 9.66491 4.15909 10.4901C4.66701 9.41932 5.70588 8.64453 7.00001 8.64453C8.29415 8.64453 9.33302 9.41932 9.84093 10.4901C9.95979 10.3932 10.0736 10.2903 10.182 10.182C10.9969 9.36709 11.5 8.24278 11.5 7C11.5 4.51472 9.48528 2.5 7 2.5ZM8.99221 11.0362C8.65505 10.2158 7.89724 9.64453 7.00001 9.64453C6.10281 9.64453 5.34504 10.2157 5.00785 11.0361C5.60837 11.3331 6.2847 11.5 7 11.5C7.71548 11.5 8.3917 11.3332 8.99221 11.0362ZM1.5 7C1.5 3.96243 3.96243 1.5 7 1.5C10.0376 1.5 12.5 3.96243 12.5 7C12.5 8.33855 12.0213 9.56604 11.2266 10.5195L14.3536 13.6464C14.5488 13.8417 14.5488 14.1583 14.3536 14.3536C14.1583 14.5488 13.8417 14.5488 13.6464 14.3536L10.5195 11.2266C9.56604 12.0213 8.33855 12.5 7 12.5C3.96243 12.5 1.5 10.0376 1.5 7ZM7 5C6.54561 5 6.17725 5.36836 6.17725 5.82275C6.17725 6.27715 6.54561 6.64551 7 6.64551C7.45439 6.64551 7.82275 6.27715 7.82275 5.82275C7.82275 5.36836 7.45439 5 7 5ZM5.17725 5.82275C5.17725 4.81607 5.99332 4 7 4C8.00668 4 8.82275 4.81607 8.82275 5.82275C8.82275 6.82943 8.00668 7.64551 7 7.64551C5.99332 7.64551 5.17725 6.82943 5.17725 5.82275Z" fill="currentColor"/>
</svg>
