<!-- Icon: Share -->
<svg width="16" height="16" viewBox="0 0 16 16"  xmlns="http://www.w3.org/2000/svg" fill="currentColor" data-themable="true">
<path fill-rule="evenodd" clip-rule="evenodd" d="M3.5 6.27273C3.5 5.99658 3.27614 5.77273 3 5.77273C2.72386 5.77273 2.5 5.99658 2.5 6.27273L2.5 12.2936C2.5 13.2572 3.19282 14.0996 4.17281 14.2276C5.14461 14.3545 6.56903 14.5 8 14.5C9.43097 14.5 10.8554 14.3545 11.8272 14.2276C12.8072 14.0996 13.5 13.2572 13.5 12.2936L13.5 6.27273C13.5 5.99658 13.2761 5.77273 13 5.77273C12.7239 5.77273 12.5 5.99658 12.5 6.27273L12.5 12.2936C12.5 12.7799 12.1554 13.1763 11.6977 13.236C10.7475 13.3601 9.37048 13.5 8 13.5C6.62952 13.5 5.25249 13.3601 4.30229 13.236C3.84463 13.1763 3.5 12.7799 3.5 12.2936L3.5 6.27273ZM5.68705 5.02023L7.50024 3.20703L7.50024 9.66671C7.50024 9.94285 7.7241 10.1667 8.00024 10.1667C8.27639 10.1667 8.50024 9.94285 8.50024 9.66671L8.50024 3.2072L10.3133 5.02023C10.5085 5.21549 10.8251 5.21549 11.0204 5.02023C11.2156 4.82497 11.2156 4.50838 11.0204 4.31312L8.70727 2.00001C8.31674 1.60948 7.68358 1.60948 7.29306 2.00001L4.97994 4.31312C4.78468 4.50838 4.78468 4.82497 4.97994 5.02023C5.1752 5.21549 5.49179 5.21549 5.68705 5.02023Z" fill="currentColor"/>
</svg>
