<!-- Icon: Sidepanel -->
<svg width="16" height="16" viewBox="0 0 16 16"  xmlns="http://www.w3.org/2000/svg" fill="currentColor" data-themable="true">
<path fill-rule="evenodd" clip-rule="evenodd" d="M4.70641 2.5C3.74283 2.5 2.90036 3.19282 2.77239 4.17281C2.64549 5.14461 2.5 6.56903 2.5 8C2.5 9.43097 2.64549 10.8554 2.77239 11.8272C2.90036 12.8072 3.74283 13.5 4.70641 13.5H11.2936C12.2572 13.5 13.0996 12.8072 13.2276 11.8272C13.3545 10.8554 13.5 9.43097 13.5 8C13.5 6.56903 13.3545 5.14461 13.2276 4.17281C13.0996 3.19282 12.2572 2.5 11.2936 2.5H4.70641ZM3.76397 4.30229C3.82373 3.84463 4.22014 3.5 4.70641 3.5H5.5V12.5H4.70641C4.22013 12.5 3.82373 12.1554 3.76397 11.6977C3.63989 10.7475 3.5 9.37048 3.5 8C3.5 6.62952 3.63989 5.25249 3.76397 4.30229ZM6.5 12.5H11.2936C11.7799 12.5 12.1763 12.1554 12.236 11.6977C12.3601 10.7475 12.5 9.37047 12.5 8C12.5 6.62952 12.3601 5.25249 12.236 4.30229C12.1763 3.84463 11.7799 3.5 11.2936 3.5H6.5V12.5Z" fill="currentColor"/>
</svg>
