<!-- Icon: SignOut -->
<svg width="16" height="16" viewBox="0 0 16 16"  xmlns="http://www.w3.org/2000/svg" fill="currentColor" data-themable="true">
<path fill-rule="evenodd" clip-rule="evenodd" d="M10.227 2C10.227 2.27614 10.0032 2.5 9.72703 2.5L5.74415 2.5C5.24762 2.5 4.84128 2.86036 4.7876 3.33538C4.65831 4.47956 4.49976 6.24266 4.49976 8C4.49976 9.75734 4.65831 11.5204 4.7876 12.6646C4.84128 13.1396 5.24762 13.5 5.74415 13.5H9.72703C10.0032 13.5 10.227 13.7239 10.227 14C10.227 14.2761 10.0032 14.5 9.72703 14.5H5.74415C4.75737 14.5 3.90679 13.7758 3.79392 12.7769C3.66261 11.6148 3.49976 9.81029 3.49976 8C3.49976 6.18971 3.66261 4.38519 3.79392 3.2231C3.90679 2.2242 4.75737 1.5 5.74415 1.5H9.72703C10.0032 1.5 10.227 1.72386 10.227 2ZM12.2929 7.5H7.50002C7.22388 7.5 7.00002 7.72386 7.00002 8C7.00002 8.27614 7.22388 8.5 7.50002 8.5H12.293L10.4799 10.3132C10.2846 10.5084 10.2846 10.825 10.4799 11.0203C10.6751 11.2155 10.9917 11.2155 11.187 11.0203L13.3233 8.88392C13.8115 8.39577 13.8115 7.60431 13.3233 7.11616L11.187 4.97982C10.9917 4.78456 10.6751 4.78456 10.4799 4.97982C10.2846 5.17508 10.2846 5.49167 10.4799 5.68693L12.2929 7.5Z" fill="currentColor"/>
</svg>
