<!-- Icon: SpeakerOff -->
<svg width="16" height="16" viewBox="0 0 16 16"  xmlns="http://www.w3.org/2000/svg" fill="currentColor" data-themable="true">
<path fill-rule="evenodd" clip-rule="evenodd" d="M8.87768 5.21518C8.91035 4.85597 8.94667 4.52584 8.98337 4.22982C9.04496 3.73294 8.74757 3.34491 8.4034 3.16912C8.05767 2.99253 7.56286 2.98002 7.20115 3.34173L5.98223 4.56065C5.70093 4.84195 5.3194 4.99999 4.92157 4.99999H3.16676C2.77544 4.99999 2.28437 5.17528 2.08514 5.67952C1.9171 6.10482 1.75 6.82252 1.75 7.99999C1.75 9.17745 1.9171 9.89516 2.08514 10.3205C2.27234 10.7942 2.71717 10.9776 3.09483 10.998L4.09288 9.99999H3.16676C3.10222 9.99999 3.05861 9.98564 3.03647 9.97344C3.01958 9.96414 3.01732 9.9584 3.01526 9.95319L3.01518 9.95299C2.90471 9.6734 2.75 9.08674 2.75 7.99999C2.75 6.91323 2.90471 6.32657 3.01518 6.04699L3.01526 6.04678C3.01732 6.04157 3.01958 6.03584 3.03647 6.02653C3.05861 6.01433 3.10222 5.99999 3.16676 5.99999H4.92157C5.58461 5.99999 6.2205 5.73659 6.68934 5.26775L7.90825 4.04884L7.9085 4.0486C7.91444 4.04845 7.92921 4.04981 7.94853 4.05968C7.96986 4.07057 7.98279 4.08479 7.98812 4.09368C7.9904 4.09747 7.99092 4.09957 7.99103 4.10009L7.99104 4.10012C7.99111 4.10041 7.99153 4.1022 7.99096 4.10681C7.91592 4.71216 7.84242 5.45524 7.79671 6.29615L8.87768 5.21518ZM2.04525 13.4618C1.9608 13.6464 1.99456 13.8717 2.1465 14.0236C2.34179 14.2188 2.65837 14.2188 2.85361 14.0235L5.67395 11.2023C5.78562 11.2671 5.88938 11.3465 5.98223 11.4393L7.20115 12.6582C7.56286 13.02 8.05767 13.0074 8.4034 12.8309C8.74757 12.6551 9.04496 12.267 8.98337 11.7701C8.86805 10.8399 8.75641 9.57255 8.75027 8.12508L10.7229 6.15187C11.0572 6.68829 11.25 7.32147 11.25 8.00016C11.25 8.9689 10.8571 9.84493 10.2208 10.4792C10.0252 10.6741 10.0247 10.9907 10.2196 11.1863C10.4145 11.3819 10.7311 11.3824 10.9267 11.1875C11.7436 10.3733 12.25 9.24538 12.25 8.00016C12.25 7.04489 11.952 6.15868 11.4444 5.43016L12.1607 4.71367C12.8452 5.63071 13.25 6.7678 13.25 8.00005C13.25 9.52674 12.6286 10.9074 11.6238 11.9044C11.5564 11.9713 11.4873 12.0364 11.4165 12.0997C11.2108 12.2839 11.1933 12.6 11.3774 12.8057C11.5616 13.0115 11.8777 13.029 12.0835 12.8448C12.167 12.7701 12.2486 12.6932 12.3281 12.6143C13.5144 11.4372 14.25 9.80404 14.25 8.00005C14.25 6.49177 13.7358 5.10294 12.8739 4.0002L14.0203 2.8535C14.2155 2.65821 14.2155 2.34163 14.0202 2.14639C13.8699 1.99619 13.6479 1.96158 13.4645 2.04253L2.04525 13.4618ZM7.76981 9.10583L6.39542 10.4806C6.49911 10.5563 6.59744 10.6403 6.68934 10.7322L7.90825 11.9511L7.9085 11.9514C7.91445 11.9515 7.92921 11.9502 7.94853 11.9403C7.96986 11.9294 7.98279 11.9152 7.98812 11.9063C7.9904 11.9025 7.99092 11.9004 7.99103 11.8999L7.99104 11.8999C7.99111 11.8996 7.99153 11.8978 7.99096 11.8932C7.89858 11.148 7.80853 10.194 7.76981 9.10583Z" fill="currentColor"/>
</svg>
