<!-- Icon: Speaker -->
<svg width="16" height="16" viewBox="0 0 16 16"  xmlns="http://www.w3.org/2000/svg" fill="currentColor" data-themable="true">
<path fill-rule="evenodd" clip-rule="evenodd" d="M11.3774 3.19438C11.5616 2.98862 11.8777 2.97111 12.0835 3.15527C12.167 3.23002 12.2486 3.3069 12.3281 3.38583C13.5144 4.56293 14.25 6.19606 14.25 8.00005C14.25 9.80404 13.5144 11.4372 12.3281 12.6143C12.2486 12.6932 12.167 12.7701 12.0835 12.8448C11.8777 13.029 11.5616 13.0115 11.3774 12.8057C11.1933 12.6 11.2108 12.2839 11.4165 12.0997C11.4873 12.0364 11.5564 11.9713 11.6238 11.9044C12.6286 10.9074 13.25 9.52674 13.25 8.00005C13.25 6.47336 12.6286 5.09274 11.6238 4.09569C11.5564 4.02884 11.4873 3.96372 11.4165 3.9004C11.2108 3.71624 11.1933 3.40014 11.3774 3.19438ZM7.9085 4.0486L7.90825 4.04884L6.68934 5.26775C6.2205 5.73659 5.58461 5.99999 4.92157 5.99999H3.16676C3.10222 5.99999 3.05861 6.01433 3.03647 6.02653C3.01958 6.03584 3.01732 6.04157 3.01526 6.04678L3.01518 6.04699C2.90471 6.32657 2.75 6.91323 2.75 7.99999C2.75 9.08674 2.90471 9.6734 3.01518 9.95299L3.01526 9.95319C3.01732 9.9584 3.01958 9.96414 3.03647 9.97344C3.05861 9.98564 3.10222 9.99999 3.16676 9.99999H4.92157C5.58461 9.99999 6.2205 10.2634 6.68934 10.7322L7.90825 11.9511L7.9085 11.9514C7.91445 11.9515 7.92921 11.9502 7.94853 11.9403C7.96986 11.9294 7.98279 11.9152 7.98812 11.9063C7.9904 11.9025 7.99092 11.9004 7.99103 11.8999L7.99104 11.8999C7.99111 11.8996 7.99153 11.8978 7.99096 11.8932C7.86843 10.9047 7.75 9.5491 7.75 7.99999C7.75 6.45088 7.86843 5.09525 7.99096 4.10681C7.99153 4.1022 7.99111 4.10041 7.99104 4.10012L7.99103 4.10009C7.99092 4.09957 7.9904 4.09748 7.98812 4.09368C7.98279 4.08479 7.96986 4.07057 7.94853 4.05968C7.92921 4.04981 7.91444 4.04845 7.9085 4.0486ZM8.4034 3.16912C8.74757 3.34491 9.04496 3.73294 8.98337 4.22982C8.86474 5.18682 8.75 6.50046 8.75 7.99999C8.75 9.49951 8.86474 10.8132 8.98337 11.7702C9.04496 12.267 8.74757 12.6551 8.4034 12.8309C8.05767 13.0074 7.56286 13.02 7.20115 12.6582L5.98223 11.4393C5.70093 11.158 5.3194 11 4.92157 11H3.16676C2.77544 11 2.28437 10.8247 2.08514 10.3205C1.9171 9.89516 1.75 9.17745 1.75 7.99999C1.75 6.82252 1.9171 6.10482 2.08514 5.67952C2.28437 5.17528 2.77544 4.99999 3.16676 4.99999H4.92157C5.3194 4.99999 5.70093 4.84195 5.98223 4.56065L7.20115 3.34173C7.56286 2.98002 8.05767 2.99253 8.4034 3.16912ZM10.9267 4.81285C10.7311 4.61791 10.4145 4.61844 10.2196 4.81403C10.0247 5.00962 10.0252 5.3262 10.2208 5.52113C10.8571 6.15539 11.25 7.03142 11.25 8.00016C11.25 8.9689 10.8571 9.84493 10.2208 10.4792C10.0252 10.6741 10.0247 10.9907 10.2196 11.1863C10.4145 11.3819 10.7311 11.3824 10.9267 11.1875C11.7436 10.3733 12.25 9.24538 12.25 8.00016C12.25 6.75494 11.7436 5.62705 10.9267 4.81285Z" fill="currentColor"/>
</svg>
