<!-- Icon: Spinner -->
<svg width="16" height="16" viewBox="0 0 16 16"  xmlns="http://www.w3.org/2000/svg" fill="currentColor" data-themable="true">
<path fill-rule="evenodd" clip-rule="evenodd" d="M10.5 3.66988C9.5468 3.11955 8.43863 2.89912 7.34738 3.04278C6.25612 3.18645 5.24277 3.68618 4.46447 4.46447C3.68618 5.24277 3.18645 6.25612 3.04278 7.34738C2.89912 8.43863 3.11955 9.5468 3.66988 10.5C4.22022 11.4532 5.0697 12.1982 6.08659 12.6194C7.10348 13.0406 8.23094 13.1145 9.2941 12.8296C10.3573 12.5448 11.2967 11.917 11.9668 11.0438C12.6368 10.1706 13 9.10068 13 8.00001C13 7.72387 13.2239 7.50001 13.5 7.50001C13.7762 7.50001 14 7.72387 14 8.00001C14 9.32081 13.5642 10.6047 12.7601 11.6526C11.9561 12.7004 10.8287 13.4537 9.55292 13.7956C8.27712 14.1374 6.92417 14.0487 5.70391 13.5433C4.48364 13.0378 3.46426 12.1439 2.80386 11C2.14345 9.85616 1.87894 8.52636 2.05134 7.21685C2.22374 5.90735 2.82342 4.69132 3.75737 3.75737C4.69132 2.82342 5.90735 2.22374 7.21685 2.05134C8.52636 1.87894 9.85616 2.14345 11 2.80386C11.2392 2.94193 11.3211 3.24772 11.183 3.48687C11.045 3.72601 10.7392 3.80795 10.5 3.66988Z" fill="currentColor"/>
</svg>
