<!-- Icon: Star -->
<svg width="16" height="16" viewBox="0 0 16 16"  xmlns="http://www.w3.org/2000/svg" fill="currentColor" data-themable="true">
<path fill-rule="evenodd" clip-rule="evenodd" d="M7.10334 2.34699C7.47017 1.60382 8.52992 1.60382 8.89675 2.34699L10.3922 5.37655L13.7371 5.86547C14.557 5.98531 14.8838 6.99315 14.2902 7.57131L11.8706 9.928L12.4416 13.2568C12.5817 14.0737 11.7241 14.6967 10.9905 14.3109L8.00004 12.7382L5.00958 14.3109C4.27595 14.6967 3.41841 14.0737 3.55853 13.2568L4.12945 9.928L1.70985 7.57131C1.11626 6.99315 1.44304 5.98531 2.26295 5.86547L5.60791 5.37655L7.10334 2.34699ZM8.00004 2.78961L6.50462 5.81918C6.35908 6.11402 6.07789 6.31848 5.75254 6.36604L2.40758 6.85495L4.82718 9.21164C5.06306 9.44138 5.17072 9.77251 5.11506 10.097L4.54413 13.4258L7.53459 11.8532C7.82597 11.6999 8.17411 11.6999 8.46549 11.8532L11.456 13.4258L10.885 10.097C10.8294 9.77252 10.937 9.44138 11.1729 9.21164L13.5925 6.85495L10.2475 6.36604C9.92219 6.31848 9.64101 6.11402 9.49547 5.81918L8.00004 2.78961Z" fill="currentColor"/>
</svg>
