<!-- Icon: Stats -->
<svg width="16" height="16" viewBox="0 0 16 16"  xmlns="http://www.w3.org/2000/svg" fill="currentColor" data-themable="true">
<path fill-rule="evenodd" clip-rule="evenodd" d="M4.21148 3.2546C5.23889 3.12823 6.62241 3 8 3C9.37759 3 10.7611 3.12823 11.7885 3.2546C12.4827 3.33999 13 3.94027 13 4.66915V11.3308C13 12.0597 12.4827 12.66 11.7885 12.7454C10.7611 12.8718 9.37759 13 8 13C6.62241 13 5.23889 12.8718 4.21148 12.7454C3.51725 12.66 3 12.0597 3 11.3308V4.66915C3 3.94027 3.51725 3.33999 4.21148 3.2546ZM8 2C6.56641 2 5.13875 2.13301 4.0894 2.26208C2.86494 2.41269 2 3.46489 2 4.66915V11.3308C2 12.5351 2.86494 13.5873 4.0894 13.7379C5.13875 13.867 6.56641 14 8 14C9.43359 14 10.8612 13.867 11.9106 13.7379C13.1351 13.5873 14 12.5351 14 11.3308V4.66915C14 3.46489 13.1351 2.41269 11.9106 2.26208C10.8612 2.13301 9.43359 2 8 2ZM6 7.5C6 7.22386 5.77614 7 5.5 7C5.22386 7 5 7.22386 5 7.5V11C5 11.2761 5.22386 11.5 5.5 11.5C5.77614 11.5 6 11.2761 6 11V7.5ZM8 4.5C8.27614 4.5 8.5 4.72386 8.5 5V11C8.5 11.2761 8.27614 11.5 8 11.5C7.72386 11.5 7.5 11.2761 7.5 11V5C7.5 4.72386 7.72386 4.5 8 4.5ZM11 9.5C11 9.22386 10.7761 9 10.5 9C10.2239 9 10 9.22386 10 9.5V11C10 11.2761 10.2239 11.5 10.5 11.5C10.7761 11.5 11 11.2761 11 11V9.5Z" fill="currentColor"/>
</svg>
