<!-- Icon: TextBoldIcon -->
<svg width="16" height="16" viewBox="0 0 16 16"  xmlns="http://www.w3.org/2000/svg" fill="currentColor" data-themable="true">
<path d="M8.71214 13.5H5.35061C4.86539 13.5 4.51774 13.3925 4.30764 13.1774C4.10255 12.9573 4 12.6096 4 12.1344V3.86562C4 3.3804 4.10505 3.03274 4.31514 2.82265C4.53024 2.60755 4.8754 2.5 5.35061 2.5H8.91473C9.43997 2.5 9.89518 2.53251 10.2804 2.59754C10.6655 2.66257 11.0107 2.78763 11.3158 2.97271C11.5759 3.12779 11.806 3.32538 12.0061 3.56548C12.2062 3.80059 12.3588 4.06321 12.4638 4.35334C12.5689 4.63847 12.6214 4.94111 12.6214 5.26126C12.6214 6.36176 12.0712 7.16712 10.9707 7.67735C12.4163 8.13756 13.1392 9.03297 13.1392 10.3636C13.1392 10.9789 12.9816 11.5341 12.6664 12.0293C12.3513 12.5196 11.9261 12.8822 11.3909 13.1173C11.0557 13.2574 10.6705 13.3574 10.2353 13.4175C9.80014 13.4725 9.29241 13.5 8.71214 13.5ZM8.54707 8.61528H6.22851V11.8267H8.6221C10.1278 11.8267 10.8806 11.284 10.8806 10.1985C10.8806 9.64325 10.6855 9.24056 10.2954 8.99045C9.90518 8.74034 9.32242 8.61528 8.54707 8.61528ZM6.22851 4.17326V7.01705H8.26944C8.82469 7.01705 9.25239 6.96453 9.55252 6.85948C9.85766 6.75443 10.0903 6.55434 10.2503 6.25921C10.3754 6.04911 10.4379 5.81401 10.4379 5.55389C10.4379 4.99864 10.2403 4.63097 9.84516 4.45089C9.44998 4.2658 8.8472 4.17326 8.03684 4.17326H6.22851Z" fill="currentColor"/>
</svg>
