<!-- Icon: TextIndentLeft -->
<svg width="16" height="16" viewBox="0 0 16 16"  xmlns="http://www.w3.org/2000/svg" fill="currentColor" data-themable="true">
<path fill-rule="evenodd" clip-rule="evenodd" d="M6.00009 3.5C5.72395 3.5 5.50009 3.72386 5.50009 4C5.50009 4.27614 5.72395 4.5 6.00009 4.5H11.0001C11.2762 4.5 11.5001 4.27614 11.5001 4C11.5001 3.72386 11.2762 3.5 11.0001 3.5H6.00009ZM6.00009 7.5C5.72395 7.5 5.50009 7.72386 5.50009 8C5.50009 8.27614 5.72395 8.5 6.00009 8.5H14.0001C14.2762 8.5 14.5001 8.27614 14.5001 8C14.5001 7.72386 14.2762 7.5 14.0001 7.5H6.00009ZM5.50009 12C5.50009 11.7239 5.72395 11.5 6.00009 11.5H11.0001C11.2762 11.5 11.5001 11.7239 11.5001 12C11.5001 12.2761 11.2762 12.5 11.0001 12.5H6.00009C5.72395 12.5 5.50009 12.2761 5.50009 12ZM1.81319 7.64643C1.71943 7.74019 1.66675 7.86737 1.66675 7.99998C1.66675 8.13259 1.71943 8.25977 1.81319 8.35353L3.64653 10.1869C3.84179 10.3821 4.15837 10.3821 4.35364 10.1869C4.5489 9.9916 4.5489 9.67502 4.35363 9.47976L2.87385 7.99998L4.35363 6.5202C4.5489 6.32494 4.5489 6.00835 4.35363 5.81309C4.15837 5.61783 3.84179 5.61783 3.64653 5.81309L1.81319 7.64643Z" fill="currentColor"/>
</svg>
