<!-- Icon: TextIndentRight -->
<svg width="16" height="16" viewBox="0 0 16 16"  xmlns="http://www.w3.org/2000/svg" fill="currentColor" data-themable="true">
<path fill-rule="evenodd" clip-rule="evenodd" d="M6.00008 3.5C5.72394 3.5 5.50008 3.72386 5.50008 4C5.50008 4.27614 5.72394 4.5 6.00008 4.5H11.0001C11.2762 4.5 11.5001 4.27614 11.5001 4C11.5001 3.72386 11.2762 3.5 11.0001 3.5H6.00008ZM6.00008 7.5C5.72394 7.5 5.50008 7.72386 5.50008 8C5.50008 8.27614 5.72394 8.5 6.00008 8.5H14.0001C14.2762 8.5 14.5001 8.27614 14.5001 8C14.5001 7.72386 14.2762 7.5 14.0001 7.5H6.00008ZM5.50008 12C5.50008 11.7239 5.72394 11.5 6.00008 11.5H11.0001C11.2762 11.5 11.5001 11.7239 11.5001 12C11.5001 12.2761 11.2762 12.5 11.0001 12.5H6.00008C5.72394 12.5 5.50008 12.2761 5.50008 12ZM4.35364 8.35351C4.4474 8.25974 4.50008 8.13257 4.50008 7.99996C4.50008 7.86735 4.4474 7.74017 4.35364 7.64641L2.5203 5.81307C2.32504 5.61781 2.00846 5.61781 1.81319 5.81307C1.61793 6.00833 1.61793 6.32492 1.81319 6.52018L3.29297 7.99996L1.81319 9.47974C1.61793 9.675 1.61793 9.99158 1.81319 10.1868C2.00846 10.3821 2.32504 10.3821 2.5203 10.1868L4.35364 8.35351Z" fill="currentColor"/>
</svg>
