<!-- Icon: TextStyleRemove -->
<svg width="16" height="16" viewBox="0 0 16 16"  xmlns="http://www.w3.org/2000/svg" fill="currentColor" data-themable="true">
<path fill-rule="evenodd" clip-rule="evenodd" d="M13.6786 2.65189C13.8738 2.45663 13.8738 2.14005 13.6786 1.94479C13.4833 1.74952 13.1667 1.74952 12.9715 1.94479L11.5454 3.37079H4.1889L4.10687 5.74969H4.44867C4.58995 4.99774 4.79958 4.51011 5.07758 4.2868C5.36013 4.0635 5.88877 3.95184 6.66351 3.95184H7.44281V7.4734L2.7109 12.2053C2.51564 12.4005 2.51564 12.7171 2.7109 12.9124C2.90616 13.1077 3.22274 13.1077 3.41801 12.9124L13.6786 2.65189ZM8.83734 6.07888L10.8257 4.09054C10.5364 3.99808 10.1334 3.95184 9.61664 3.95184H8.83734V6.07888ZM8.83734 8.90288L7.44281 10.2974V10.9518C7.44281 11.558 7.36989 11.9362 7.22406 12.0866C7.07823 12.237 6.70909 12.335 6.11664 12.3806V12.6335H10.1977V12.3806C9.62803 12.3395 9.25889 12.2552 9.09027 12.1276C8.92165 11.9955 8.83734 11.6582 8.83734 11.1159V8.90288Z" fill="currentColor"/>
</svg>
