<!-- Icon: ThemeDark -->
<svg width="16" height="16" viewBox="0 0 16 16"  xmlns="http://www.w3.org/2000/svg" fill="currentColor" data-themable="true">
<path d="M6.99992 4.5C6.99992 3.86082 6.88908 3.24787 6.6884 2.67676C6.63645 2.52895 6.65654 2.36496 6.74309 2.23438C6.82979 2.10374 6.97331 2.02126 7.12981 2.01172C7.25104 2.00433 7.3745 2 7.49992 2C10.8136 2 13.4999 4.68629 13.4999 8C13.4999 11.3137 10.8136 14 7.49992 14C5.12643 14 3.07637 12.6215 2.10344 10.624C2.03481 10.4831 2.03626 10.3184 2.10735 10.1787C2.17855 10.0389 2.31128 9.94044 2.46574 9.91309C5.04282 9.45667 6.99992 7.20727 6.99992 4.5ZM7.99992 4.5C7.99992 7.4592 6.02196 9.95093 3.31731 10.7373C4.21098 12.1001 5.75008 13 7.49992 13C10.2613 13 12.4999 10.7614 12.4999 8C12.4999 5.34786 10.4349 3.17931 7.82512 3.01172C7.93782 3.48966 7.99992 3.98754 7.99992 4.5Z" fill="currentColor"/>
</svg>
