<!-- Icon: ThemeDarkFilled -->
<svg width="16" height="16" viewBox="0 0 16 16"  xmlns="http://www.w3.org/2000/svg" fill="currentColor" data-themable="true">
<path d="M7.50041 2C10.814 2.00015 13.5004 4.68639 13.5004 8C13.5004 11.3136 10.814 13.9998 7.50041 14C5.12696 14 3.07688 12.6214 2.10393 10.624C2.03529 10.4831 2.03675 10.3184 2.10783 10.1787C2.17905 10.039 2.31181 9.94043 2.46623 9.91309C5.04317 9.45656 7.00041 7.20718 7.00041 4.5C7.00041 3.86086 6.88955 3.24784 6.68888 2.67676C6.63694 2.52895 6.65703 2.36496 6.74357 2.23438C6.83029 2.10382 6.97385 2.02126 7.13029 2.01172C7.25144 2.00434 7.37509 2 7.50041 2Z" fill="currentColor"/>
</svg>
