<!-- Icon: ThemeLight -->
<svg width="16" height="16" viewBox="0 0 16 16"  xmlns="http://www.w3.org/2000/svg" fill="currentColor" data-themable="true">
<path d="M8 13C8.27614 13 8.5 13.2239 8.5 13.5V14.5C8.5 14.7761 8.27614 15 8 15C7.72386 15 7.5 14.7761 7.5 14.5V13.5C7.5 13.2239 7.72386 13 8 13ZM4.14648 11.1465C4.34175 10.9512 4.65825 10.9512 4.85352 11.1465C5.04878 11.3417 5.04878 11.6583 4.85352 11.8535L3.85352 12.8535C3.65825 13.0488 3.34175 13.0488 3.14648 12.8535C2.95122 12.6583 2.95122 12.3417 3.14648 12.1465L4.14648 11.1465ZM11.1465 11.1465C11.3417 10.9512 11.6583 10.9512 11.8535 11.1465L12.8535 12.1465C13.0488 12.3417 13.0488 12.6583 12.8535 12.8535C12.6583 13.0488 12.3417 13.0488 12.1465 12.8535L11.1465 11.8535C10.9512 11.6583 10.9512 11.3417 11.1465 11.1465ZM8 5C9.65685 5 11 6.34315 11 8C11 9.65685 9.65685 11 8 11C6.34315 11 5 9.65685 5 8C5 6.34315 6.34315 5 8 5ZM8 6C6.89543 6 6 6.89543 6 8C6 9.10457 6.89543 10 8 10C9.10457 10 10 9.10457 10 8C10 6.89543 9.10457 6 8 6ZM2.5 7.5C2.77614 7.5 3 7.72386 3 8C3 8.27614 2.77614 8.5 2.5 8.5H1.5C1.22386 8.5 1 8.27614 1 8C1 7.72386 1.22386 7.5 1.5 7.5H2.5ZM14.5 7.5C14.7761 7.5 15 7.72386 15 8C15 8.27614 14.7761 8.5 14.5 8.5H13.5C13.2239 8.5 13 8.27614 13 8C13 7.72386 13.2239 7.5 13.5 7.5H14.5ZM3.14648 3.14648C3.34175 2.95122 3.65825 2.95122 3.85352 3.14648L4.85352 4.14648C5.04878 4.34175 5.04878 4.65825 4.85352 4.85352C4.65825 5.04878 4.34175 5.04878 4.14648 4.85352L3.14648 3.85352C2.95122 3.65825 2.95122 3.34175 3.14648 3.14648ZM12.1465 3.14648C12.3417 2.95122 12.6583 2.95122 12.8535 3.14648C13.0488 3.34175 13.0488 3.65825 12.8535 3.85352L11.8535 4.85352C11.6583 5.04878 11.3417 5.04878 11.1465 4.85352C10.9512 4.65825 10.9512 4.34175 11.1465 4.14648L12.1465 3.14648ZM8 1C8.27614 1 8.5 1.22386 8.5 1.5V2.5C8.5 2.77614 8.27614 3 8 3C7.72386 3 7.5 2.77614 7.5 2.5V1.5C7.5 1.22386 7.72386 1 8 1Z" fill="currentColor"/>
</svg>
