<!-- Icon: ThumbUpFilled -->
<svg width="16" height="16" viewBox="0 0 16 16"  xmlns="http://www.w3.org/2000/svg" fill="currentColor" data-themable="true">
<path fill-rule="evenodd" clip-rule="evenodd" d="M12.7053 6.40626L12.7421 6.40626C12.7463 6.40708 12.7509 6.408 12.7561 6.40902C12.9828 6.45351 14.2088 6.69413 14.0109 8.0245C13.9926 8.1533 13.9374 8.28196 13.8455 8.37394L13.6615 8.55789C13.5327 8.70505 13.4592 8.90733 13.5144 9.10963L13.6247 9.60619C13.6615 9.75331 13.6432 9.91879 13.5512 10.0476L13.2569 10.5257C13.1466 10.7097 13.1466 10.9303 13.2386 11.1142C13.3489 11.298 13.3306 11.5003 13.2386 11.6843L13.0179 12.0889C12.9628 12.2175 12.926 12.3647 12.9628 12.5118C13.0916 13.0267 12.3559 13.5784 11.6203 13.5784L6.47114 13.5784C6.47114 13.5784 4.99991 13.5784 4.99991 12.1072L4.99991 12.9687C4.99991 13.2997 4.73004 13.5784 4.37039 13.5784L3.12943 13.5784C2.78769 13.5784 2.49991 13.317 2.49991 12.9687L2.49991 8.10963C2.49991 7.77869 2.76977 7.5 3.12943 7.5L4.37039 7.5C4.71213 7.5 4.99991 7.77881 4.99991 8.10963L4.99991 8.07979C4.99991 7.76719 5.18384 7.49138 5.47811 7.38093C6.32399 7.0683 7.94234 6.03846 7.77686 2.82021C7.75852 2.65473 7.86884 2.52594 8.03432 2.5076C8.60437 2.47078 9.78134 2.52595 9.78134 3.64774L9.78134 6.13046C9.78134 6.27747 9.89165 6.40626 10.0571 6.40626L12.7053 6.40626Z" fill="currentColor"/>
</svg>
