<!-- Icon: ThumbDownFilled -->
<svg width="16" height="16" viewBox="0 0 16 16"  xmlns="http://www.w3.org/2000/svg" fill="currentColor" data-themable="true">
<path fill-rule="evenodd" clip-rule="evenodd" d="M3.8273 9.67217L3.79048 9.67217C3.78637 9.67135 3.78171 9.67043 3.77652 9.66941C3.54981 9.62492 2.32378 9.38429 2.52168 8.05393C2.54002 7.92513 2.59518 7.79646 2.68716 7.70449L2.87111 7.52054C2.9999 7.37338 3.07341 7.1711 3.01825 6.9688L2.90793 6.47224C2.87111 6.32512 2.88945 6.15964 2.98143 6.03085L3.2757 5.55274C3.38602 5.36877 3.38602 5.14815 3.29404 4.96419C3.18372 4.78039 3.20207 4.57809 3.29404 4.39414L3.51468 3.98956C3.56985 3.86089 3.60666 3.71375 3.56984 3.56662C3.44105 3.05173 4.17675 2.5 4.91228 2.5L10.0615 2.5C10.0615 2.5 11.5313 2.5 11.5327 3.96909L11.5327 3.10969C11.5327 2.77875 11.8026 2.50006 12.1622 2.50006L13.4032 2.50006C13.7449 2.50006 14.0327 2.7614 14.0327 3.10969L14.0327 7.9688C14.0327 8.29974 13.7629 8.57843 13.4032 8.57843L12.1622 8.57843C11.8209 8.57843 11.5333 8.3002 11.5327 7.96985L11.5327 7.99864C11.5327 8.31124 11.3488 8.58705 11.0545 8.6975C10.2086 9.01013 8.59028 10.04 8.75576 13.2582C8.7741 13.4237 8.66379 13.5525 8.49831 13.5708C7.92825 13.6076 6.75129 13.5525 6.75129 12.4307L6.75129 9.94797C6.75129 9.80096 6.64097 9.67217 6.47549 9.67217L3.8273 9.67217Z" fill="currentColor"/>
</svg>
