<!-- Icon: ThumbsDown -->
<svg width="16" height="16" viewBox="0 0 16 16"  xmlns="http://www.w3.org/2000/svg" fill="currentColor" data-themable="true">
<path fill-rule="evenodd" clip-rule="evenodd" d="M6.70001 13.6C7.20001 14 7.80001 14.1 8.30001 14.1L8.60001 14.1C8.80001 14 9.00001 13.9 9.00001 13.8C9.20001 13.7 9.20001 13.5 9.20001 13.3C9.10001 10.4 10.4 9.49997 11.2 9.19997C11.3472 9.14111 11.477 9.05625 11.587 8.95305C11.7628 9.04631 11.9707 9.09997 12.2 9.09997L13.4 9.09997C14 9.09997 14.5 8.59997 14.5 7.99997L14.5 3.09997C14.5 2.49997 14 1.99997 13.4 1.99997L12.2 1.99997C11.8046 1.99997 11.473 2.15953 11.2593 2.40654C10.8664 2.1167 10.3865 1.99997 10 1.99997L4.90001 1.99997C4.30001 1.99997 3.70001 2.29997 3.30001 2.69997C3.10001 2.99997 3.00001 3.39997 3.10001 3.69997L3.10001 3.79997L2.90001 4.19997C2.70001 4.49997 2.70001 4.89997 2.90001 5.19997L2.90001 5.29997L2.60001 5.69997C2.40001 5.99997 2.30001 6.29997 2.40001 6.59997L2.50001 7.19997L2.30001 7.39997C2.10001 7.49997 2.00001 7.79997 2.00001 7.99997C1.90001 9.09997 2.50001 9.89997 3.70001 10.2L3.80001 10.2L6.20001 10.2L6.20001 12.5C6.20001 12.9 6.40001 13.3 6.70001 13.6ZM12 7.99997L12 3.99997C12 3.99757 12 3.99518 12 3.99278L12 3.09997C12 3.09997 12.1 2.99997 12.2 2.99997L13.4 2.99997C13.4453 2.99997 13.4701 2.99997 13.4743 3.00929C13.4794 3.02053 13.4547 3.04531 13.4 3.09997L13.4 7.99997C13.4 7.99997 13.4 8.09997 13.3 8.09997L12.1 8.09997L12 7.99998C12 7.99998 12 7.99998 12 7.99997ZM11 3.9944C10.9971 3.09956 10.2994 2.99997 10 2.99997L4.90001 2.99997C4.65585 2.99997 4.41169 3.13245 4.22144 3.23567C4.17793 3.25928 4.13723 3.28136 4.10001 3.29997L4.10001 3.39997C4.20001 3.59997 4.10001 3.89997 4.00001 4.09997L3.70001 4.59997L3.70001 4.69997C3.90001 4.99997 3.90001 5.39997 3.70001 5.79997L3.40001 6.29997L3.50001 6.89997C3.60001 7.19997 3.50001 7.59997 3.20001 7.89997L3.00001 8.09997C3.00001 8.12553 2.99928 8.15327 2.99851 8.18275C2.99023 8.4993 2.97668 9.01701 3.80001 9.19997L6.40001 9.19997C6.80001 9.19997 7.20001 9.49997 7.20001 9.99997L7.20001 12.5C7.20001 12.8 7.30001 12.9 7.30001 12.9C7.50001 13 7.80001 13.1 8.20001 13.1C8.20001 9.59997 10 8.49997 10.9 8.19997C10.9988 8.19997 11 8.1023 11 8.00349C11 8.00232 11 8.00115 11 7.99997L11 3.9944Z" fill="currentColor"/>
</svg>
