<!-- Icon: ThumbUp -->
<svg width="16" height="16" viewBox="0 0 16 16"  xmlns="http://www.w3.org/2000/svg" fill="currentColor" data-themable="true">
<path fill-rule="evenodd" clip-rule="evenodd" d="M6.50003 14.1L11.6 14.1C12.2 14.1 12.9 13.8 13.2 13.4C13.4 13.1 13.5 12.7 13.4 12.4L13.4 12.3L13.6 11.9C13.8 11.6 13.8 11.2 13.6 10.9L13.6 10.8L13.9 10.3C14.1 10.1 14.2 9.79997 14.1 9.49997L14 8.89997L14.2 8.69997C14.4 8.59997 14.5 8.29997 14.5 8.09997C14.7 6.99997 14 6.19997 12.8 5.89997L12.7 5.89997L10.3 5.89997L10.3 3.59997C10.3 3.19997 10.1 2.79997 9.80003 2.49997C9.30003 1.99997 8.60003 1.99997 8.00003 1.99997C7.50003 2.09997 7.20003 2.39997 7.30003 2.79997C7.40003 5.69997 6.10003 6.59997 5.30003 6.89997C5.15286 6.95884 5.02302 7.0437 4.91306 7.1469C4.73721 7.05364 4.52936 6.99997 4.30003 6.99997L3.10003 6.99997C2.50003 6.99997 2.00003 7.49997 2.00003 8.09997L2.00003 13C2.00003 13.6 2.50003 14.1 3.10003 14.1L4.40003 14.1C4.73725 14.1 5.04287 13.942 5.2459 13.6972C5.63776 13.9843 6.11518 14.1 6.50003 14.1ZM5.50003 12.1C5.50003 13 6.30003 13.1 6.50003 13.1L11.6 13.1C11.8442 13.1 12.0883 12.9675 12.2786 12.8643C12.3221 12.8407 12.3628 12.8186 12.4 12.8L12.5 12.7C12.4 12.5 12.5 12.2 12.6 12L12.8 11.6L12.8 11.5C12.6 11.2 12.6 10.8 12.8 10.4L13.1 9.89997L13 9.19997C12.9 8.89997 13 8.49997 13.3 8.19997L13.5 7.99997C13.6 7.69997 13.7 7.09997 12.7 6.89997L10.1 6.89997C9.70003 6.89997 9.30003 6.59997 9.30003 6.09997L9.30003 3.59997C9.30003 3.29997 9.20003 3.19997 9.20003 3.19997C9.00003 3.09997 8.70003 2.99997 8.30003 2.99997C8.40003 6.49997 6.50003 7.49997 5.70003 7.89997C5.60003 7.89997 5.50003 7.99997 5.50003 8.09997L5.50003 12.1ZM3.00003 8.09997C3.00003 8.09997 3.00003 7.99997 3.10003 7.99997L4.30003 7.99997L4.40003 8.09997L4.40003 13C4.40003 13 4.40003 13.1 4.30003 13.1L3.10003 13.1C3.10003 13.1 3.00003 13.1 3.00003 13L3.00003 8.09997Z" fill="currentColor"/>
</svg>
