<!-- Icon: Trash -->
<svg width="16" height="16" viewBox="0 0 16 16"  xmlns="http://www.w3.org/2000/svg" fill="currentColor" data-themable="true">
<path fill-rule="evenodd" clip-rule="evenodd" d="M5 3.5C5 2.11929 6.11929 1 7.5 1H8.5C9.88071 1 11 2.11929 11 3.5H12.7235H12.7237H13.5C13.7761 3.5 14 3.72386 14 4C14 4.27614 13.7761 4.5 13.5 4.5H13.1908L12.5951 13.1376C12.5228 14.1863 11.651 15 10.5999 15H5.40009C4.34893 15 3.47715 14.1863 3.40483 13.1376L2.80913 4.5H2.5C2.22386 4.5 2 4.27614 2 4C2 3.72386 2.22386 3.5 2.5 3.5H3.27628H3.27641H5ZM8.5 2C9.32843 2 10 2.67157 10 3.5H6C6 2.67157 6.67157 2 7.5 2H8.5ZM3.81151 4.5H5.5H10.5H12.1884L11.5975 13.0688C11.5613 13.5932 11.1254 14 10.5999 14H5.40009C4.87451 14 4.43862 13.5932 4.40246 13.0688L3.81151 4.5ZM6.4983 5.95851C6.47537 5.68332 6.23369 5.47882 5.95851 5.50175C5.68332 5.52469 5.47882 5.76636 5.50175 6.04155L6.00175 12.0415C6.02469 12.3167 6.26636 12.5212 6.54155 12.4983C6.81674 12.4754 7.02123 12.2337 6.9983 11.9585L6.4983 5.95851ZM10.4983 6.04155C10.5212 5.76636 10.3167 5.52469 10.0415 5.50175C9.76636 5.47882 9.52469 5.68332 9.50175 5.95851L9.00175 11.9585C8.97882 12.2337 9.18332 12.4754 9.4585 12.4983C9.73369 12.5212 9.97537 12.3167 9.9983 12.0415L10.4983 6.04155Z" fill="currentColor"/>
</svg>
