<!-- Icon: Unlink -->
<svg width="16" height="16" viewBox="0 0 16 16"  xmlns="http://www.w3.org/2000/svg" fill="currentColor" data-themable="true">
<path fill-rule="evenodd" clip-rule="evenodd" d="M6 4.5C5.72386 4.5 5.5 4.27614 5.5 4V2C5.5 1.72386 5.72386 1.5 6 1.5C6.27614 1.5 6.5 1.72386 6.5 2V4C6.5 4.27614 6.27614 4.5 6 4.5ZM13.1054 2.8981C11.8046 1.59729 9.69553 1.5973 8.39473 2.89813L7.52643 3.76645C7.33117 3.96171 7.33118 4.2783 7.52644 4.47356C7.72171 4.66882 8.03829 4.66881 8.23355 4.47355L9.10185 3.60522C10.0121 2.69493 11.488 2.69492 12.3983 3.6052C13.3074 4.51437 13.3087 5.98803 12.4011 6.89876L11.5258 7.77705C11.3309 7.97265 11.3314 8.28923 11.527 8.48416C11.7226 8.67908 12.0392 8.67854 12.2341 8.48294L13.1094 7.60465C14.4064 6.3032 14.4046 4.19731 13.1054 2.8981ZM4.47353 8.23354C4.6688 8.03828 4.6688 7.7217 4.47354 7.52643C4.27828 7.33117 3.9617 7.33117 3.76643 7.52643L2.89634 8.39651C1.59648 9.69634 1.59647 11.8038 2.89632 13.1037C4.19618 14.4035 6.30367 14.4035 7.6035 13.1036L8.47354 12.2335C8.6688 12.0383 8.6688 11.7217 8.47353 11.5264C8.27826 11.3312 7.96168 11.3312 7.76642 11.5265L6.89638 12.3965C5.98707 13.3059 4.51276 13.3059 3.60343 12.3966C2.69411 11.4872 2.69411 10.0129 3.60344 9.10362L4.47353 8.23354ZM10.1972 6.50968C10.3925 6.31442 10.3925 5.99784 10.1972 5.80257C10.002 5.60731 9.6854 5.60731 9.49014 5.80257L5.49014 9.80257C5.29487 9.99784 5.29487 10.3144 5.49014 10.5097C5.6854 10.7049 6.00198 10.7049 6.19724 10.5097L10.1972 6.50968ZM10 11.5C10.2761 11.5 10.5 11.7239 10.5 12V14C10.5 14.2761 10.2761 14.5 10 14.5C9.72386 14.5 9.5 14.2761 9.5 14V12C9.5 11.7239 9.72386 11.5 10 11.5ZM14 10.5C14.2761 10.5 14.5 10.2761 14.5 10C14.5 9.72386 14.2761 9.5 14 9.5H12C11.7239 9.5 11.5 9.72386 11.5 10C11.5 10.2761 11.7239 10.5 12 10.5H14ZM2 5.5C1.72386 5.5 1.5 5.72386 1.5 6C1.5 6.27614 1.72386 6.5 2 6.5L4 6.5C4.27614 6.5 4.5 6.27614 4.5 6C4.5 5.72386 4.27614 5.5 4 5.5L2 5.5Z" fill="currentColor"/>
</svg>
