<!-- Icon: Unlock -->
<svg width="16" height="16" viewBox="0 0 16 16"  xmlns="http://www.w3.org/2000/svg" fill="currentColor" data-themable="true">
<path fill-rule="evenodd" clip-rule="evenodd" d="M4.40198 5.91505C3.57355 4.48017 4.06518 2.6454 5.50005 1.81698C6.93493 0.988548 8.7697 1.48017 9.59813 2.91505L10.8481 5.08012C10.9862 5.31926 10.9043 5.62506 10.6651 5.76313C10.426 5.9012 10.1202 5.81926 9.9821 5.58012L8.7321 3.41505C8.17982 2.45847 6.95664 2.13072 6.00005 2.683C5.04347 3.23529 4.71572 4.45847 5.268 5.41505L6.21008 7.04677C6.78259 7.01857 7.39087 6.99999 8 6.99999C9.38521 6.99999 10.766 7.09609 11.7318 7.18289C12.7512 7.27451 13.5 8.13504 13.5 9.13936V12.8606C13.5 13.8649 12.7512 14.7255 11.7318 14.8171C10.766 14.9039 9.38521 15 8 15C6.61479 15 5.23398 14.9039 4.26822 14.8171C3.24876 14.7255 2.5 13.8649 2.5 12.8606V9.13936C2.5 8.13505 3.24875 7.27451 4.26822 7.18289C4.51835 7.16041 4.79632 7.1373 5.095 7.1154L4.40198 5.91505ZM8 10.5C7.72386 10.5 7.5 10.7238 7.5 11C7.5 11.2761 7.72386 11.5 8 11.5C8.27614 11.5 8.5 11.2761 8.5 11C8.5 10.7238 8.27614 10.5 8 10.5ZM6.5 11C6.5 10.1716 7.17157 9.49999 8 9.49999C8.82843 9.49999 9.5 10.1716 9.5 11C9.5 11.8284 8.82843 12.5 8 12.5C7.17157 12.5 6.5 11.8284 6.5 11ZM4.35774 8.17887C5.30802 8.09346 6.65622 7.99999 8 7.99999C9.34378 7.99999 10.692 8.09346 11.6423 8.17887C12.1271 8.22245 12.5 8.63327 12.5 9.13936V12.8606C12.5 13.3667 12.1271 13.7775 11.6423 13.8211C10.692 13.9065 9.34378 14 8 14C6.65622 14 5.30802 13.9065 4.35774 13.8211C3.87286 13.7775 3.5 13.3667 3.5 12.8606V9.13936C3.5 8.63327 3.87286 8.22245 4.35774 8.17887Z" fill="currentColor"/>
</svg>
