<!-- Icon: Upload -->
<svg width="16" height="16" viewBox="0 0 16 16"  xmlns="http://www.w3.org/2000/svg" fill="currentColor" data-themable="true">
<path fill-rule="evenodd" clip-rule="evenodd" d="M2.5 11.2727C2.5 10.9966 2.27614 10.7727 2 10.7727C1.72386 10.7727 1.5 10.9966 1.5 11.2727V12.2556C1.5 13.2424 2.2242 14.093 3.2231 14.2058C4.38519 14.3371 6.18971 14.5 8 14.5C9.81029 14.5 11.6148 14.3371 12.7769 14.2058C13.7758 14.093 14.5 13.2424 14.5 12.2556V11.2727C14.5 10.9966 14.2761 10.7727 14 10.7727C13.7239 10.7727 13.5 10.9966 13.5 11.2727V12.2556C13.5 12.7521 13.1396 13.1585 12.6646 13.2122C11.5204 13.3414 9.75734 13.5 8 13.5C6.24266 13.5 4.47956 13.3414 3.33538 13.2122C2.86036 13.1585 2.5 12.7521 2.5 12.2556V11.2727ZM4.68705 7.02023L7.50024 4.20703L7.50024 10.6667C7.50024 10.9429 7.7241 11.1667 8.00024 11.1667C8.27639 11.1667 8.50024 10.9429 8.50024 10.6667L8.50024 4.2072L11.3133 7.02023C11.5085 7.21549 11.8251 7.21549 12.0204 7.02023C12.2156 6.82497 12.2156 6.50838 12.0204 6.31312L8.70727 3.00001C8.31675 2.60948 7.68358 2.60948 7.29306 3.00001L3.97994 6.31312C3.78468 6.50838 3.78468 6.82497 3.97994 7.02023C4.1752 7.21549 4.49179 7.21549 4.68705 7.02023Z" fill="currentColor"/>
</svg>
