<!-- Icon: Acrobat -->
<svg width="16" height="16" viewBox="0 0 16 16" fill="none" xmlns="http://www.w3.org/2000/svg">
<path d="M1.5 6.2C1.5 4.6 1.5 3.7 1.8 3.1C2.1 2.5 2.5 2.1 3.1 1.8C3.7 1.5 4.6 1.5 6.2 1.5H9.8C11.4 1.5 12.3 1.5 12.9 1.8C13.5 2.1 13.9 2.5 14.2 3.1C14.5 3.7 14.5 4.6 14.5 6.2V9.8C14.5 11.4 14.5 12.3 14.2 12.9C13.9 13.5 13.5 13.9 12.9 14.2C12.3 14.5 11.4 14.5 9.8 14.5H6.2C4.6 14.5 3.7 14.5 3.1 14.2C2.5 13.9 2.1 13.5 1.8 12.9C1.5 12.3 1.5 11.4 1.5 9.8V6.2Z" fill="#B30B00"/>
<path d="M11.7 8.90002C11.1 8.20002 9.40005 8.50002 9.00005 8.60002C8.40005 8.00002 8.00005 7.40002 7.90005 7.10002C8.10005 6.50002 8.30005 5.80002 8.30005 5.10002C8.30005 4.40002 8.10005 3.90002 7.40005 3.90002C6.70005 3.90002 7.00005 4.00002 6.80005 4.20002C6.50005 4.70002 6.60005 5.70002 7.10005 6.70002C6.90005 7.40002 6.50005 8.60002 6.00005 9.40002C5.40005 9.70002 3.90005 10.3 3.80005 11.1C3.80005 11.3 3.80005 11.6 4.00005 11.7C4.20005 11.9 4.40005 11.9 4.60005 11.9C5.40005 11.9 6.30005 10.7 6.90005 9.60002C7.40005 9.40002 8.10005 9.20002 8.90005 9.10002C9.80005 9.90002 10.6 10.1 11 10.1C11.4 10.1 11.8 9.90002 11.8 9.60002C11.9 9.40002 11.8 9.10002 11.7 8.90002ZM11.2 9.30002C11.2 9.50002 11 9.60002 10.6 9.50002C10.2 9.40002 9.80005 9.20002 9.40005 8.90002C9.70005 8.90002 10.4 8.80002 10.9 8.90002C11.1 8.90002 11.3 9.10002 11.2 9.30002ZM7.30005 4.30002C7.30005 4.30002 7.40005 4.20002 7.50005 4.20002C7.70005 4.20002 7.70005 4.40002 7.70005 4.70002C7.70005 5.20002 7.60005 5.70002 7.40005 6.20002C7.10005 5.30002 7.10005 4.60002 7.20005 4.40002M7.20005 9.00002C7.40005 8.60002 7.60005 7.90002 7.70005 7.70002C7.90005 8.10002 8.30005 8.50002 8.40005 8.70002C8.40005 8.70002 7.70005 8.80002 7.10005 9.00002M5.80005 10C5.20005 10.9 4.70005 11.5 4.40005 11.5C4.10005 11.5 4.30005 11.5 4.20005 11.5V11.3C4.20005 11 4.90005 10.5 5.80005 10.1" fill="white"/>
</svg>