<svg width="48" height="48" viewBox="0 0 48 48" fill="none" xmlns="http://www.w3.org/2000/svg">
<path d="M40.047 6.06299H7.94999C5.61051 6.06299 3.71399 7.95951 3.71399 10.299V34.005C3.71399 36.3445 5.61051 38.241 7.94999 38.241H40.047C42.3865 38.241 44.283 36.3445 44.283 34.005V10.299C44.283 7.95951 42.3865 6.06299 40.047 6.06299Z" fill="white"/>
<path d="M18.168 38.241C14.265 38.241 10.347 38.289 6.45301 38.187C5.17801 38.025 3.71701 36.519 3.71701 35.22V32.832H44.286V35.22C44.286 36.516 42.825 38.025 41.55 38.187C37.653 38.286 33.738 38.238 29.835 38.241C25.932 38.244 22.059 38.241 18.171 38.241H18.168Z" fill="#7A2E41"/>
<path d="M29.832 38.241L32.751 44.091C32.925 44.58 32.553 45.015 32.052 45.003H15.948C15.465 45.012 15.093 44.604 15.24 44.121L18.168 38.241C22.056 38.241 25.944 38.241 29.832 38.241Z" fill="#6D6E71"/>
<path opacity="0.98" d="M34.005 17.292L38.262 17.283C38.535 17.307 38.766 17.499 38.847 17.757L38.877 30.153C38.853 30.534 38.592 30.774 38.223 30.807C36.906 30.924 35.415 30.717 34.08 30.807C33.807 30.783 33.576 30.591 33.495 30.333V17.757C33.552 17.538 33.78 17.331 34.005 17.295V17.292Z" fill="#00AEEF"/>
<path opacity="0.98" d="M17.778 20.673L22.035 20.664C22.374 20.697 22.638 20.973 22.65 21.318V30.153C22.626 30.534 22.368 30.774 21.996 30.807C20.676 30.924 19.191 30.717 17.853 30.807C17.514 30.774 17.25 30.498 17.238 30.153V21.276C17.268 20.976 17.49 20.736 17.778 20.673Z" fill="#00AEEF"/>
<path opacity="0.98" d="M25.89 22.701L30.147 22.692C30.486 22.725 30.75 23.001 30.762 23.346V30.153C30.738 30.531 30.48 30.774 30.108 30.807C28.788 30.924 27.303 30.717 25.965 30.807C25.626 30.774 25.362 30.498 25.35 30.153V23.307C25.38 23.007 25.602 22.767 25.89 22.704V22.701Z" fill="#00AEEF"/>
<path opacity="0.98" d="M9.663 24.051L13.92 24.042C14.28 24.087 14.502 24.336 14.535 24.696C14.688 26.433 14.415 28.392 14.535 30.15C14.523 30.507 14.238 30.795 13.881 30.804C12.558 30.714 11.085 30.918 9.777 30.804C9.393 30.771 9.156 30.534 9.123 30.15C8.97 28.401 9.243 26.427 9.123 24.654C9.15 24.354 9.372 24.114 9.663 24.051Z" fill="#00AEEF"/>
<path d="M34.944 15.549C34.68 15.351 34.26 14.73 34.182 14.409C33.663 12.249 36.528 10.908 37.827 12.729C39.174 14.619 36.732 16.893 34.944 15.549Z" fill="#DE4D60"/>
<path d="M13.35 19.266C13.587 19.53 13.833 20.178 13.857 20.535C13.992 22.479 11.484 23.475 10.242 21.93C8.93098 20.298 10.68 17.973 12.645 18.81C12.807 18.879 13.248 19.155 13.347 19.269L13.35 19.266Z" fill="#DE4D60"/>
<path d="M29.283 17.661C29.547 17.859 29.967 18.48 30.045 18.801C30.372 20.154 29.25 21.453 27.87 21.336C26.928 21.258 26.097 20.421 26.031 19.476C26.001 19.068 26.139 18.507 26.37 18.165C26.991 17.244 28.386 16.983 29.286 17.658L29.283 17.661Z" fill="#DE4D60"/>
<path d="M21.972 17.112C22.002 17.52 21.864 18.081 21.633 18.423C21.024 19.326 19.764 19.578 18.846 18.99C18.78 18.948 18.447 18.705 18.42 18.678C18.18 18.414 17.937 17.769 17.913 17.409C17.727 14.763 21.786 14.505 21.969 17.112H21.972Z" fill="#DE4D60"/>
<path d="M34.944 15.549L30.042 18.804C29.964 18.483 29.547 17.862 29.28 17.664L34.182 14.409C34.26 14.73 34.677 15.351 34.944 15.549Z" fill="#010102"/>
<path d="M17.913 17.409C17.937 17.766 18.18 18.411 18.42 18.678L13.857 20.538C13.833 20.184 13.587 19.533 13.35 19.269L17.913 17.409Z" fill="#010102"/>
<path d="M26.367 18.168C26.136 18.51 26.001 19.071 26.028 19.479L21.633 18.423C21.864 18.081 21.999 17.52 21.972 17.112L26.367 18.168Z" fill="#010102"/>
</svg>
