<svg width="48" height="48" viewBox="0 0 48 48" fill="none" xmlns="http://www.w3.org/2000/svg">
<path d="M20.007 6.90601C22.668 6.90601 25.332 6.90601 27.99 6.90601C30.648 6.90601 33.171 6.90601 35.763 6.90601C36.375 6.95701 36.879 7.45201 36.984 8.05201C36.945 10.008 37.02 11.979 37.023 13.923C37.023 13.929 36.981 13.983 36.981 14.055C36.984 17.397 36.981 20.739 36.981 24.078C36.975 24.081 36.975 24.144 36.918 24.189C33.918 26.493 30.912 28.791 27.909 31.095C26.862 30.285 25.779 29.493 24.744 28.659C24.234 28.347 23.727 28.356 23.223 28.674C22.203 29.514 21.12 30.291 20.082 31.095C17.07 28.782 14.052 26.472 11.04 24.156C11.004 24.129 11.016 24.081 11.013 24.078C11.013 20.736 11.013 17.397 11.013 14.055C11.013 13.986 10.971 13.932 10.971 13.923C10.971 11.979 11.049 10.005 11.01 8.05201C11.112 7.45501 11.619 6.95701 12.231 6.90601C14.823 6.90601 17.412 6.90901 20.004 6.90601H20.007Z" fill="#EFC317"/>
<path d="M27.915 31.092C28.245 31.347 28.56 31.629 28.887 31.884C33.786 35.673 38.67 39.483 43.572 43.263C43.329 43.626 43.029 43.791 42.585 43.845H5.45099C4.98599 43.812 4.68299 43.632 4.42499 43.263C9.38399 39.447 14.316 35.598 19.266 31.767C19.545 31.551 19.806 31.308 20.085 31.092C21.123 30.288 22.206 29.511 23.226 28.671C23.73 28.353 24.237 28.344 24.747 28.656C25.782 29.49 26.865 30.282 27.912 31.092H27.915Z" fill="#DE4D60"/>
<path d="M4.46402 19.038C4.58102 19.179 4.71302 19.287 4.85702 19.401C6.85502 21.018 8.98802 22.518 11.016 24.075C11.019 24.075 11.007 24.126 11.043 24.153C14.055 26.469 17.073 28.779 20.085 31.092C19.809 31.305 19.545 31.551 19.266 31.767C14.316 35.598 9.38402 39.447 4.42502 43.263C4.24802 43.008 4.17902 42.87 4.15202 42.546V19.287C4.12802 19.113 4.41002 19.077 4.46402 19.038Z" fill="#FE5364"/>
<path d="M43.572 43.263C38.667 39.483 33.783 35.673 28.887 31.884C28.557 31.629 28.242 31.347 27.915 31.092C30.915 28.791 33.924 26.493 36.924 24.186C36.981 24.141 36.981 24.078 36.987 24.075C39.075 22.47 41.247 20.91 43.323 19.269L43.536 18.999C43.641 19.086 43.881 19.122 43.848 19.326V42.546C43.824 42.855 43.74 43.017 43.575 43.263H43.572Z" fill="#FE5364"/>
<path d="M43.533 18.999L43.32 19.269C41.244 20.913 39.072 22.47 36.984 24.075C36.984 20.733 36.984 17.394 36.984 14.052C36.984 13.983 37.026 13.929 37.026 13.92C39.147 15.591 41.331 17.193 43.44 18.882C43.488 18.918 43.512 18.978 43.536 18.996L43.533 18.999Z" fill="#7A2E41"/>
<path d="M11.016 24.078C8.98799 22.521 6.85499 21.021 4.85699 19.404C4.71599 19.29 4.58099 19.182 4.46399 19.041C4.46999 19.038 4.46999 18.963 4.52099 18.924L10.977 13.923C10.977 13.923 11.019 13.983 11.019 14.055C11.016 17.397 11.019 20.739 11.019 24.078H11.016Z" fill="#7A2E41"/>
<path d="M27.99 6.90601C25.329 6.90601 22.665 6.90601 20.007 6.90601L23.172 4.43101C23.676 4.05901 24.324 4.05901 24.825 4.43101L27.99 6.90601Z" fill="#7A2E41"/>
<path d="M17.091 15.096L30.84 15.087C31.743 15.165 31.773 16.404 30.84 16.482H17.118C16.269 16.395 16.251 15.216 17.088 15.096H17.091Z" fill="#802F40"/>
<path d="M24.609 19.203L30.873 19.197C31.752 19.305 31.734 20.475 30.876 20.589H24.6C23.796 20.448 23.784 19.323 24.606 19.203H24.609Z" fill="#802F40"/>
<path d="M17.535 11.772H30.438" stroke="#7A2E41" stroke-width="2" stroke-miterlimit="10" stroke-linecap="round"/>
<path d="M17.535 15.972H30.438" stroke="#7A2E41" stroke-width="2" stroke-miterlimit="10" stroke-linecap="round"/>
<path d="M24.603 20.172H30.438" stroke="#7A2E41" stroke-width="2" stroke-miterlimit="10" stroke-linecap="round"/>
</svg>
