<svg width="48" height="48" viewBox="0 0 48 48" fill="none" xmlns="http://www.w3.org/2000/svg">
<path d="M14.223 42.879C20.0153 42.879 24.711 38.1834 24.711 32.391C24.711 26.5986 20.0153 21.903 14.223 21.903C8.43062 21.903 3.73499 26.5986 3.73499 32.391C3.73499 38.1834 8.43062 42.879 14.223 42.879Z" fill="#EFC317"/>
<path opacity="0.98" d="M17.643 15.003L21.264 13.116L22.677 14.262L24.045 13.269L26.028 14.562L27.639 13.281L29.286 14.754L32.295 13.458L33.501 14.682L35.055 13.542L38.445 15.915L42.282 22.905L41.514 23.352H25.419L21.666 20.361L18.072 18.936L16.056 18.051L17.643 15.003Z" fill="#00AEEF"/>
<path opacity="0.98" d="M42.282 22.905C40.884 20.346 33.957 7.683 33.693 7.551C33.429 7.419 29.898 12.975 28.884 14.574C28.761 14.766 28.479 14.76 28.365 14.559L23.211 5.454C23.094 5.247 22.791 5.25 22.68 5.463L17.646 15L15.828 18.489C19.458 18.903 22.662 20.706 24.906 23.352H42.018C42.249 23.352 42.393 23.106 42.285 22.905H42.282Z" stroke="#0074FF" stroke-width="2" stroke-miterlimit="10"/>
<path d="M12.213 33.687C14.2261 33.687 15.858 32.0551 15.858 30.042C15.858 28.0289 14.2261 26.397 12.213 26.397C10.1999 26.397 8.56799 28.0289 8.56799 30.042C8.56799 32.0551 10.1999 33.687 12.213 33.687Z" stroke="white" stroke-width="2" stroke-miterlimit="10"/>
<path d="M14.634 32.763L19.092 37.221" stroke="white" stroke-width="2" stroke-miterlimit="10" stroke-linecap="round"/>
</svg>
