<!-- Icon: LinkedInDark -->
<svg width="16" height="16" viewBox="0 0 16 16" fill="none" xmlns="http://www.w3.org/2000/svg">
<rect x="2" y="2" width="12" height="12" fill="white"/>
<path d="M13.6666 1.33331H2.33325C2.06804 1.33331 1.81368 1.43867 1.62615 1.62621C1.43861 1.81374 1.33325 2.0681 1.33325 2.33331V13.6666C1.33325 13.9319 1.43861 14.1862 1.62615 14.3738C1.81368 14.5613 2.06804 14.6666 2.33325 14.6666H13.6666C13.9318 14.6666 14.1862 14.5613 14.3737 14.3738C14.5612 14.1862 14.6666 13.9319 14.6666 13.6666V2.33331C14.6666 2.0681 14.5612 1.81374 14.3737 1.62621C14.1862 1.43867 13.9318 1.33331 13.6666 1.33331V1.33331ZM5.33325 12.6666H3.33325V6.66665H5.33325V12.6666ZM4.33325 5.49998C4.10404 5.49343 3.88184 5.41948 3.69442 5.28736C3.507 5.15525 3.36266 4.97084 3.27945 4.75716C3.19624 4.54349 3.17783 4.31003 3.22655 4.08596C3.27526 3.86189 3.38892 3.65714 3.55333 3.4973C3.71774 3.33745 3.92561 3.2296 4.15096 3.18722C4.37632 3.14484 4.60916 3.16981 4.82041 3.25901C5.03165 3.34821 5.21193 3.49768 5.33871 3.68875C5.46549 3.87981 5.53316 4.10401 5.53325 4.33331C5.52799 4.64688 5.39881 4.94561 5.17395 5.16422C4.94909 5.38284 4.64684 5.50355 4.33325 5.49998V5.49998ZM12.6666 12.6666H10.6666V9.50665C10.6666 8.55998 10.2666 8.21998 9.74659 8.21998C9.59413 8.23013 9.44517 8.2703 9.30828 8.33819C9.17139 8.40607 9.04926 8.50033 8.94891 8.61555C8.84855 8.73077 8.77195 8.86469 8.7235 9.0096C8.67505 9.15451 8.65571 9.30757 8.66659 9.45998C8.66328 9.491 8.66328 9.52229 8.66659 9.55331V12.6666H6.66659V6.66665H8.59992V7.53331C8.79494 7.23665 9.06287 6.99503 9.37805 6.8316C9.69322 6.66818 10.0451 6.58842 10.3999 6.59998C11.4333 6.59998 12.6399 7.17331 12.6399 9.03998L12.6666 12.6666Z" fill="#0A66C2"/>
</svg>
