<!-- Icon: Slack -->
<svg width="16" height="16" viewBox="0 0 16 16" fill="none" xmlns="http://www.w3.org/2000/svg">
<path d="M13.25 7.5C13.4972 7.5 13.7389 7.42669 13.9445 7.28934C14.15 7.15199 14.3102 6.95676 14.4048 6.72835C14.4995 6.49995 14.5242 6.24861 14.476 6.00614C14.4277 5.76366 14.3087 5.54093 14.1339 5.36612C13.9591 5.1913 13.7363 5.07225 13.4939 5.02402C13.2514 4.97579 13.0001 5.00054 12.7716 5.09515C12.5432 5.18976 12.348 5.34998 12.2107 5.55554C12.0733 5.7611 12 6.00277 12 6.25V7.5H13.25ZM9.75 7.5C10.4407 7.5 11 6.94 11 6.25V2.75C11 2.41848 10.8683 2.10054 10.6339 1.86612C10.3995 1.6317 10.0815 1.5 9.75 1.5C9.41848 1.5 9.10054 1.6317 8.86612 1.86612C8.6317 2.10054 8.5 2.41848 8.5 2.75V6.25C8.5 6.94067 9.06 7.5 9.75 7.5Z" fill="#2EB67D"/>
<path d="M2.75 8.5C2.50277 8.5 2.2611 8.57331 2.05554 8.71066C1.84998 8.84801 1.68976 9.04324 1.59515 9.27165C1.50054 9.50005 1.47579 9.75139 1.52402 9.99386C1.57225 10.2363 1.6913 10.4591 1.86612 10.6339C2.04093 10.8087 2.26366 10.9277 2.50614 10.976C2.74861 11.0242 2.99995 10.9995 3.22835 10.9049C3.45676 10.8102 3.65199 10.65 3.78934 10.4445C3.92669 10.2389 4 9.99723 4 9.75V8.5H2.75ZM6.25 8.5C5.55933 8.5 5 9.06 5 9.75V13.25C5 13.5815 5.1317 13.8995 5.36612 14.1339C5.60054 14.3683 5.91848 14.5 6.25 14.5C6.58152 14.5 6.89946 14.3683 7.13388 14.1339C7.3683 13.8995 7.5 13.5815 7.5 13.25V9.75C7.5 9.05933 6.94 8.5 6.25 8.5Z" fill="#E01E5A"/>
<path d="M8.5 13.25C8.5 13.4972 8.57331 13.7389 8.71066 13.9445C8.84801 14.15 9.04324 14.3102 9.27165 14.4048C9.50005 14.4995 9.75139 14.5242 9.99386 14.476C10.2363 14.4277 10.4591 14.3087 10.6339 14.1339C10.8087 13.9591 10.9277 13.7363 10.976 13.4939C11.0242 13.2514 10.9995 13.0001 10.9049 12.7716C10.8102 12.5432 10.65 12.348 10.4445 12.2107C10.2389 12.0733 9.99723 12 9.75 12H8.5V13.25ZM8.5 9.75C8.5 10.4407 9.06 11 9.75 11H13.25C13.5815 11 13.8995 10.8683 14.1339 10.6339C14.3683 10.3995 14.5 10.0815 14.5 9.75C14.5 9.41848 14.3683 9.10054 14.1339 8.86612C13.8995 8.6317 13.5815 8.5 13.25 8.5H9.75C9.06 8.5 8.5 9.06 8.5 9.75Z" fill="#ECB22E"/>
<path d="M7.5 2.75C7.5 2.50277 7.42669 2.2611 7.28934 2.05554C7.15199 1.84998 6.95676 1.68976 6.72835 1.59515C6.49995 1.50054 6.24861 1.47579 6.00614 1.52402C5.76366 1.57225 5.54093 1.6913 5.36612 1.86612C5.1913 2.04093 5.07225 2.26366 5.02402 2.50614C4.97579 2.74861 5.00054 2.99995 5.09515 3.22835C5.18976 3.45676 5.34998 3.65199 5.55554 3.78934C5.7611 3.92669 6.00277 4 6.25 4H7.5V2.75ZM7.5 6.25C7.5 5.55933 6.94 5 6.25 5H2.75C2.41848 5 2.10054 5.1317 1.86612 5.36612C1.6317 5.60054 1.5 5.91848 1.5 6.25C1.5 6.58152 1.6317 6.89946 1.86612 7.13388C2.10054 7.3683 2.41848 7.5 2.75 7.5H6.25C6.94 7.5 7.5 6.94 7.5 6.25Z" fill="#36C5F0"/>
</svg>
